%TF.GenerationSoftware,KiCad,Pcbnew,8.0.0*%
%TF.CreationDate,2024-04-26T20:31:40-04:00*%
%TF.ProjectId,Main board,4d61696e-2062-46f6-9172-642e6b696361,rev?*%
%TF.SameCoordinates,Original*%
%TF.FileFunction,Copper,L1,Top*%
%TF.FilePolarity,Positive*%
%FSLAX46Y46*%
G04 Gerber Fmt 4.6, Leading zero omitted, Abs format (unit mm)*
G04 Created by KiCad (PCBNEW 8.0.0) date 2024-04-26 20:31:40*
%MOMM*%
%LPD*%
G01*
G04 APERTURE LIST*
G04 Aperture macros list*
%AMRoundRect*
0 Rectangle with rounded corners*
0 $1 Rounding radius*
0 $2 $3 $4 $5 $6 $7 $8 $9 X,Y pos of 4 corners*
0 Add a 4 corners polygon primitive as box body*
4,1,4,$2,$3,$4,$5,$6,$7,$8,$9,$2,$3,0*
0 Add four circle primitives for the rounded corners*
1,1,$1+$1,$2,$3*
1,1,$1+$1,$4,$5*
1,1,$1+$1,$6,$7*
1,1,$1+$1,$8,$9*
0 Add four rect primitives between the rounded corners*
20,1,$1+$1,$2,$3,$4,$5,0*
20,1,$1+$1,$4,$5,$6,$7,0*
20,1,$1+$1,$6,$7,$8,$9,0*
20,1,$1+$1,$8,$9,$2,$3,0*%
%AMFreePoly0*
4,1,6,1.000000,0.000000,0.500000,-0.750000,-0.500000,-0.750000,-0.500000,0.750000,0.500000,0.750000,1.000000,0.000000,1.000000,0.000000,$1*%
%AMFreePoly1*
4,1,6,0.500000,-0.750000,-0.650000,-0.750000,-0.150000,0.000000,-0.650000,0.750000,0.500000,0.750000,0.500000,-0.750000,0.500000,-0.750000,$1*%
%AMFreePoly2*
4,1,12,0.600035,0.600035,0.600050,0.600000,0.600050,-1.800000,0.600035,-1.800035,0.600000,-1.800050,0.599965,-1.800035,-1.800035,0.599965,-1.800050,0.600000,-1.800035,0.600035,-1.800000,0.600050,0.600000,0.600050,0.600035,0.600035,0.600035,0.600035,$1*%
G04 Aperture macros list end*
%TA.AperFunction,EtchedComponent*%
%ADD10C,0.000000*%
%TD*%
%TA.AperFunction,SMDPad,CuDef*%
%ADD11RoundRect,0.062500X-0.375000X-0.062500X0.375000X-0.062500X0.375000X0.062500X-0.375000X0.062500X0*%
%TD*%
%TA.AperFunction,SMDPad,CuDef*%
%ADD12R,1.600000X2.340000*%
%TD*%
%TA.AperFunction,SMDPad,CuDef*%
%ADD13RoundRect,0.200000X0.275000X-0.200000X0.275000X0.200000X-0.275000X0.200000X-0.275000X-0.200000X0*%
%TD*%
%TA.AperFunction,SMDPad,CuDef*%
%ADD14RoundRect,0.175000X0.725000X0.175000X-0.725000X0.175000X-0.725000X-0.175000X0.725000X-0.175000X0*%
%TD*%
%TA.AperFunction,SMDPad,CuDef*%
%ADD15RoundRect,0.200000X0.700000X0.200000X-0.700000X0.200000X-0.700000X-0.200000X0.700000X-0.200000X0*%
%TD*%
%TA.AperFunction,SMDPad,CuDef*%
%ADD16RoundRect,0.225000X-0.250000X0.225000X-0.250000X-0.225000X0.250000X-0.225000X0.250000X0.225000X0*%
%TD*%
%TA.AperFunction,SMDPad,CuDef*%
%ADD17RoundRect,0.050000X-0.387500X-0.050000X0.387500X-0.050000X0.387500X0.050000X-0.387500X0.050000X0*%
%TD*%
%TA.AperFunction,SMDPad,CuDef*%
%ADD18RoundRect,0.050000X-0.050000X-0.387500X0.050000X-0.387500X0.050000X0.387500X-0.050000X0.387500X0*%
%TD*%
%TA.AperFunction,ComponentPad*%
%ADD19C,0.600000*%
%TD*%
%TA.AperFunction,SMDPad,CuDef*%
%ADD20RoundRect,0.144000X-1.456000X-1.456000X1.456000X-1.456000X1.456000X1.456000X-1.456000X1.456000X0*%
%TD*%
%TA.AperFunction,ComponentPad*%
%ADD21C,2.000000*%
%TD*%
%TA.AperFunction,SMDPad,CuDef*%
%ADD22RoundRect,0.200000X-0.200000X-0.275000X0.200000X-0.275000X0.200000X0.275000X-0.200000X0.275000X0*%
%TD*%
%TA.AperFunction,SMDPad,CuDef*%
%ADD23RoundRect,0.225000X0.225000X0.250000X-0.225000X0.250000X-0.225000X-0.250000X0.225000X-0.250000X0*%
%TD*%
%TA.AperFunction,SMDPad,CuDef*%
%ADD24RoundRect,0.225000X0.250000X-0.225000X0.250000X0.225000X-0.250000X0.225000X-0.250000X-0.225000X0*%
%TD*%
%TA.AperFunction,ComponentPad*%
%ADD25RoundRect,0.250000X-0.620000X-0.620000X0.620000X-0.620000X0.620000X0.620000X-0.620000X0.620000X0*%
%TD*%
%TA.AperFunction,ComponentPad*%
%ADD26C,1.740000*%
%TD*%
%TA.AperFunction,SMDPad,CuDef*%
%ADD27FreePoly0,180.000000*%
%TD*%
%TA.AperFunction,SMDPad,CuDef*%
%ADD28FreePoly1,180.000000*%
%TD*%
%TA.AperFunction,SMDPad,CuDef*%
%ADD29RoundRect,0.225000X-0.225000X-0.250000X0.225000X-0.250000X0.225000X0.250000X-0.225000X0.250000X0*%
%TD*%
%TA.AperFunction,SMDPad,CuDef*%
%ADD30R,0.381000X0.203200*%
%TD*%
%TA.AperFunction,SMDPad,CuDef*%
%ADD31R,0.203200X0.381000*%
%TD*%
%TA.AperFunction,SMDPad,CuDef*%
%ADD32RoundRect,0.200000X-0.275000X0.200000X-0.275000X-0.200000X0.275000X-0.200000X0.275000X0.200000X0*%
%TD*%
%TA.AperFunction,SMDPad,CuDef*%
%ADD33RoundRect,0.200000X0.200000X0.275000X-0.200000X0.275000X-0.200000X-0.275000X0.200000X-0.275000X0*%
%TD*%
%TA.AperFunction,ComponentPad*%
%ADD34RoundRect,0.250000X0.620000X0.620000X-0.620000X0.620000X-0.620000X-0.620000X0.620000X-0.620000X0*%
%TD*%
%TA.AperFunction,SMDPad,CuDef*%
%ADD35R,0.950000X0.550000*%
%TD*%
%TA.AperFunction,SMDPad,CuDef*%
%ADD36O,0.800000X1.500000*%
%TD*%
%TA.AperFunction,SMDPad,CuDef*%
%ADD37R,0.600000X1.150000*%
%TD*%
%TA.AperFunction,SMDPad,CuDef*%
%ADD38R,0.300000X1.150000*%
%TD*%
%TA.AperFunction,ComponentPad*%
%ADD39O,1.000000X2.100000*%
%TD*%
%TA.AperFunction,ComponentPad*%
%ADD40O,1.000000X1.800000*%
%TD*%
%TA.AperFunction,SMDPad,CuDef*%
%ADD41FreePoly0,0.000000*%
%TD*%
%TA.AperFunction,SMDPad,CuDef*%
%ADD42FreePoly1,0.000000*%
%TD*%
%TA.AperFunction,SMDPad,CuDef*%
%ADD43R,0.650000X2.000000*%
%TD*%
%TA.AperFunction,SMDPad,CuDef*%
%ADD44RoundRect,0.250000X-0.300000X2.050000X-0.300000X-2.050000X0.300000X-2.050000X0.300000X2.050000X0*%
%TD*%
%TA.AperFunction,SMDPad,CuDef*%
%ADD45RoundRect,0.250000X-2.375000X2.025000X-2.375000X-2.025000X2.375000X-2.025000X2.375000X2.025000X0*%
%TD*%
%TA.AperFunction,SMDPad,CuDef*%
%ADD46RoundRect,0.250002X-5.149998X4.449998X-5.149998X-4.449998X5.149998X-4.449998X5.149998X4.449998X0*%
%TD*%
%TA.AperFunction,SMDPad,CuDef*%
%ADD47RoundRect,0.150000X-0.150000X0.512500X-0.150000X-0.512500X0.150000X-0.512500X0.150000X0.512500X0*%
%TD*%
%TA.AperFunction,ComponentPad*%
%ADD48RoundRect,0.250000X-0.620000X0.620000X-0.620000X-0.620000X0.620000X-0.620000X0.620000X0.620000X0*%
%TD*%
%TA.AperFunction,SMDPad,CuDef*%
%ADD49RoundRect,0.322500X-1.177500X-0.322500X1.177500X-0.322500X1.177500X0.322500X-1.177500X0.322500X0*%
%TD*%
%TA.AperFunction,SMDPad,CuDef*%
%ADD50RoundRect,0.325000X-1.175000X-0.325000X1.175000X-0.325000X1.175000X0.325000X-1.175000X0.325000X0*%
%TD*%
%TA.AperFunction,SMDPad,CuDef*%
%ADD51RoundRect,0.325000X0.325000X-1.425000X0.325000X1.425000X-0.325000X1.425000X-0.325000X-1.425000X0*%
%TD*%
%TA.AperFunction,SMDPad,CuDef*%
%ADD52RoundRect,0.237500X0.287500X0.237500X-0.287500X0.237500X-0.287500X-0.237500X0.287500X-0.237500X0*%
%TD*%
%TA.AperFunction,SMDPad,CuDef*%
%ADD53RoundRect,0.250000X0.350000X-0.850000X0.350000X0.850000X-0.350000X0.850000X-0.350000X-0.850000X0*%
%TD*%
%TA.AperFunction,SMDPad,CuDef*%
%ADD54RoundRect,0.250000X1.125000X-1.275000X1.125000X1.275000X-1.125000X1.275000X-1.125000X-1.275000X0*%
%TD*%
%TA.AperFunction,SMDPad,CuDef*%
%ADD55RoundRect,0.249997X2.650003X-2.950003X2.650003X2.950003X-2.650003X2.950003X-2.650003X-2.950003X0*%
%TD*%
%TA.AperFunction,SMDPad,CuDef*%
%ADD56R,1.000000X0.900000*%
%TD*%
%TA.AperFunction,SMDPad,CuDef*%
%ADD57R,1.500000X5.080000*%
%TD*%
%TA.AperFunction,SMDPad,CuDef*%
%ADD58R,1.800000X0.800000*%
%TD*%
%TA.AperFunction,SMDPad,CuDef*%
%ADD59R,1.400000X1.800000*%
%TD*%
%TA.AperFunction,SMDPad,CuDef*%
%ADD60R,1.200000X1.800000*%
%TD*%
%TA.AperFunction,SMDPad,CuDef*%
%ADD61R,1.500000X1.000000*%
%TD*%
%TA.AperFunction,SMDPad,CuDef*%
%ADD62RoundRect,0.125000X-0.250000X-0.125000X0.250000X-0.125000X0.250000X0.125000X-0.250000X0.125000X0*%
%TD*%
%TA.AperFunction,SMDPad,CuDef*%
%ADD63R,3.400000X4.300000*%
%TD*%
%TA.AperFunction,SMDPad,CuDef*%
%ADD64R,1.150000X1.000000*%
%TD*%
%TA.AperFunction,SMDPad,CuDef*%
%ADD65R,1.050000X0.399999*%
%TD*%
%TA.AperFunction,SMDPad,CuDef*%
%ADD66R,0.200000X0.599999*%
%TD*%
%TA.AperFunction,ComponentPad*%
%ADD67RoundRect,0.250000X0.620000X-0.620000X0.620000X0.620000X-0.620000X0.620000X-0.620000X-0.620000X0*%
%TD*%
%TA.AperFunction,SMDPad,CuDef*%
%ADD68RoundRect,0.250000X0.300000X-2.050000X0.300000X2.050000X-0.300000X2.050000X-0.300000X-2.050000X0*%
%TD*%
%TA.AperFunction,SMDPad,CuDef*%
%ADD69RoundRect,0.250000X2.375000X-2.025000X2.375000X2.025000X-2.375000X2.025000X-2.375000X-2.025000X0*%
%TD*%
%TA.AperFunction,SMDPad,CuDef*%
%ADD70RoundRect,0.250002X5.149998X-4.449998X5.149998X4.449998X-5.149998X4.449998X-5.149998X-4.449998X0*%
%TD*%
%TA.AperFunction,SMDPad,CuDef*%
%ADD71R,0.900000X1.000000*%
%TD*%
%TA.AperFunction,SMDPad,CuDef*%
%ADD72RoundRect,0.250000X-0.250000X-0.250000X0.250000X-0.250000X0.250000X0.250000X-0.250000X0.250000X0*%
%TD*%
%TA.AperFunction,SMDPad,CuDef*%
%ADD73R,0.800000X1.800000*%
%TD*%
%TA.AperFunction,SMDPad,CuDef*%
%ADD74R,1.800000X1.400000*%
%TD*%
%TA.AperFunction,SMDPad,CuDef*%
%ADD75R,1.800000X1.200000*%
%TD*%
%TA.AperFunction,SMDPad,CuDef*%
%ADD76FreePoly2,270.000000*%
%TD*%
%TA.AperFunction,SMDPad,CuDef*%
%ADD77R,1.700000X4.100000*%
%TD*%
%TA.AperFunction,SMDPad,CuDef*%
%ADD78R,2.259800X1.362800*%
%TD*%
%TA.AperFunction,ViaPad*%
%ADD79C,0.800000*%
%TD*%
%TA.AperFunction,Conductor*%
%ADD80C,0.250000*%
%TD*%
%TA.AperFunction,Conductor*%
%ADD81C,0.500000*%
%TD*%
%TA.AperFunction,Conductor*%
%ADD82C,0.200000*%
%TD*%
%TA.AperFunction,Conductor*%
%ADD83C,0.750000*%
%TD*%
%TA.AperFunction,Conductor*%
%ADD84C,0.400000*%
%TD*%
%TA.AperFunction,Conductor*%
%ADD85C,0.450000*%
%TD*%
%TA.AperFunction,Conductor*%
%ADD86C,0.350000*%
%TD*%
%TA.AperFunction,Conductor*%
%ADD87C,0.300000*%
%TD*%
%TA.AperFunction,Conductor*%
%ADD88C,0.600000*%
%TD*%
%TA.AperFunction,Conductor*%
%ADD89C,1.000000*%
%TD*%
G04 APERTURE END LIST*
D10*
%TA.AperFunction,EtchedComponent*%
%TO.C,JP2*%
G36*
X171242000Y-68576000D02*
G01*
X170642000Y-68576000D01*
X170642000Y-68076000D01*
X171242000Y-68076000D01*
X171242000Y-68576000D01*
G37*
%TD.AperFunction*%
%TD*%
D11*
%TO.P,U13,1,VOUT*%
%TO.N,+5V_R*%
X127247500Y-70554999D03*
%TO.P,U13,2,SENSE*%
X127247500Y-71054999D03*
%TO.P,U13,3,GND*%
%TO.N,GND*%
X127247500Y-71554999D03*
%TO.P,U13,4,SS*%
%TO.N,Net-(U13-SS)*%
X127247500Y-72054999D03*
%TO.P,U13,5,EN/UVLO*%
%TO.N,Net-(U13-EN{slash}UVLO)*%
X130122500Y-72054999D03*
%TO.P,U13,6,GND*%
%TO.N,GND*%
X130122500Y-71554999D03*
%TO.P,U13,7,PG*%
%TO.N,Net-(U13-PG)*%
X130122500Y-71054999D03*
%TO.P,U13,8,VIN*%
%TO.N,Net-(U12-VIN)*%
X130122500Y-70554999D03*
D12*
%TO.P,U13,9,GND*%
%TO.N,GND*%
X128685000Y-71304999D03*
%TD*%
D13*
%TO.P,R17,1*%
%TO.N,Net-(C23-Pad2)*%
X146685000Y-95313000D03*
%TO.P,R17,2*%
%TO.N,Net-(U7-XOUT)*%
X146685000Y-93663000D03*
%TD*%
D14*
%TO.P,U10,1,GND*%
%TO.N,GND*%
X78000000Y-118192000D03*
D15*
%TO.P,U10,2,TXD*%
%TO.N,Net-(J13-Pin_2)*%
X78000000Y-117092000D03*
%TO.P,U10,3,RXD*%
%TO.N,Net-(J13-Pin_1)*%
X78000000Y-115992000D03*
%TO.P,U10,4,TIMEPULSE*%
%TO.N,/TIMEPULSE*%
X78000000Y-114892000D03*
%TO.P,U10,5,EXTINT*%
%TO.N,/EXTINT*%
X78000000Y-113792000D03*
%TO.P,U10,6,V_BCKP*%
%TO.N,/V_BCKP*%
X78000000Y-112692000D03*
%TO.P,U10,7,VCC_IO*%
%TO.N,+3V3*%
X78000000Y-111592000D03*
%TO.P,U10,8,VCC*%
X78000000Y-110492000D03*
D14*
%TO.P,U10,9,~{RESET}*%
%TO.N,unconnected-(U10-~{RESET}-Pad9)*%
X78000000Y-109392000D03*
%TO.P,U10,10,GND*%
%TO.N,GND*%
X68500000Y-109392000D03*
D15*
%TO.P,U10,11,RF_IN*%
%TO.N,Net-(AE1-A)*%
X68500000Y-110492000D03*
%TO.P,U10,12,GND*%
%TO.N,GND*%
X68500000Y-111592000D03*
%TO.P,U10,13,LNA_EN*%
%TO.N,unconnected-(U10-LNA_EN-Pad13)*%
X68500000Y-112692000D03*
%TO.P,U10,14,VCC_RF*%
%TO.N,unconnected-(U10-VCC_RF-Pad14)*%
X68500000Y-113792000D03*
%TO.P,U10,15,VIO_SEL*%
%TO.N,unconnected-(U10-VIO_SEL-Pad15)*%
X68500000Y-114892000D03*
%TO.P,U10,16,SDA*%
%TO.N,unconnected-(U10-SDA-Pad16)*%
X68500000Y-115992000D03*
%TO.P,U10,17,SCL*%
%TO.N,unconnected-(U10-SCL-Pad17)*%
X68500000Y-117092000D03*
D14*
%TO.P,U10,18,~{SAFEBOOT}*%
%TO.N,unconnected-(U10-~{SAFEBOOT}-Pad18)*%
X68500000Y-118192000D03*
%TD*%
D11*
%TO.P,U12,1,VOUT*%
%TO.N,+3V3_R*%
X126079500Y-63944999D03*
%TO.P,U12,2,SENSE*%
X126079500Y-64444999D03*
%TO.P,U12,3,GND*%
%TO.N,GND*%
X126079500Y-64944999D03*
%TO.P,U12,4,SS*%
%TO.N,Net-(U12-SS)*%
X126079500Y-65444999D03*
%TO.P,U12,5,EN/UVLO*%
%TO.N,Net-(U12-EN{slash}UVLO)*%
X128954500Y-65444999D03*
%TO.P,U12,6,GND*%
%TO.N,GND*%
X128954500Y-64944999D03*
%TO.P,U12,7,PG*%
%TO.N,Net-(U12-PG)*%
X128954500Y-64444999D03*
%TO.P,U12,8,VIN*%
%TO.N,Net-(U12-VIN)*%
X128954500Y-63944999D03*
D12*
%TO.P,U12,9,GND*%
%TO.N,GND*%
X127517000Y-64694999D03*
%TD*%
D16*
%TO.P,C46,1*%
%TO.N,Net-(U11-VIN)*%
X98250000Y-70113000D03*
%TO.P,C46,2*%
%TO.N,GND*%
X98250000Y-71663000D03*
%TD*%
D17*
%TO.P,U7,1,IOVDD*%
%TO.N,+3V3_R*%
X143631000Y-85281500D03*
%TO.P,U7,2,GPIO0*%
%TO.N,/LS1*%
X143631000Y-85681500D03*
%TO.P,U7,3,GPIO1*%
%TO.N,/Ch.1A*%
X143631000Y-86081500D03*
%TO.P,U7,4,GPIO2*%
%TO.N,/Ch.1B*%
X143631000Y-86481500D03*
%TO.P,U7,5,GPIO3*%
%TO.N,/Ch.2A*%
X143631000Y-86881500D03*
%TO.P,U7,6,GPIO4*%
%TO.N,/Ch.2B*%
X143631000Y-87281500D03*
%TO.P,U7,7,GPIO5*%
%TO.N,/Ch.3A*%
X143631000Y-87681500D03*
%TO.P,U7,8,GPIO6*%
%TO.N,/Ch.3B*%
X143631000Y-88081500D03*
%TO.P,U7,9,GPIO7*%
%TO.N,/D1_R*%
X143631000Y-88481500D03*
%TO.P,U7,10,IOVDD*%
%TO.N,+3V3_R*%
X143631000Y-88881500D03*
%TO.P,U7,11,GPIO8*%
%TO.N,/CROSS_PRIMRX_REDTX*%
X143631000Y-89281500D03*
%TO.P,U7,12,GPIO9*%
%TO.N,/CROSS_PRIMTX_REDRX*%
X143631000Y-89681500D03*
%TO.P,U7,13,GPIO10*%
%TO.N,/PWM_EMRG_REL*%
X143631000Y-90081500D03*
%TO.P,U7,14,GPIO11*%
%TO.N,/CUT*%
X143631000Y-90481500D03*
D18*
%TO.P,U7,15,GPIO12*%
%TO.N,/SPI0_POCI_R*%
X144468500Y-91319000D03*
%TO.P,U7,16,GPIO13*%
%TO.N,/SPI0_CS_SD_R*%
X144868500Y-91319000D03*
%TO.P,U7,17,GPIO14*%
%TO.N,/SPI0_SCK_R*%
X145268500Y-91319000D03*
%TO.P,U7,18,GPIO15*%
%TO.N,/SPI0_PICO_R*%
X145668500Y-91319000D03*
%TO.P,U7,19,TESTEN*%
%TO.N,GND*%
X146068500Y-91319000D03*
%TO.P,U7,20,XIN*%
%TO.N,Net-(U7-XIN)*%
X146468500Y-91319000D03*
%TO.P,U7,21,XOUT*%
%TO.N,Net-(U7-XOUT)*%
X146868500Y-91319000D03*
%TO.P,U7,22,IOVDD*%
%TO.N,+3V3_R*%
X147268500Y-91319000D03*
%TO.P,U7,23,DVDD*%
%TO.N,Net-(U7-VREG_VOUT)*%
X147668500Y-91319000D03*
%TO.P,U7,24,SWCLK*%
%TO.N,/SWCLK_R*%
X148068500Y-91319000D03*
%TO.P,U7,25,SWD*%
%TO.N,/SWD_R*%
X148468500Y-91319000D03*
%TO.P,U7,26,RUN*%
%TO.N,Net-(U7-RUN)*%
X148868500Y-91319000D03*
%TO.P,U7,27,GPIO16*%
%TO.N,unconnected-(U7-GPIO16-Pad27)*%
X149268500Y-91319000D03*
%TO.P,U7,28,GPIO17*%
%TO.N,unconnected-(U7-GPIO17-Pad28)*%
X149668500Y-91319000D03*
D17*
%TO.P,U7,29,GPIO18*%
%TO.N,unconnected-(U7-GPIO18-Pad29)*%
X150506000Y-90481500D03*
%TO.P,U7,30,GPIO19*%
%TO.N,unconnected-(U7-GPIO19-Pad30)*%
X150506000Y-90081500D03*
%TO.P,U7,31,GPIO20*%
%TO.N,unconnected-(U7-GPIO20-Pad31)*%
X150506000Y-89681500D03*
%TO.P,U7,32,GPIO21*%
%TO.N,unconnected-(U7-GPIO21-Pad32)*%
X150506000Y-89281500D03*
%TO.P,U7,33,IOVDD*%
%TO.N,+3V3_R*%
X150506000Y-88881500D03*
%TO.P,U7,34,GPIO22*%
%TO.N,unconnected-(U7-GPIO22-Pad34)*%
X150506000Y-88481500D03*
%TO.P,U7,35,GPIO23*%
%TO.N,unconnected-(U7-GPIO23-Pad35)*%
X150506000Y-88081500D03*
%TO.P,U7,36,GPIO24*%
%TO.N,unconnected-(U7-GPIO24-Pad36)*%
X150506000Y-87681500D03*
%TO.P,U7,37,GPIO25*%
%TO.N,unconnected-(U7-GPIO25-Pad37)*%
X150506000Y-87281500D03*
%TO.P,U7,38,GPIO26_ADC0*%
%TO.N,unconnected-(U7-GPIO26_ADC0-Pad38)*%
X150506000Y-86881500D03*
%TO.P,U7,39,GPIO27_ADC1*%
%TO.N,unconnected-(U7-GPIO27_ADC1-Pad39)*%
X150506000Y-86481500D03*
%TO.P,U7,40,GPIO28_ADC2*%
%TO.N,unconnected-(U7-GPIO28_ADC2-Pad40)*%
X150506000Y-86081500D03*
%TO.P,U7,41,GPIO29_ADC3*%
%TO.N,unconnected-(U7-GPIO29_ADC3-Pad41)*%
X150506000Y-85681500D03*
%TO.P,U7,42,IOVDD*%
%TO.N,+3V3_R*%
X150506000Y-85281500D03*
D18*
%TO.P,U7,43,ADC_AVDD*%
X149668500Y-84444000D03*
%TO.P,U7,44,VREG_IN*%
X149268500Y-84444000D03*
%TO.P,U7,45,VREG_VOUT*%
%TO.N,Net-(U7-VREG_VOUT)*%
X148868500Y-84444000D03*
%TO.P,U7,46,USB_DM*%
%TO.N,Net-(U7-USB_DM)*%
X148468500Y-84444000D03*
%TO.P,U7,47,USB_DP*%
%TO.N,Net-(U7-USB_DP)*%
X148068500Y-84444000D03*
%TO.P,U7,48,USB_VDD*%
%TO.N,+3V3_R*%
X147668500Y-84444000D03*
%TO.P,U7,49,IOVDD*%
X147268500Y-84444000D03*
%TO.P,U7,50,DVDD*%
%TO.N,Net-(U7-VREG_VOUT)*%
X146868500Y-84444000D03*
%TO.P,U7,51,QSPI_SD3*%
%TO.N,/R_QSPI_SD3*%
X146468500Y-84444000D03*
%TO.P,U7,52,QSPI_SCLK*%
%TO.N,/R_QSPI_SCLK*%
X146068500Y-84444000D03*
%TO.P,U7,53,QSPI_SD0*%
%TO.N,/R_QSPI_SD0*%
X145668500Y-84444000D03*
%TO.P,U7,54,QSPI_SD2*%
%TO.N,/R_QSPI_SD2*%
X145268500Y-84444000D03*
%TO.P,U7,55,QSPI_SD1*%
%TO.N,/R_QSPI_SD1*%
X144868500Y-84444000D03*
%TO.P,U7,56,QSPI_SS*%
%TO.N,/R_QSPI_SS*%
X144468500Y-84444000D03*
D19*
%TO.P,U7,57,GND*%
%TO.N,GND*%
X145793500Y-86606500D03*
X145793500Y-87881500D03*
X145793500Y-89156500D03*
X147068500Y-86606500D03*
X147068500Y-87881500D03*
D20*
X147068500Y-87881500D03*
D19*
X147068500Y-89156500D03*
X148343500Y-86606500D03*
X148343500Y-87881500D03*
X148343500Y-89156500D03*
%TD*%
D21*
%TO.P,TP5,1,1*%
%TO.N,+3V3*%
X87884000Y-61087000D03*
%TD*%
D22*
%TO.P,R10,1*%
%TO.N,+3V3*%
X96457000Y-82804000D03*
%TO.P,R10,2*%
%TO.N,/SCL*%
X98107000Y-82804000D03*
%TD*%
D16*
%TO.P,C49,1*%
%TO.N,+3V3_R*%
X124587000Y-62852000D03*
%TO.P,C49,2*%
%TO.N,GND*%
X124587000Y-64402000D03*
%TD*%
D23*
%TO.P,C47,1*%
%TO.N,Net-(U11-SS)*%
X89294000Y-72948000D03*
%TO.P,C47,2*%
%TO.N,GND*%
X87744000Y-72948000D03*
%TD*%
D24*
%TO.P,C51,1*%
%TO.N,Net-(U12-SS)*%
X124596000Y-67450000D03*
%TO.P,C51,2*%
%TO.N,GND*%
X124596000Y-65900000D03*
%TD*%
D11*
%TO.P,U5,1,VOUT*%
%TO.N,+3V3*%
X90637500Y-63816000D03*
%TO.P,U5,2,SENSE*%
X90637500Y-64316000D03*
%TO.P,U5,3,GND*%
%TO.N,GND*%
X90637500Y-64816000D03*
%TO.P,U5,4,SS*%
%TO.N,Net-(U5-SS)*%
X90637500Y-65316000D03*
%TO.P,U5,5,EN/UVLO*%
%TO.N,Net-(U5-EN{slash}UVLO)*%
X93512500Y-65316000D03*
%TO.P,U5,6,GND*%
%TO.N,GND*%
X93512500Y-64816000D03*
%TO.P,U5,7,PG*%
%TO.N,Net-(U5-PG)*%
X93512500Y-64316000D03*
%TO.P,U5,8,VIN*%
%TO.N,Net-(U11-VIN)*%
X93512500Y-63816000D03*
D12*
%TO.P,U5,9,GND*%
%TO.N,GND*%
X92075000Y-64566000D03*
%TD*%
D25*
%TO.P,J18,1,Pin_1*%
%TO.N,+5V*%
X84210000Y-114500000D03*
D26*
%TO.P,J18,2,Pin_2*%
%TO.N,/PWM_MC*%
X86750000Y-114500000D03*
%TO.P,J18,3,Pin_3*%
%TO.N,GND*%
X89290000Y-114500000D03*
%TD*%
D27*
%TO.P,JP4,1,A*%
%TO.N,Net-(J15-Pin_1)*%
X95000000Y-110250000D03*
D28*
%TO.P,JP4,2,B*%
%TO.N,+5V*%
X93550000Y-110250000D03*
%TD*%
D29*
%TO.P,C27,1*%
%TO.N,+3V3_R*%
X151993000Y-90551000D03*
%TO.P,C27,2*%
%TO.N,GND*%
X153543000Y-90551000D03*
%TD*%
D22*
%TO.P,R59,1*%
%TO.N,Net-(U15-OV2)*%
X139808000Y-63881000D03*
%TO.P,R59,2*%
%TO.N,VCC*%
X141458000Y-63881000D03*
%TD*%
D29*
%TO.P,C31,1*%
%TO.N,+3V3_R*%
X152021000Y-84455000D03*
%TO.P,C31,2*%
%TO.N,GND*%
X153571000Y-84455000D03*
%TD*%
D30*
%TO.P,U4,1,SDO*%
%TO.N,/SPI0_POCI*%
X93135000Y-76477999D03*
%TO.P,U4,2,ASDX*%
%TO.N,unconnected-(U4-ASDX-Pad2)*%
X93135000Y-76978000D03*
%TO.P,U4,3,ASCX*%
%TO.N,unconnected-(U4-ASCX-Pad3)*%
X93135000Y-77478000D03*
%TO.P,U4,4,INT1*%
%TO.N,unconnected-(U4-INT1-Pad4)*%
X93135000Y-77978001D03*
D31*
%TO.P,U4,5,VDDIO*%
%TO.N,+3V3*%
X93841501Y-78180500D03*
%TO.P,U4,6,GNDIO*%
%TO.N,GND*%
X94341500Y-78180500D03*
%TO.P,U4,7,GND*%
X94841499Y-78180500D03*
D30*
%TO.P,U4,8,VDD*%
%TO.N,+3V3*%
X95548000Y-77978001D03*
%TO.P,U4,9,INT2*%
%TO.N,unconnected-(U4-INT2-Pad9)*%
X95548000Y-77478000D03*
%TO.P,U4,10,OCSB*%
%TO.N,unconnected-(U4-OCSB-Pad10)*%
X95548000Y-76978000D03*
%TO.P,U4,11,OSDO*%
%TO.N,unconnected-(U4-OSDO-Pad11)*%
X95548000Y-76477999D03*
D31*
%TO.P,U4,12,CSB*%
%TO.N,/SPIO_CS_IMU*%
X94841499Y-76275500D03*
%TO.P,U4,13,SCX*%
%TO.N,/SPI0_SCK*%
X94341500Y-76275500D03*
%TO.P,U4,14,SDX*%
%TO.N,/SPI0_PICO*%
X93841501Y-76275500D03*
%TD*%
D32*
%TO.P,R13,1*%
%TO.N,/GPS_TX*%
X109474000Y-95568000D03*
%TO.P,R13,2*%
%TO.N,Net-(J13-Pin_2)*%
X109474000Y-97218000D03*
%TD*%
D29*
%TO.P,C5,1*%
%TO.N,Net-(U1-VREG_VOUT)*%
X111353000Y-74676000D03*
%TO.P,C5,2*%
%TO.N,GND*%
X112903000Y-74676000D03*
%TD*%
D33*
%TO.P,R52,1*%
%TO.N,GND*%
X108775000Y-66929000D03*
%TO.P,R52,2*%
%TO.N,Net-(U14-CP2)*%
X107125000Y-66929000D03*
%TD*%
D29*
%TO.P,C24,1*%
%TO.N,Net-(U7-VREG_VOUT)*%
X150863000Y-77851000D03*
%TO.P,C24,2*%
%TO.N,GND*%
X152413000Y-77851000D03*
%TD*%
D13*
%TO.P,R55,1*%
%TO.N,Net-(U15-PR1)*%
X135763000Y-66738000D03*
%TO.P,R55,2*%
%TO.N,+BATT*%
X135763000Y-65088000D03*
%TD*%
D34*
%TO.P,J16,1,Pin_1*%
%TO.N,+BATT*%
X136259500Y-58293000D03*
D26*
%TO.P,J16,2,Pin_2*%
%TO.N,GND*%
X133719500Y-58293000D03*
%TD*%
D22*
%TO.P,R8,1*%
%TO.N,Net-(J2-CC1)*%
X116648000Y-64135000D03*
%TO.P,R8,2*%
%TO.N,GND*%
X118298000Y-64135000D03*
%TD*%
D24*
%TO.P,C7,1*%
%TO.N,+3V3*%
X121539000Y-82776000D03*
%TO.P,C7,2*%
%TO.N,GND*%
X121539000Y-81226000D03*
%TD*%
D35*
%TO.P,U3,1,VDD*%
%TO.N,+3V3*%
X95445000Y-84475000D03*
%TO.P,U3,2,PS*%
X95445000Y-85725000D03*
%TO.P,U3,3,GND*%
%TO.N,GND*%
X95445000Y-86975000D03*
%TO.P,U3,4,CSB*%
X95445000Y-88225000D03*
%TO.P,U3,5,CSB*%
X97595000Y-88225000D03*
%TO.P,U3,6,SDO*%
%TO.N,unconnected-(U3-SDO-Pad6)*%
X97595000Y-86975000D03*
%TO.P,U3,7,SDI/SDA*%
%TO.N,/SDA*%
X97595000Y-85725000D03*
%TO.P,U3,8,SCLK*%
%TO.N,/SCL*%
X97595000Y-84475000D03*
%TD*%
D16*
%TO.P,C19,1*%
%TO.N,+3V3*%
X89027000Y-63565000D03*
%TO.P,C19,2*%
%TO.N,GND*%
X89027000Y-65115000D03*
%TD*%
D25*
%TO.P,J5,1,Pin_1*%
%TO.N,+3V3*%
X156845000Y-114185000D03*
D26*
%TO.P,J5,2,Pin_2*%
%TO.N,GND*%
X159385000Y-114185000D03*
%TO.P,J5,3,Pin_3*%
%TO.N,/Ch.3A*%
X161925000Y-114185000D03*
%TO.P,J5,4,Pin_4*%
%TO.N,/Ch.3B*%
X164465000Y-114185000D03*
%TD*%
D17*
%TO.P,U1,1,IOVDD*%
%TO.N,+3V3*%
X110105500Y-83247000D03*
%TO.P,U1,2,GPIO0*%
%TO.N,/SPI0_POCI*%
X110105500Y-83647000D03*
%TO.P,U1,3,GPIO1*%
%TO.N,/SPI0_CS_RAD*%
X110105500Y-84047000D03*
%TO.P,U1,4,GPIO2*%
%TO.N,/SPI0_SCK*%
X110105500Y-84447000D03*
%TO.P,U1,5,GPIO3*%
%TO.N,/SPI0_PICO*%
X110105500Y-84847000D03*
%TO.P,U1,6,GPIO4*%
%TO.N,Net-(U1-GPIO4)*%
X110105500Y-85247000D03*
%TO.P,U1,7,GPIO5*%
%TO.N,Net-(U1-GPIO5)*%
X110105500Y-85647000D03*
%TO.P,U1,8,GPIO6*%
%TO.N,/SDA*%
X110105500Y-86047000D03*
%TO.P,U1,9,GPIO7*%
%TO.N,/SCL*%
X110105500Y-86447000D03*
%TO.P,U1,10,IOVDD*%
%TO.N,+3V3*%
X110105500Y-86847000D03*
%TO.P,U1,11,GPIO8*%
%TO.N,/D1*%
X110105500Y-87247000D03*
%TO.P,U1,12,GPIO9*%
%TO.N,/SPIO_CS_IMU*%
X110105500Y-87647000D03*
%TO.P,U1,13,GPIO10*%
%TO.N,/LS2*%
X110105500Y-88047000D03*
%TO.P,U1,14,GPIO11*%
%TO.N,/PWM_MC*%
X110105500Y-88447000D03*
D18*
%TO.P,U1,15,GPIO12*%
%TO.N,/GPS_RX*%
X110943000Y-89284500D03*
%TO.P,U1,16,GPIO13*%
%TO.N,/GPS_TX*%
X111343000Y-89284500D03*
%TO.P,U1,17,GPIO14*%
%TO.N,/LS1*%
X111743000Y-89284500D03*
%TO.P,U1,18,GPIO15*%
%TO.N,/Ch.1A*%
X112143000Y-89284500D03*
%TO.P,U1,19,TESTEN*%
%TO.N,GND*%
X112543000Y-89284500D03*
%TO.P,U1,20,XIN*%
%TO.N,Net-(U1-XIN)*%
X112943000Y-89284500D03*
%TO.P,U1,21,XOUT*%
%TO.N,Net-(U1-XOUT)*%
X113343000Y-89284500D03*
%TO.P,U1,22,IOVDD*%
%TO.N,+3V3*%
X113743000Y-89284500D03*
%TO.P,U1,23,DVDD*%
%TO.N,Net-(U1-VREG_VOUT)*%
X114143000Y-89284500D03*
%TO.P,U1,24,SWCLK*%
%TO.N,/SWCLK*%
X114543000Y-89284500D03*
%TO.P,U1,25,SWD*%
%TO.N,/SWD*%
X114943000Y-89284500D03*
%TO.P,U1,26,RUN*%
%TO.N,Net-(U1-RUN)*%
X115343000Y-89284500D03*
%TO.P,U1,27,GPIO16*%
%TO.N,/Ch.1B*%
X115743000Y-89284500D03*
%TO.P,U1,28,GPIO17*%
%TO.N,/Ch.2A*%
X116143000Y-89284500D03*
D17*
%TO.P,U1,29,GPIO18*%
%TO.N,/Ch.2B*%
X116980500Y-88447000D03*
%TO.P,U1,30,GPIO19*%
%TO.N,/Ch.3A*%
X116980500Y-88047000D03*
%TO.P,U1,31,GPIO20*%
%TO.N,/Ch.3B*%
X116980500Y-87647000D03*
%TO.P,U1,32,GPIO21*%
%TO.N,/SPI0_CS_SD*%
X116980500Y-87247000D03*
%TO.P,U1,33,IOVDD*%
%TO.N,+3V3*%
X116980500Y-86847000D03*
%TO.P,U1,34,GPIO22*%
%TO.N,/SW*%
X116980500Y-86447000D03*
%TO.P,U1,35,GPIO23*%
%TO.N,/DIO1*%
X116980500Y-86047000D03*
%TO.P,U1,36,GPIO24*%
%TO.N,/BUSY*%
X116980500Y-85647000D03*
%TO.P,U1,37,GPIO25*%
%TO.N,/~{RST}*%
X116980500Y-85247000D03*
%TO.P,U1,38,GPIO26_ADC0*%
%TO.N,/TXEN*%
X116980500Y-84847000D03*
%TO.P,U1,39,GPIO27_ADC1*%
%TO.N,/TIMEPULSE*%
X116980500Y-84447000D03*
%TO.P,U1,40,GPIO28_ADC2*%
%TO.N,/STEP*%
X116980500Y-84047000D03*
%TO.P,U1,41,GPIO29_ADC3*%
%TO.N,/DIR*%
X116980500Y-83647000D03*
%TO.P,U1,42,IOVDD*%
%TO.N,+3V3*%
X116980500Y-83247000D03*
D18*
%TO.P,U1,43,ADC_AVDD*%
X116143000Y-82409500D03*
%TO.P,U1,44,VREG_IN*%
X115743000Y-82409500D03*
%TO.P,U1,45,VREG_VOUT*%
%TO.N,Net-(U1-VREG_VOUT)*%
X115343000Y-82409500D03*
%TO.P,U1,46,USB_DM*%
%TO.N,Net-(U1-USB_DM)*%
X114943000Y-82409500D03*
%TO.P,U1,47,USB_DP*%
%TO.N,Net-(U1-USB_DP)*%
X114543000Y-82409500D03*
%TO.P,U1,48,USB_VDD*%
%TO.N,+3V3*%
X114143000Y-82409500D03*
%TO.P,U1,49,IOVDD*%
X113743000Y-82409500D03*
%TO.P,U1,50,DVDD*%
%TO.N,Net-(U1-VREG_VOUT)*%
X113343000Y-82409500D03*
%TO.P,U1,51,QSPI_SD3*%
%TO.N,/QSPI_SD3*%
X112943000Y-82409500D03*
%TO.P,U1,52,QSPI_SCLK*%
%TO.N,/QSPI_SCLK*%
X112543000Y-82409500D03*
%TO.P,U1,53,QSPI_SD0*%
%TO.N,/QSPI_SD0*%
X112143000Y-82409500D03*
%TO.P,U1,54,QSPI_SD2*%
%TO.N,/QSPI_SD2*%
X111743000Y-82409500D03*
%TO.P,U1,55,QSPI_SD1*%
%TO.N,/QSPI_SD1*%
X111343000Y-82409500D03*
%TO.P,U1,56,QSPI_SS*%
%TO.N,/QSPI_SS*%
X110943000Y-82409500D03*
D19*
%TO.P,U1,57,GND*%
%TO.N,GND*%
X112268000Y-84572000D03*
X112268000Y-85847000D03*
X112268000Y-87122000D03*
X113543000Y-84572000D03*
X113543000Y-85847000D03*
D20*
X113543000Y-85847000D03*
D19*
X113543000Y-87122000D03*
X114818000Y-84572000D03*
X114818000Y-85847000D03*
X114818000Y-87122000D03*
%TD*%
D22*
%TO.P,R53,1*%
%TO.N,Net-(U14-CP2)*%
X106236000Y-65405000D03*
%TO.P,R53,2*%
%TO.N,VBUS*%
X107886000Y-65405000D03*
%TD*%
D13*
%TO.P,R37,1*%
%TO.N,Net-(U5-EN{slash}UVLO)*%
X95885000Y-65391000D03*
%TO.P,R37,2*%
%TO.N,Net-(U11-VIN)*%
X95885000Y-63741000D03*
%TD*%
D23*
%TO.P,C55,1*%
%TO.N,GND*%
X107353400Y-70815200D03*
%TO.P,C55,2*%
%TO.N,Net-(U14-SS)*%
X105803400Y-70815200D03*
%TD*%
D36*
%TO.P,J1,1,Pin_1*%
%TO.N,+3V3*%
X121793000Y-118122000D03*
%TO.P,J1,2,Pin_2*%
%TO.N,/SWD*%
X120523000Y-118122000D03*
%TO.P,J1,3,Pin_3*%
%TO.N,/SWCLK*%
X119253000Y-118122000D03*
%TO.P,J1,4,Pin_4*%
%TO.N,GND*%
X117983000Y-118122000D03*
%TD*%
D32*
%TO.P,R56,1*%
%TO.N,GND*%
X136271000Y-62040000D03*
%TO.P,R56,2*%
%TO.N,Net-(U15-PR1)*%
X136271000Y-63690000D03*
%TD*%
D16*
%TO.P,C16,1*%
%TO.N,+3V3*%
X93921000Y-85593000D03*
%TO.P,C16,2*%
%TO.N,GND*%
X93921000Y-87143000D03*
%TD*%
D37*
%TO.P,J12,A1,GND*%
%TO.N,GND*%
X151568000Y-61103999D03*
%TO.P,J12,A4,VBUS*%
%TO.N,VCC*%
X150768000Y-61103999D03*
D38*
%TO.P,J12,A5,CC1*%
%TO.N,Net-(J12-CC1)*%
X149618000Y-61103999D03*
%TO.P,J12,A6,D+*%
%TO.N,Net-(D5-L1-Pad6)*%
X148618000Y-61103999D03*
%TO.P,J12,A7,D-*%
%TO.N,Net-(D5-L2-Pad4)*%
X148118000Y-61103999D03*
%TO.P,J12,A8,SBU1*%
%TO.N,unconnected-(J12-SBU1-PadA8)*%
X147118000Y-61103999D03*
D37*
%TO.P,J12,A9,VBUS*%
%TO.N,VCC*%
X145968000Y-61103999D03*
%TO.P,J12,A12,GND*%
%TO.N,GND*%
X145168000Y-61103999D03*
%TO.P,J12,B1,GND*%
X145168000Y-61103999D03*
%TO.P,J12,B4,VBUS*%
%TO.N,VCC*%
X145968000Y-61103999D03*
D38*
%TO.P,J12,B5,CC2*%
%TO.N,Net-(J12-CC2)*%
X146618000Y-61103999D03*
%TO.P,J12,B6,D+*%
%TO.N,Net-(D5-L1-Pad6)*%
X147618000Y-61103999D03*
%TO.P,J12,B7,D-*%
%TO.N,Net-(D5-L2-Pad4)*%
X149118000Y-61103999D03*
%TO.P,J12,B8,SBU2*%
%TO.N,unconnected-(J12-SBU2-PadB8)*%
X150118000Y-61103999D03*
D37*
%TO.P,J12,B9,VBUS*%
%TO.N,VCC*%
X150768000Y-61103999D03*
%TO.P,J12,B12,GND*%
%TO.N,GND*%
X151568000Y-61103999D03*
D39*
%TO.P,J12,S1,SHIELD*%
X152688000Y-60528999D03*
D40*
X152688000Y-56348999D03*
D39*
X144048000Y-60528999D03*
D40*
X144048000Y-56348999D03*
%TD*%
D41*
%TO.P,JP3,1,A*%
%TO.N,Net-(J15-Pin_1)*%
X97500000Y-110250000D03*
D42*
%TO.P,JP3,2,B*%
%TO.N,+3V3*%
X98950000Y-110250000D03*
%TD*%
D23*
%TO.P,C29,1*%
%TO.N,+3V3_R*%
X141999000Y-84201000D03*
%TO.P,C29,2*%
%TO.N,GND*%
X140449000Y-84201000D03*
%TD*%
%TO.P,C48,1*%
%TO.N,Net-(U5-SS)*%
X89167000Y-66675000D03*
%TO.P,C48,2*%
%TO.N,GND*%
X87617000Y-66675000D03*
%TD*%
D43*
%TO.P,D5,1,L1*%
%TO.N,/R_USB_D+*%
X147418000Y-69547999D03*
%TO.P,D5,2,VN*%
%TO.N,GND*%
X148368000Y-69547999D03*
%TO.P,D5,3,L2*%
%TO.N,/R_USB_D-*%
X149318000Y-69547999D03*
%TO.P,D5,4,L2*%
%TO.N,Net-(D5-L2-Pad4)*%
X149318000Y-66127999D03*
%TO.P,D5,5,VP*%
%TO.N,VCC*%
X148368000Y-66127999D03*
%TO.P,D5,6,L1*%
%TO.N,Net-(D5-L1-Pad6)*%
X147418000Y-66127999D03*
%TD*%
D32*
%TO.P,R9,1*%
%TO.N,Net-(J2-CC2)*%
X112141000Y-64326000D03*
%TO.P,R9,2*%
%TO.N,GND*%
X112141000Y-65976000D03*
%TD*%
D22*
%TO.P,R15,1*%
%TO.N,Net-(U1-GPIO4)*%
X131636000Y-80772000D03*
%TO.P,R15,2*%
%TO.N,/CROSS_PRIMTX_REDRX*%
X133286000Y-80772000D03*
%TD*%
D24*
%TO.P,C52,1*%
%TO.N,Net-(U13-SS)*%
X125730000Y-74054000D03*
%TO.P,C52,2*%
%TO.N,GND*%
X125730000Y-72504000D03*
%TD*%
D44*
%TO.P,LM1084-ADJ1,1,ADJ*%
%TO.N,Net-(J11-Pin_2)*%
X163703000Y-74422000D03*
%TO.P,LM1084-ADJ1,2,VO*%
%TO.N,Net-(LM1084-ADJ1-VO)*%
X161163000Y-74422000D03*
D45*
X163938000Y-81147000D03*
X158388000Y-81147000D03*
D46*
X161163000Y-83572000D03*
D45*
X163938000Y-85997000D03*
X158388000Y-85997000D03*
D44*
%TO.P,LM1084-ADJ1,3,VI*%
%TO.N,+BATT*%
X158623000Y-74422000D03*
%TD*%
D47*
%TO.P,Q1,1,G*%
%TO.N,/D1*%
X105532000Y-88392000D03*
%TO.P,Q1,2,S*%
%TO.N,GND*%
X103632000Y-88392000D03*
%TO.P,Q1,3,D*%
%TO.N,Net-(D1-K)*%
X104582000Y-90667000D03*
%TD*%
D29*
%TO.P,C11,1*%
%TO.N,+3V3*%
X117970000Y-79756000D03*
%TO.P,C11,2*%
%TO.N,GND*%
X119520000Y-79756000D03*
%TD*%
D21*
%TO.P,TP2,1,1*%
%TO.N,VBUS*%
X111125000Y-68453000D03*
%TD*%
D24*
%TO.P,C41,1*%
%TO.N,VCC*%
X140208000Y-58687000D03*
%TO.P,C41,2*%
%TO.N,GND*%
X140208000Y-57137000D03*
%TD*%
D22*
%TO.P,R7,1*%
%TO.N,+3V3*%
X99425000Y-92500000D03*
%TO.P,R7,2*%
%TO.N,Net-(D1-A)*%
X101075000Y-92500000D03*
%TD*%
D32*
%TO.P,R22,1*%
%TO.N,+3V3_R*%
X138212500Y-74740000D03*
%TO.P,R22,2*%
%TO.N,/R_QSPI_SS*%
X138212500Y-76390000D03*
%TD*%
D23*
%TO.P,C57,1*%
%TO.N,/V_BCKP*%
X71625000Y-107442000D03*
%TO.P,C57,2*%
%TO.N,GND*%
X70075000Y-107442000D03*
%TD*%
D48*
%TO.P,J6,1,Pin_1*%
%TO.N,/LS2*%
X61750000Y-93460000D03*
D26*
%TO.P,J6,2,Pin_2*%
%TO.N,GND*%
X61750000Y-96000000D03*
%TD*%
D21*
%TO.P,TP8,1,1*%
%TO.N,+3V3_R*%
X128905000Y-58166000D03*
%TD*%
D49*
%TO.P,U6,1,SW*%
%TO.N,/SW*%
X64312000Y-72073000D03*
D50*
%TO.P,U6,2,GND*%
%TO.N,GND*%
X64312000Y-74618000D03*
%TO.P,U6,3,TXEN*%
%TO.N,/TXEN*%
X64312000Y-77158000D03*
%TO.P,U6,4,GND*%
%TO.N,GND*%
X64312000Y-79698000D03*
%TO.P,U6,5,GND*%
X64312000Y-82238000D03*
%TO.P,U6,6,VDD*%
%TO.N,+5V*%
X64312000Y-84778000D03*
%TO.P,U6,7,VDD*%
X64312000Y-87318000D03*
%TO.P,U6,8,DIO1*%
%TO.N,/DIO1*%
X83312000Y-87318000D03*
%TO.P,U6,9,BUSY*%
%TO.N,/BUSY*%
X83312000Y-84778000D03*
%TO.P,U6,10,RST*%
%TO.N,/~{RST}*%
X83312000Y-82238000D03*
%TO.P,U6,11,MISO*%
%TO.N,/SPI0_POCI*%
X83312000Y-79698000D03*
%TO.P,U6,12,MOSI*%
%TO.N,/SPI0_PICO*%
X83312000Y-77158000D03*
%TO.P,U6,13,SCK*%
%TO.N,/SPI0_SCK*%
X83312000Y-74618000D03*
D49*
%TO.P,U6,14,NSS*%
%TO.N,/SPI0_CS_RAD*%
X83312000Y-72073000D03*
D51*
%TO.P,U6,15,GND*%
%TO.N,GND*%
X82482000Y-61468000D03*
%TO.P,U6,16,ANT*%
%TO.N,Net-(J8-In)*%
X79942000Y-61468000D03*
%TO.P,U6,17,GND*%
%TO.N,GND*%
X77402000Y-61468000D03*
%TD*%
D13*
%TO.P,R40,1*%
%TO.N,GND*%
X131445000Y-67084999D03*
%TO.P,R40,2*%
%TO.N,Net-(U12-EN{slash}UVLO)*%
X131445000Y-65434999D03*
%TD*%
D52*
%TO.P,D1,1,K*%
%TO.N,Net-(D1-K)*%
X104580000Y-92500000D03*
%TO.P,D1,2,A*%
%TO.N,Net-(D1-A)*%
X102830000Y-92500000D03*
%TD*%
D32*
%TO.P,R54,1*%
%TO.N,GND*%
X138303000Y-62294000D03*
%TO.P,R54,2*%
%TO.N,Net-(U15-OV1)*%
X138303000Y-63944000D03*
%TD*%
D29*
%TO.P,C3,1*%
%TO.N,Net-(U1-VREG_VOUT)*%
X111353000Y-71628000D03*
%TO.P,C3,2*%
%TO.N,GND*%
X112903000Y-71628000D03*
%TD*%
D33*
%TO.P,R6,1*%
%TO.N,+3V3*%
X107417000Y-72322000D03*
%TO.P,R6,2*%
%TO.N,/QSPI_SS*%
X105767000Y-72322000D03*
%TD*%
D22*
%TO.P,R33,1*%
%TO.N,+5V*%
X91358000Y-68630000D03*
%TO.P,R33,2*%
%TO.N,Net-(U11-PG)*%
X93008000Y-68630000D03*
%TD*%
D24*
%TO.P,C13,1*%
%TO.N,+3V3*%
X108966000Y-72263000D03*
%TO.P,C13,2*%
%TO.N,GND*%
X108966000Y-70713000D03*
%TD*%
%TO.P,C22,1*%
%TO.N,GND*%
X142875000Y-102261000D03*
%TO.P,C22,2*%
%TO.N,Net-(U7-XIN)*%
X142875000Y-100711000D03*
%TD*%
D53*
%TO.P,MOSFET2,1,G*%
%TO.N,Net-(JP2-B)*%
X170954000Y-65278000D03*
D54*
%TO.P,MOSFET2,2,D*%
%TO.N,Net-(J11-Pin_1)*%
X171709000Y-60653000D03*
X174759000Y-60653000D03*
D55*
X173234000Y-58978000D03*
D54*
X171709000Y-57303000D03*
X174759000Y-57303000D03*
D53*
%TO.P,MOSFET2,3,S*%
%TO.N,GND*%
X175514000Y-65278000D03*
%TD*%
D33*
%TO.P,R49,1*%
%TO.N,Net-(U14-ILM)*%
X104330000Y-70866000D03*
%TO.P,R49,2*%
%TO.N,GND*%
X102680000Y-70866000D03*
%TD*%
D24*
%TO.P,C9,1*%
%TO.N,+3V3*%
X124587000Y-82804000D03*
%TO.P,C9,2*%
%TO.N,GND*%
X124587000Y-81254000D03*
%TD*%
D13*
%TO.P,R1,1*%
%TO.N,Net-(C2-Pad2)*%
X114427000Y-101917000D03*
%TO.P,R1,2*%
%TO.N,Net-(U1-XOUT)*%
X114427000Y-100267000D03*
%TD*%
D21*
%TO.P,TP7,1,1*%
%TO.N,+5V_R*%
X121285000Y-71120000D03*
%TD*%
D32*
%TO.P,R60,1*%
%TO.N,GND*%
X140335000Y-60643000D03*
%TO.P,R60,2*%
%TO.N,Net-(U15-OV2)*%
X140335000Y-62293000D03*
%TD*%
D29*
%TO.P,C32,1*%
%TO.N,+3V3_R*%
X151257000Y-82804000D03*
%TO.P,C32,2*%
%TO.N,GND*%
X152807000Y-82804000D03*
%TD*%
D56*
%TO.P,B3,1,1*%
%TO.N,GND*%
X151422000Y-99423000D03*
X151422000Y-103523000D03*
%TO.P,B3,2,2*%
%TO.N,Net-(U7-RUN)*%
X149822000Y-99423000D03*
X149822000Y-103523000D03*
%TD*%
D16*
%TO.P,C45,1*%
%TO.N,Net-(U11-VIN)*%
X97409000Y-63819000D03*
%TO.P,C45,2*%
%TO.N,GND*%
X97409000Y-65369000D03*
%TD*%
%TO.P,C30,1*%
%TO.N,+3V3_R*%
X148209000Y-96253000D03*
%TO.P,C30,2*%
%TO.N,GND*%
X148209000Y-97803000D03*
%TD*%
D22*
%TO.P,R38,1*%
%TO.N,+3V3_R*%
X125095000Y-61214000D03*
%TO.P,R38,2*%
%TO.N,Net-(U12-PG)*%
X126745000Y-61214000D03*
%TD*%
D33*
%TO.P,R57,1*%
%TO.N,Net-(U15-ILM)*%
X138747000Y-70374999D03*
%TO.P,R57,2*%
%TO.N,GND*%
X137097000Y-70374999D03*
%TD*%
D21*
%TO.P,TP1,1,1*%
%TO.N,GND*%
X120650000Y-64516000D03*
%TD*%
D13*
%TO.P,R3,1*%
%TO.N,Net-(U1-USB_DP)*%
X114046000Y-78930000D03*
%TO.P,R3,2*%
%TO.N,/USB_D+*%
X114046000Y-77280000D03*
%TD*%
D21*
%TO.P,TP6,1,1*%
%TO.N,+5V*%
X59035500Y-68107500D03*
%TD*%
D34*
%TO.P,J14,1,Pin_1*%
%TO.N,Net-(J14-Pin_1)*%
X101473000Y-58547000D03*
D26*
%TO.P,J14,2,Pin_2*%
%TO.N,GND*%
X98933000Y-58547000D03*
%TD*%
D57*
%TO.P,J8,1,In*%
%TO.N,Net-(J8-In)*%
X79883000Y-55908500D03*
%TO.P,J8,2,Ext*%
%TO.N,GND*%
X75633000Y-55908500D03*
X84133000Y-55908500D03*
%TD*%
D21*
%TO.P,TP4,1,1*%
%TO.N,VCC*%
X144399000Y-70485000D03*
%TD*%
D29*
%TO.P,C43,1*%
%TO.N,+BATT*%
X140195000Y-53848000D03*
%TO.P,C43,2*%
%TO.N,GND*%
X141745000Y-53848000D03*
%TD*%
D23*
%TO.P,C14,1*%
%TO.N,+3V3*%
X108344000Y-81153000D03*
%TO.P,C14,2*%
%TO.N,GND*%
X106794000Y-81153000D03*
%TD*%
D29*
%TO.P,C40,1*%
%TO.N,Net-(J14-Pin_1)*%
X105651000Y-55372000D03*
%TO.P,C40,2*%
%TO.N,GND*%
X107201000Y-55372000D03*
%TD*%
D23*
%TO.P,C54,1*%
%TO.N,Net-(U12-VIN)*%
X131077000Y-68707000D03*
%TO.P,C54,2*%
%TO.N,GND*%
X129527000Y-68707000D03*
%TD*%
D32*
%TO.P,R44,1*%
%TO.N,+3V3*%
X65687000Y-100621000D03*
%TO.P,R44,2*%
%TO.N,/LS1*%
X65687000Y-102271000D03*
%TD*%
D36*
%TO.P,J9,1,Pin_1*%
%TO.N,+3V3_R*%
X173939200Y-118211600D03*
%TO.P,J9,2,Pin_2*%
%TO.N,/SWD_R*%
X172669200Y-118211600D03*
%TO.P,J9,3,Pin_3*%
%TO.N,/SWCLK_R*%
X171399200Y-118211600D03*
%TO.P,J9,4,Pin_4*%
%TO.N,GND*%
X170129200Y-118211600D03*
%TD*%
D24*
%TO.P,C21,1*%
%TO.N,+5V*%
X59568500Y-83338500D03*
%TO.P,C21,2*%
%TO.N,GND*%
X59568500Y-81788500D03*
%TD*%
D32*
%TO.P,R31,1*%
%TO.N,Net-(J12-CC2)*%
X145828000Y-64220999D03*
%TO.P,R31,2*%
%TO.N,GND*%
X145828000Y-65870999D03*
%TD*%
%TO.P,R63,1*%
%TO.N,+3V3*%
X65560000Y-92002000D03*
%TO.P,R63,2*%
%TO.N,/LS2*%
X65560000Y-93652000D03*
%TD*%
D33*
%TO.P,R58,1*%
%TO.N,Net-(U15-OV1)*%
X139001000Y-65421999D03*
%TO.P,R58,2*%
%TO.N,+BATT*%
X137351000Y-65421999D03*
%TD*%
D58*
%TO.P,J19,1,DAT2*%
%TO.N,unconnected-(J19-DAT2-Pad1)*%
X94250000Y-105450000D03*
%TO.P,J19,2,DAT3/CD*%
%TO.N,/SPI0_CS_SD*%
X94250000Y-104350000D03*
%TO.P,J19,3,CMD*%
%TO.N,/SPI0_PICO*%
X94250000Y-103250000D03*
%TO.P,J19,4,VDD*%
%TO.N,+3V3*%
X94250000Y-102150000D03*
%TO.P,J19,5,CLK*%
%TO.N,/SPI0_SCK*%
X94250000Y-101050000D03*
%TO.P,J19,6,VSS*%
%TO.N,GND*%
X94250000Y-99950000D03*
%TO.P,J19,7,DAT0*%
%TO.N,/SPI0_POCI*%
X94250000Y-98850000D03*
%TO.P,J19,8,DAT1*%
%TO.N,unconnected-(J19-DAT1-Pad8)*%
X94250000Y-97750000D03*
D59*
%TO.P,J19,9,SHIELD*%
%TO.N,GND*%
X92250000Y-98350000D03*
X92250000Y-104850000D03*
D60*
X105800000Y-97550000D03*
X105800000Y-104900000D03*
%TD*%
D61*
%TO.P,JP2,1,A*%
%TO.N,/CUT*%
X170942000Y-68976000D03*
%TO.P,JP2,2,B*%
%TO.N,Net-(JP2-B)*%
X170942000Y-67676000D03*
%TD*%
D21*
%TO.P,TP9,1,1*%
%TO.N,/SDA*%
X100330000Y-87082000D03*
%TD*%
D37*
%TO.P,J2,A1,GND*%
%TO.N,GND*%
X117881000Y-61211000D03*
%TO.P,J2,A4,VBUS*%
%TO.N,VBUS*%
X117081000Y-61211000D03*
D38*
%TO.P,J2,A5,CC1*%
%TO.N,Net-(J2-CC1)*%
X115931000Y-61211000D03*
%TO.P,J2,A6,D+*%
%TO.N,/D+*%
X114931000Y-61211000D03*
%TO.P,J2,A7,D-*%
%TO.N,/D-*%
X114431000Y-61211000D03*
%TO.P,J2,A8,SBU1*%
%TO.N,unconnected-(J2-SBU1-PadA8)*%
X113431000Y-61211000D03*
D37*
%TO.P,J2,A9,VBUS*%
%TO.N,VBUS*%
X112281000Y-61211000D03*
%TO.P,J2,A12,GND*%
%TO.N,GND*%
X111481000Y-61211000D03*
%TO.P,J2,B1,GND*%
X111481000Y-61211000D03*
%TO.P,J2,B4,VBUS*%
%TO.N,VBUS*%
X112281000Y-61211000D03*
D38*
%TO.P,J2,B5,CC2*%
%TO.N,Net-(J2-CC2)*%
X112931000Y-61211000D03*
%TO.P,J2,B6,D+*%
%TO.N,/D+*%
X113931000Y-61211000D03*
%TO.P,J2,B7,D-*%
%TO.N,/D-*%
X115431000Y-61211000D03*
%TO.P,J2,B8,SBU2*%
%TO.N,unconnected-(J2-SBU2-PadB8)*%
X116431000Y-61211000D03*
D37*
%TO.P,J2,B9,VBUS*%
%TO.N,VBUS*%
X117081000Y-61211000D03*
%TO.P,J2,B12,GND*%
%TO.N,GND*%
X117881000Y-61211000D03*
D39*
%TO.P,J2,S1,SHIELD*%
X119001000Y-60636000D03*
D40*
X119001000Y-56456000D03*
D39*
X110361000Y-60636000D03*
D40*
X110361000Y-56456000D03*
%TD*%
D32*
%TO.P,R47,1*%
%TO.N,GND*%
X104775000Y-62675000D03*
%TO.P,R47,2*%
%TO.N,Net-(U14-OV1)*%
X104775000Y-64325000D03*
%TD*%
D24*
%TO.P,C10,1*%
%TO.N,+3V3*%
X118491000Y-82805000D03*
%TO.P,C10,2*%
%TO.N,GND*%
X118491000Y-81255000D03*
%TD*%
D62*
%TO.P,U8,1,~{CS}*%
%TO.N,/R_QSPI_SS*%
X138052500Y-77916500D03*
%TO.P,U8,2,DO(IO1)*%
%TO.N,/R_QSPI_SD1*%
X138052500Y-79186500D03*
%TO.P,U8,3,IO2*%
%TO.N,/R_QSPI_SD2*%
X138052500Y-80456500D03*
%TO.P,U8,4,GND*%
%TO.N,GND*%
X138052500Y-81726500D03*
%TO.P,U8,5,DI(IO0)*%
%TO.N,/R_QSPI_SD0*%
X143452500Y-81726500D03*
%TO.P,U8,6,CLK*%
%TO.N,/R_QSPI_SCLK*%
X143452500Y-80456500D03*
%TO.P,U8,7,IO3*%
%TO.N,/R_QSPI_SD3*%
X143452500Y-79186500D03*
%TO.P,U8,8,VCC*%
%TO.N,+3V3_R*%
X143452500Y-77916500D03*
D63*
%TO.P,U8,9,EP*%
%TO.N,GND*%
X140752500Y-79821500D03*
%TD*%
D32*
%TO.P,R50,1*%
%TO.N,GND*%
X106299000Y-60707000D03*
%TO.P,R50,2*%
%TO.N,Net-(U14-OV2)*%
X106299000Y-62357000D03*
%TD*%
D29*
%TO.P,C17,1*%
%TO.N,GND*%
X94983000Y-79629000D03*
%TO.P,C17,2*%
%TO.N,+3V3*%
X96533000Y-79629000D03*
%TD*%
D23*
%TO.P,C58,1*%
%TO.N,+3V3*%
X82800000Y-103500000D03*
%TO.P,C58,2*%
%TO.N,GND*%
X81250000Y-103500000D03*
%TD*%
D13*
%TO.P,R43,1*%
%TO.N,Net-(U12-EN{slash}UVLO)*%
X131445000Y-64071000D03*
%TO.P,R43,2*%
%TO.N,Net-(U12-VIN)*%
X131445000Y-62421000D03*
%TD*%
D29*
%TO.P,C35,1*%
%TO.N,+3V3_R*%
X151993000Y-87503000D03*
%TO.P,C35,2*%
%TO.N,GND*%
X153543000Y-87503000D03*
%TD*%
D56*
%TO.P,B2,1,1*%
%TO.N,GND*%
X87630000Y-78776000D03*
X87630000Y-74676000D03*
%TO.P,B2,2,2*%
%TO.N,Net-(B2-Pad2)*%
X89230000Y-78776000D03*
X89230000Y-74676000D03*
%TD*%
D24*
%TO.P,C38,1*%
%TO.N,VBUS*%
X108174000Y-58674000D03*
%TO.P,C38,2*%
%TO.N,GND*%
X108174000Y-57124000D03*
%TD*%
D64*
%TO.P,Y1,1,1*%
%TO.N,Net-(C23-Pad2)*%
X145796000Y-97152000D03*
%TO.P,Y1,2,2*%
%TO.N,GND*%
X144046000Y-97152000D03*
%TO.P,Y1,3,3*%
%TO.N,Net-(U7-XIN)*%
X144046000Y-98552000D03*
%TO.P,Y1,4,4*%
%TO.N,GND*%
X145796000Y-98552000D03*
%TD*%
D13*
%TO.P,R19,1*%
%TO.N,Net-(U7-USB_DP)*%
X147574000Y-81211500D03*
%TO.P,R19,2*%
%TO.N,/R_USB_D+*%
X147574000Y-79561500D03*
%TD*%
D29*
%TO.P,C36,1*%
%TO.N,+3V3_R*%
X151993000Y-89027000D03*
%TO.P,C36,2*%
%TO.N,GND*%
X153543000Y-89027000D03*
%TD*%
D65*
%TO.P,U14,1,OUT*%
%TO.N,Net-(U11-VIN)*%
X105577000Y-68707000D03*
%TO.P,U14,2,IN2*%
%TO.N,VBUS*%
X105577000Y-68007001D03*
D66*
%TO.P,U14,3,CP2*%
%TO.N,Net-(U14-CP2)*%
X105652001Y-67232002D03*
%TO.P,U14,4,OV2*%
%TO.N,Net-(U14-OV2)*%
X105152000Y-67232002D03*
%TO.P,U14,5,OV1*%
%TO.N,Net-(U14-OV1)*%
X104652000Y-67232002D03*
%TO.P,U14,6,PR1*%
%TO.N,Net-(U14-PR1)*%
X104151999Y-67232002D03*
D65*
%TO.P,U14,7,IN1*%
%TO.N,Net-(J14-Pin_1)*%
X104227000Y-68007001D03*
%TO.P,U14,8,OUT*%
%TO.N,Net-(U11-VIN)*%
X104227000Y-68707000D03*
D66*
%TO.P,U14,9,ST*%
%TO.N,GND*%
X104151999Y-69532000D03*
%TO.P,U14,10,ILM*%
%TO.N,Net-(U14-ILM)*%
X104652000Y-69532000D03*
%TO.P,U14,11,SS*%
%TO.N,Net-(U14-SS)*%
X105152000Y-69532000D03*
%TO.P,U14,12,GND*%
%TO.N,GND*%
X105652001Y-69532000D03*
%TD*%
D33*
%TO.P,R36,1*%
%TO.N,GND*%
X96329000Y-67056000D03*
%TO.P,R36,2*%
%TO.N,Net-(U5-EN{slash}UVLO)*%
X94679000Y-67056000D03*
%TD*%
D67*
%TO.P,J10,1,Pin_1*%
%TO.N,+5V_R*%
X173228000Y-108712000D03*
D26*
%TO.P,J10,2,Pin_2*%
%TO.N,/PWM_EMRG_REL*%
X173228000Y-106172000D03*
%TO.P,J10,3,Pin_3*%
%TO.N,GND*%
X173228000Y-103632000D03*
%TD*%
D33*
%TO.P,R2,1*%
%TO.N,+3V3*%
X117395000Y-93510000D03*
%TO.P,R2,2*%
%TO.N,Net-(U1-RUN)*%
X115745000Y-93510000D03*
%TD*%
D48*
%TO.P,J11,1,Pin_1*%
%TO.N,Net-(J11-Pin_1)*%
X174740000Y-74422000D03*
D26*
%TO.P,J11,2,Pin_2*%
%TO.N,Net-(J11-Pin_2)*%
X174740000Y-76962000D03*
%TD*%
D68*
%TO.P,0.3_Ohm_Resistor1,1*%
%TO.N,Net-(J11-Pin_2)*%
X159004000Y-67939000D03*
%TO.P,0.3_Ohm_Resistor1,2*%
%TO.N,Net-(LM1084-ADJ1-VO)*%
X164084000Y-67939000D03*
D69*
%TO.P,0.3_Ohm_Resistor1,3,Gnd*%
%TO.N,GND*%
X158769000Y-61214000D03*
X164319000Y-61214000D03*
D70*
X161544000Y-58789000D03*
D69*
X158769000Y-56364000D03*
X164319000Y-56364000D03*
%TD*%
D21*
%TO.P,TP10,1,1*%
%TO.N,/SCL*%
X101092000Y-83653000D03*
%TD*%
D13*
%TO.P,R46,1*%
%TO.N,Net-(U14-PR1)*%
X101346000Y-67183000D03*
%TO.P,R46,2*%
%TO.N,Net-(J14-Pin_1)*%
X101346000Y-65533000D03*
%TD*%
D32*
%TO.P,R48,1*%
%TO.N,GND*%
X101473000Y-62357000D03*
%TO.P,R48,2*%
%TO.N,Net-(U14-PR1)*%
X101473000Y-64007000D03*
%TD*%
D24*
%TO.P,C37,1*%
%TO.N,VBUS*%
X106426000Y-58661000D03*
%TO.P,C37,2*%
%TO.N,GND*%
X106426000Y-57111000D03*
%TD*%
D22*
%TO.P,R51,1*%
%TO.N,Net-(U14-OV2)*%
X106236000Y-63881000D03*
%TO.P,R51,2*%
%TO.N,VBUS*%
X107886000Y-63881000D03*
%TD*%
D13*
%TO.P,R42,1*%
%TO.N,Net-(U13-EN{slash}UVLO)*%
X133223000Y-71945000D03*
%TO.P,R42,2*%
%TO.N,Net-(U12-VIN)*%
X133223000Y-70295000D03*
%TD*%
D24*
%TO.P,C23,1*%
%TO.N,GND*%
X146558000Y-102261000D03*
%TO.P,C23,2*%
%TO.N,Net-(C23-Pad2)*%
X146558000Y-100711000D03*
%TD*%
D11*
%TO.P,U11,1,VOUT*%
%TO.N,+5V*%
X90745500Y-70674000D03*
%TO.P,U11,2,SENSE*%
X90745500Y-71174000D03*
%TO.P,U11,3,GND*%
%TO.N,GND*%
X90745500Y-71674000D03*
%TO.P,U11,4,SS*%
%TO.N,Net-(U11-SS)*%
X90745500Y-72174000D03*
%TO.P,U11,5,EN/UVLO*%
%TO.N,Net-(U11-EN{slash}UVLO)*%
X93620500Y-72174000D03*
%TO.P,U11,6,GND*%
%TO.N,GND*%
X93620500Y-71674000D03*
%TO.P,U11,7,PG*%
%TO.N,Net-(U11-PG)*%
X93620500Y-71174000D03*
%TO.P,U11,8,VIN*%
%TO.N,Net-(U11-VIN)*%
X93620500Y-70674000D03*
D12*
%TO.P,U11,9,GND*%
%TO.N,GND*%
X92183000Y-71424000D03*
%TD*%
D25*
%TO.P,J15,1,Pin_1*%
%TO.N,Net-(J15-Pin_1)*%
X96420000Y-114750000D03*
D26*
%TO.P,J15,2,Pin_2*%
%TO.N,GND*%
X98960000Y-114750000D03*
%TO.P,J15,3,Pin_3*%
%TO.N,/STEP*%
X101500000Y-114750000D03*
%TO.P,J15,4,Pin_4*%
%TO.N,/DIR*%
X104040000Y-114750000D03*
%TD*%
D48*
%TO.P,J7,1,Pin_1*%
%TO.N,/LS1*%
X61750000Y-102210000D03*
D26*
%TO.P,J7,2,Pin_2*%
%TO.N,GND*%
X61750000Y-104750000D03*
%TD*%
D71*
%TO.P,B4,1,1*%
%TO.N,GND*%
X129501500Y-76121500D03*
X133601500Y-76121500D03*
%TO.P,B4,2,2*%
%TO.N,Net-(B4-Pad2)*%
X129501500Y-77721500D03*
X133601500Y-77721500D03*
%TD*%
D72*
%TO.P,D3,1,K*%
%TO.N,Net-(D3-K)*%
X79252000Y-106592462D03*
%TO.P,D3,2,A*%
%TO.N,+3V3*%
X81752000Y-106592462D03*
%TD*%
D62*
%TO.P,U2,1,~{CS}*%
%TO.N,/QSPI_SS*%
X103980000Y-73914000D03*
%TO.P,U2,2,DO(IO1)*%
%TO.N,/QSPI_SD1*%
X103980000Y-75184000D03*
%TO.P,U2,3,IO2*%
%TO.N,/QSPI_SD2*%
X103980000Y-76454000D03*
%TO.P,U2,4,GND*%
%TO.N,GND*%
X103980000Y-77724000D03*
%TO.P,U2,5,DI(IO0)*%
%TO.N,/QSPI_SD0*%
X109380000Y-77724000D03*
%TO.P,U2,6,CLK*%
%TO.N,/QSPI_SCLK*%
X109380000Y-76454000D03*
%TO.P,U2,7,IO3*%
%TO.N,/QSPI_SD3*%
X109380000Y-75184000D03*
%TO.P,U2,8,VCC*%
%TO.N,+3V3*%
X109380000Y-73914000D03*
D63*
%TO.P,U2,9,EP*%
%TO.N,GND*%
X106680000Y-75819000D03*
%TD*%
D22*
%TO.P,R21,1*%
%TO.N,Net-(B4-Pad2)*%
X135060500Y-77848500D03*
%TO.P,R21,2*%
%TO.N,/R_QSPI_SS*%
X136710500Y-77848500D03*
%TD*%
%TO.P,R5,1*%
%TO.N,Net-(B2-Pad2)*%
X99442000Y-75329000D03*
%TO.P,R5,2*%
%TO.N,/QSPI_SS*%
X101092000Y-75329000D03*
%TD*%
D43*
%TO.P,D2,1,L1*%
%TO.N,/USB_D+*%
X113731000Y-69596000D03*
%TO.P,D2,2,VN*%
%TO.N,GND*%
X114681000Y-69596000D03*
%TO.P,D2,3,L2*%
%TO.N,/USB_D-*%
X115631000Y-69596000D03*
%TO.P,D2,4,L2*%
%TO.N,/D-*%
X115631000Y-66176000D03*
%TO.P,D2,5,VP*%
%TO.N,VBUS*%
X114681000Y-66176000D03*
%TO.P,D2,6,L1*%
%TO.N,/D+*%
X113731000Y-66176000D03*
%TD*%
D24*
%TO.P,C12,1*%
%TO.N,+3V3*%
X126111000Y-82804000D03*
%TO.P,C12,2*%
%TO.N,GND*%
X126111000Y-81254000D03*
%TD*%
D22*
%TO.P,R16,1*%
%TO.N,Net-(U1-GPIO5)*%
X131636000Y-82423000D03*
%TO.P,R16,2*%
%TO.N,/CROSS_PRIMRX_REDTX*%
X133286000Y-82423000D03*
%TD*%
D29*
%TO.P,C4,1*%
%TO.N,Net-(U1-VREG_VOUT)*%
X111353000Y-73152000D03*
%TO.P,C4,2*%
%TO.N,GND*%
X112903000Y-73152000D03*
%TD*%
%TO.P,C44,1*%
%TO.N,+BATT*%
X140182000Y-55499000D03*
%TO.P,C44,2*%
%TO.N,GND*%
X141732000Y-55499000D03*
%TD*%
D73*
%TO.P,J20,1,DAT2*%
%TO.N,unconnected-(J20-DAT2-Pad1)*%
X157900000Y-97250000D03*
%TO.P,J20,2,DAT3/CD*%
%TO.N,/SPI0_CS_SD_R*%
X159000000Y-97250000D03*
%TO.P,J20,3,CMD*%
%TO.N,/SPI0_PICO_R*%
X160100000Y-97250000D03*
%TO.P,J20,4,VDD*%
%TO.N,+3V3_R*%
X161200000Y-97250000D03*
%TO.P,J20,5,CLK*%
%TO.N,/SPI0_SCK_R*%
X162300000Y-97250000D03*
%TO.P,J20,6,VSS*%
%TO.N,GND*%
X163400000Y-97250000D03*
%TO.P,J20,7,DAT0*%
%TO.N,/SPI0_POCI_R*%
X164500000Y-97250000D03*
%TO.P,J20,8,DAT1*%
%TO.N,unconnected-(J20-DAT1-Pad8)*%
X165600000Y-97250000D03*
D74*
%TO.P,J20,9,SHIELD*%
%TO.N,GND*%
X165000000Y-95250000D03*
X158500000Y-95250000D03*
D75*
X165800000Y-108800000D03*
X158450000Y-108800000D03*
%TD*%
D25*
%TO.P,J13,1,Pin_1*%
%TO.N,Net-(J13-Pin_1)*%
X110710000Y-114750000D03*
D26*
%TO.P,J13,2,Pin_2*%
%TO.N,Net-(J13-Pin_2)*%
X113250000Y-114750000D03*
%TD*%
D52*
%TO.P,D4,1,K*%
%TO.N,Net-(D4-K)*%
X138375000Y-93750000D03*
%TO.P,D4,2,A*%
%TO.N,Net-(D4-A)*%
X136625000Y-93750000D03*
%TD*%
D24*
%TO.P,C42,1*%
%TO.N,VCC*%
X141732000Y-58687000D03*
%TO.P,C42,2*%
%TO.N,GND*%
X141732000Y-57137000D03*
%TD*%
D22*
%TO.P,R11,1*%
%TO.N,+3V3*%
X96527000Y-89896000D03*
%TO.P,R11,2*%
%TO.N,/SDA*%
X98177000Y-89896000D03*
%TD*%
D47*
%TO.P,Q2,1,G*%
%TO.N,/D1_R*%
X139377500Y-89524500D03*
%TO.P,Q2,2,S*%
%TO.N,GND*%
X137477500Y-89524500D03*
%TO.P,Q2,3,D*%
%TO.N,Net-(D4-K)*%
X138427500Y-91799500D03*
%TD*%
D29*
%TO.P,C39,1*%
%TO.N,Net-(J14-Pin_1)*%
X105651000Y-53848000D03*
%TO.P,C39,2*%
%TO.N,GND*%
X107201000Y-53848000D03*
%TD*%
D76*
%TO.P,BT1,1,+*%
%TO.N,/V_BCKP*%
X74152000Y-105590000D03*
D77*
%TO.P,BT1,2,-*%
%TO.N,GND*%
X70202000Y-104140000D03*
%TD*%
D23*
%TO.P,C59,1*%
%TO.N,+3V3*%
X82800000Y-100990000D03*
%TO.P,C59,2*%
%TO.N,GND*%
X81250000Y-100990000D03*
%TD*%
D25*
%TO.P,J4,1,Pin_1*%
%TO.N,+3V3*%
X142748000Y-114185000D03*
D26*
%TO.P,J4,2,Pin_2*%
%TO.N,GND*%
X145288000Y-114185000D03*
%TO.P,J4,3,Pin_3*%
%TO.N,/Ch.2A*%
X147828000Y-114185000D03*
%TO.P,J4,4,Pin_4*%
%TO.N,/Ch.2B*%
X150368000Y-114185000D03*
%TD*%
D22*
%TO.P,R32,1*%
%TO.N,+3V3*%
X90994000Y-62026000D03*
%TO.P,R32,2*%
%TO.N,Net-(U5-PG)*%
X92644000Y-62026000D03*
%TD*%
D32*
%TO.P,R41,1*%
%TO.N,GND*%
X131699000Y-71946000D03*
%TO.P,R41,2*%
%TO.N,Net-(U13-EN{slash}UVLO)*%
X131699000Y-73596000D03*
%TD*%
D33*
%TO.P,R18,1*%
%TO.N,+3V3_R*%
X151447000Y-97790000D03*
%TO.P,R18,2*%
%TO.N,Net-(U7-RUN)*%
X149797000Y-97790000D03*
%TD*%
D24*
%TO.P,C2,1*%
%TO.N,GND*%
X114681000Y-109119000D03*
%TO.P,C2,2*%
%TO.N,Net-(C2-Pad2)*%
X114681000Y-107569000D03*
%TD*%
%TO.P,C8,1*%
%TO.N,+3V3*%
X123063000Y-82804000D03*
%TO.P,C8,2*%
%TO.N,GND*%
X123063000Y-81254000D03*
%TD*%
D29*
%TO.P,C25,1*%
%TO.N,Net-(U7-VREG_VOUT)*%
X150863000Y-81153000D03*
%TO.P,C25,2*%
%TO.N,GND*%
X152413000Y-81153000D03*
%TD*%
D64*
%TO.P,Y2,1,1*%
%TO.N,Net-(C2-Pad2)*%
X114554000Y-104010000D03*
%TO.P,Y2,2,2*%
%TO.N,GND*%
X112804000Y-104010000D03*
%TO.P,Y2,3,3*%
%TO.N,Net-(U1-XIN)*%
X112804000Y-105410000D03*
%TO.P,Y2,4,4*%
%TO.N,GND*%
X114554000Y-105410000D03*
%TD*%
D22*
%TO.P,R61,1*%
%TO.N,Net-(U15-CP2)*%
X140589000Y-65405000D03*
%TO.P,R61,2*%
%TO.N,VCC*%
X142239000Y-65405000D03*
%TD*%
D67*
%TO.P,J17,1,Pin_1*%
%TO.N,GND*%
X173380400Y-97180400D03*
D26*
%TO.P,J17,2,Pin_2*%
%TO.N,/CUT*%
X173380400Y-94640400D03*
%TO.P,J17,3,Pin_3*%
%TO.N,+3V3_R*%
X173380400Y-92100400D03*
%TO.P,J17,4,Pin_4*%
%TO.N,+5V_R*%
X173380400Y-89560400D03*
%TD*%
D65*
%TO.P,U15,1,OUT*%
%TO.N,Net-(U12-VIN)*%
X140125000Y-68215999D03*
%TO.P,U15,2,IN2*%
%TO.N,VCC*%
X140125000Y-67516000D03*
D66*
%TO.P,U15,3,CP2*%
%TO.N,Net-(U15-CP2)*%
X140200001Y-66741001D03*
%TO.P,U15,4,OV2*%
%TO.N,Net-(U15-OV2)*%
X139700000Y-66741001D03*
%TO.P,U15,5,OV1*%
%TO.N,Net-(U15-OV1)*%
X139200000Y-66741001D03*
%TO.P,U15,6,PR1*%
%TO.N,Net-(U15-PR1)*%
X138699999Y-66741001D03*
D65*
%TO.P,U15,7,IN1*%
%TO.N,+BATT*%
X138775000Y-67516000D03*
%TO.P,U15,8,OUT*%
%TO.N,Net-(U12-VIN)*%
X138775000Y-68215999D03*
D66*
%TO.P,U15,9,ST*%
%TO.N,GND*%
X138699999Y-69040999D03*
%TO.P,U15,10,ILM*%
%TO.N,Net-(U15-ILM)*%
X139200000Y-69040999D03*
%TO.P,U15,11,SS*%
%TO.N,Net-(U15-SS)*%
X139700000Y-69040999D03*
%TO.P,U15,12,GND*%
%TO.N,GND*%
X140200001Y-69040999D03*
%TD*%
D32*
%TO.P,R14,1*%
%TO.N,/GPS_RX*%
X107823000Y-95568000D03*
%TO.P,R14,2*%
%TO.N,Net-(J13-Pin_1)*%
X107823000Y-97218000D03*
%TD*%
D23*
%TO.P,C34,1*%
%TO.N,+3V3_R*%
X142642500Y-76200000D03*
%TO.P,C34,2*%
%TO.N,GND*%
X141092500Y-76200000D03*
%TD*%
D24*
%TO.P,C28,1*%
%TO.N,+3V3_R*%
X145669000Y-80658000D03*
%TO.P,C28,2*%
%TO.N,GND*%
X145669000Y-79108000D03*
%TD*%
D33*
%TO.P,R45,1*%
%TO.N,Net-(U14-OV1)*%
X104647000Y-65842002D03*
%TO.P,R45,2*%
%TO.N,Net-(J14-Pin_1)*%
X102997000Y-65842002D03*
%TD*%
D78*
%TO.P,AE1,1,A*%
%TO.N,Net-(AE1-A)*%
X59250000Y-111037299D03*
%TO.P,AE1,2*%
%TO.N,N/C*%
X59250000Y-117962701D03*
%TD*%
D16*
%TO.P,C15,1*%
%TO.N,+3V3*%
X113538000Y-94729000D03*
%TO.P,C15,2*%
%TO.N,GND*%
X113538000Y-96279000D03*
%TD*%
D22*
%TO.P,R39,1*%
%TO.N,+5V_R*%
X126429000Y-67310000D03*
%TO.P,R39,2*%
%TO.N,Net-(U13-PG)*%
X128079000Y-67310000D03*
%TD*%
D71*
%TO.P,B1,1,1*%
%TO.N,GND*%
X120287000Y-96939000D03*
X116187000Y-96939000D03*
%TO.P,B1,2,2*%
%TO.N,Net-(U1-RUN)*%
X120287000Y-95339000D03*
X116187000Y-95339000D03*
%TD*%
D29*
%TO.P,C18,1*%
%TO.N,+3V3*%
X91935000Y-79629000D03*
%TO.P,C18,2*%
%TO.N,GND*%
X93485000Y-79629000D03*
%TD*%
D25*
%TO.P,J3,1,Pin_1*%
%TO.N,+3V3*%
X128651000Y-114173000D03*
D26*
%TO.P,J3,2,Pin_2*%
%TO.N,GND*%
X131191000Y-114173000D03*
%TO.P,J3,3,Pin_3*%
%TO.N,/Ch.1A*%
X133731000Y-114173000D03*
%TO.P,J3,4,Pin_4*%
%TO.N,/Ch.1B*%
X136271000Y-114173000D03*
%TD*%
D24*
%TO.P,C1,1*%
%TO.N,GND*%
X111252000Y-109119000D03*
%TO.P,C1,2*%
%TO.N,Net-(U1-XIN)*%
X111252000Y-107569000D03*
%TD*%
%TO.P,C6,1*%
%TO.N,+3V3*%
X120015000Y-82791000D03*
%TO.P,C6,2*%
%TO.N,GND*%
X120015000Y-81241000D03*
%TD*%
D21*
%TO.P,TP3,1,1*%
%TO.N,GND*%
X153416000Y-66802000D03*
%TD*%
D33*
%TO.P,R34,1*%
%TO.N,GND*%
X96837000Y-73660000D03*
%TO.P,R34,2*%
%TO.N,Net-(U11-EN{slash}UVLO)*%
X95187000Y-73660000D03*
%TD*%
D22*
%TO.P,R23,1*%
%TO.N,+3V3_R*%
X133425000Y-93750000D03*
%TO.P,R23,2*%
%TO.N,Net-(D4-A)*%
X135075000Y-93750000D03*
%TD*%
D23*
%TO.P,C53,1*%
%TO.N,Net-(U12-VIN)*%
X129807000Y-62103000D03*
%TO.P,C53,2*%
%TO.N,GND*%
X128257000Y-62103000D03*
%TD*%
D29*
%TO.P,C26,1*%
%TO.N,Net-(U7-VREG_VOUT)*%
X150863000Y-79502000D03*
%TO.P,C26,2*%
%TO.N,GND*%
X152413000Y-79502000D03*
%TD*%
D33*
%TO.P,R62,1*%
%TO.N,GND*%
X143382000Y-67056000D03*
%TO.P,R62,2*%
%TO.N,Net-(U15-CP2)*%
X141732000Y-67056000D03*
%TD*%
D13*
%TO.P,R20,1*%
%TO.N,Net-(U7-USB_DM)*%
X149098000Y-81211500D03*
%TO.P,R20,2*%
%TO.N,/R_USB_D-*%
X149098000Y-79561500D03*
%TD*%
D29*
%TO.P,C33,1*%
%TO.N,+3V3_R*%
X152021000Y-85979000D03*
%TO.P,C33,2*%
%TO.N,GND*%
X153571000Y-85979000D03*
%TD*%
D22*
%TO.P,R30,1*%
%TO.N,Net-(J12-CC1)*%
X150432000Y-64008000D03*
%TO.P,R30,2*%
%TO.N,GND*%
X152082000Y-64008000D03*
%TD*%
D13*
%TO.P,R4,1*%
%TO.N,Net-(U1-USB_DM)*%
X115570000Y-78930000D03*
%TO.P,R4,2*%
%TO.N,/USB_D-*%
X115570000Y-77280000D03*
%TD*%
%TO.P,R35,1*%
%TO.N,Net-(U11-EN{slash}UVLO)*%
X96247000Y-71739000D03*
%TO.P,R35,2*%
%TO.N,Net-(U11-VIN)*%
X96247000Y-70089000D03*
%TD*%
D16*
%TO.P,C20,1*%
%TO.N,+5V*%
X89154000Y-69837000D03*
%TO.P,C20,2*%
%TO.N,GND*%
X89154000Y-71387000D03*
%TD*%
%TO.P,C50,1*%
%TO.N,+5V_R*%
X125730000Y-69469000D03*
%TO.P,C50,2*%
%TO.N,GND*%
X125730000Y-71019000D03*
%TD*%
D33*
%TO.P,R12,1*%
%TO.N,Net-(D3-K)*%
X77580000Y-106479000D03*
%TO.P,R12,2*%
%TO.N,/V_BCKP*%
X75930000Y-106479000D03*
%TD*%
D23*
%TO.P,C56,1*%
%TO.N,GND*%
X141745000Y-70358000D03*
%TO.P,C56,2*%
%TO.N,Net-(U15-SS)*%
X140195000Y-70358000D03*
%TD*%
D79*
%TO.N,GND*%
X144907000Y-95377000D03*
X139490000Y-71517999D03*
X145210000Y-93977000D03*
X105800000Y-100500000D03*
X97409000Y-66548000D03*
X90750000Y-105000000D03*
X111609000Y-93218000D03*
X168351200Y-118211600D03*
X102362000Y-87947000D03*
X106553000Y-78421000D03*
X134998500Y-76065500D03*
X140078500Y-76319500D03*
X153100000Y-103800000D03*
X94723000Y-72169503D03*
X113843000Y-97536000D03*
X118237000Y-98933000D03*
X70250000Y-111500000D03*
X113093500Y-106870500D03*
X175514000Y-67056000D03*
X135971000Y-89524500D03*
X153000000Y-76600000D03*
X60432500Y-76235500D03*
X94615000Y-65311503D03*
X112395000Y-70612000D03*
X98171000Y-72898000D03*
X68437000Y-104140000D03*
X73591500Y-55908500D03*
X109867000Y-66675000D03*
X139065000Y-84012843D03*
X102743000Y-69596000D03*
X94272527Y-79041617D03*
X112776000Y-102616000D03*
X105283000Y-80899000D03*
X145840000Y-67580999D03*
X70250000Y-118250000D03*
X68250000Y-107735462D03*
X145669000Y-77597000D03*
X79866000Y-100990000D03*
X90750000Y-98250000D03*
X107315000Y-69469000D03*
X121031000Y-79883000D03*
X117221000Y-68072000D03*
X85908500Y-55908500D03*
X113157000Y-109093000D03*
X130175000Y-66929000D03*
X94175000Y-88118000D03*
X143637000Y-66040000D03*
X144899500Y-102261000D03*
X76500000Y-118250000D03*
%TO.N,+3V3*%
X65560000Y-90920000D03*
X108623883Y-82400783D03*
X89500000Y-103250000D03*
X82661000Y-104941462D03*
X65699000Y-99416000D03*
X113843000Y-80137000D03*
X91731000Y-77535000D03*
X88011000Y-63881000D03*
X121539000Y-114173000D03*
X110189000Y-72470000D03*
X118491000Y-93599000D03*
X100750000Y-110250000D03*
X96527000Y-92527000D03*
X99822000Y-77851000D03*
X116459000Y-81280000D03*
%TO.N,+5V*%
X90250000Y-110750000D03*
X68750000Y-91750000D03*
X85250000Y-101000000D03*
X85250000Y-103500000D03*
%TO.N,+BATT*%
X154635200Y-74117200D03*
%TO.N,VBUS*%
X116963000Y-62608000D03*
X108204000Y-61722000D03*
X112264000Y-62608000D03*
X114681000Y-63881000D03*
X108204000Y-59982000D03*
%TO.N,VCC*%
X148380000Y-63770999D03*
X141732000Y-59918000D03*
X150793000Y-62627999D03*
X142494000Y-61722000D03*
X145967000Y-62627999D03*
%TO.N,/Ch.1A*%
X134992661Y-84823634D03*
X111679250Y-91746500D03*
%TO.N,/Ch.1B*%
X135760500Y-85463500D03*
%TO.N,/Ch.2A*%
X136643661Y-86220634D03*
%TO.N,/Ch.2B*%
X137411500Y-86860500D03*
%TO.N,/Ch.3A*%
X138300500Y-87622500D03*
%TO.N,/Ch.3B*%
X139930378Y-87982378D03*
%TO.N,/SCL*%
X103886000Y-86360000D03*
%TO.N,/LS1*%
X121539000Y-102743000D03*
X67250000Y-102250000D03*
X123698000Y-100457000D03*
X111209000Y-98806000D03*
X133855500Y-83939500D03*
%TO.N,/PWM_EMRG_REL*%
X142110500Y-90797500D03*
%TO.N,Net-(U1-GPIO4)*%
X130429000Y-81026000D03*
X107569000Y-84947500D03*
%TO.N,/CROSS_PRIMTX_REDRX*%
X141983500Y-89654500D03*
X134635701Y-81026000D03*
%TO.N,Net-(U1-GPIO5)*%
X130429000Y-82550000D03*
X106553000Y-85347500D03*
%TO.N,/CROSS_PRIMRX_REDTX*%
X134686698Y-82296000D03*
X141094500Y-89146500D03*
%TO.N,Net-(U5-PG)*%
X94615000Y-64312000D03*
X93599000Y-62026000D03*
%TO.N,Net-(U11-PG)*%
X94723000Y-71170000D03*
X93707000Y-68630000D03*
%TO.N,Net-(U12-PG)*%
X130045000Y-64352999D03*
X128651000Y-60960000D03*
%TO.N,Net-(U13-PG)*%
X131318000Y-70739000D03*
X128132018Y-69080133D03*
%TO.N,/SPI0_POCI*%
X86280443Y-96065829D03*
X85852000Y-81153000D03*
X90678000Y-80288000D03*
%TO.N,/SPI0_SCK*%
X86792892Y-95207108D03*
X99187000Y-81088500D03*
X97028000Y-76011000D03*
X88500000Y-81250000D03*
%TO.N,/SPI0_PICO*%
X92456000Y-82169000D03*
X87500000Y-94500000D03*
X92075000Y-76011000D03*
%TO.N,/SPIO_CS_IMU*%
X107823000Y-87946500D03*
X97790000Y-77724000D03*
%TO.N,/LS2*%
X106807000Y-91567000D03*
X91500000Y-93750000D03*
%TO.N,/PWM_MC*%
X108125967Y-91076227D03*
X88500000Y-101500000D03*
%TO.N,/TXEN*%
X124118015Y-86115795D03*
X93069347Y-89180653D03*
%TO.N,/SW*%
X120750000Y-88463500D03*
X91233470Y-88424044D03*
%TO.N,/DIO1*%
X121386040Y-87448046D03*
X91800000Y-87600000D03*
%TO.N,/~{RST}*%
X93980000Y-82487500D03*
X123190000Y-86487000D03*
%TO.N,/BUSY*%
X122322587Y-87098926D03*
X91600000Y-85000000D03*
%TO.N,/TIMEPULSE*%
X124989164Y-85625791D03*
X89500000Y-97000000D03*
%TO.N,/SWD_R*%
X149055000Y-93218000D03*
X172669200Y-115469200D03*
%TO.N,/SWCLK_R*%
X171272200Y-115417600D03*
X148984025Y-94855975D03*
%TO.N,/CUT*%
X155956000Y-91948000D03*
X141750000Y-92250000D03*
X170942000Y-70358000D03*
%TO.N,/SPI0_CS_SD*%
X100358870Y-101000000D03*
X122000000Y-90500000D03*
%TO.N,+3V3_R*%
X144777500Y-90162500D03*
X175971200Y-118211600D03*
X132000000Y-93750000D03*
X147193000Y-83312000D03*
X144145000Y-76573500D03*
X151993000Y-95123000D03*
X161250000Y-99250000D03*
%TO.N,Net-(U14-PR1)*%
X100203000Y-64008000D03*
X100191000Y-67132062D03*
%TO.N,Net-(U15-PR1)*%
X134620000Y-63881000D03*
X134493000Y-66791000D03*
%TO.N,/STEP*%
X126746000Y-101600000D03*
X119253000Y-104902000D03*
X126800000Y-91000000D03*
%TO.N,/DIR*%
X127600000Y-90000000D03*
X119253000Y-105918000D03*
X127635000Y-102616000D03*
%TO.N,+5V_R*%
X124587000Y-71120000D03*
%TO.N,/SPI0_CS_SD_R*%
X159000000Y-99250000D03*
X160750000Y-102250000D03*
%TD*%
D80*
%TO.N,GND*%
X117881000Y-63271000D02*
X119405000Y-63271000D01*
X144046000Y-96238000D02*
X144907000Y-95377000D01*
X142875000Y-102261000D02*
X144899500Y-102261000D01*
X112395000Y-71120000D02*
X112903000Y-71628000D01*
D81*
X109693000Y-57124000D02*
X110361000Y-56456000D01*
D80*
X114681000Y-68461000D02*
X115070000Y-68072000D01*
D81*
X152688000Y-60528999D02*
X158083999Y-60528999D01*
D80*
X141092500Y-76200000D02*
X141092500Y-76687500D01*
X130175000Y-66929000D02*
X130175000Y-68059000D01*
X92250000Y-104850000D02*
X90900000Y-104850000D01*
D81*
X62812001Y-74618000D02*
X64312000Y-74618000D01*
D80*
X131307999Y-71554999D02*
X131699000Y-71946000D01*
X152413000Y-77851000D02*
X152413000Y-77187000D01*
X112395000Y-70612000D02*
X112395000Y-71120000D01*
X93485000Y-79629000D02*
X94983000Y-79629000D01*
X90850000Y-98350000D02*
X90750000Y-98250000D01*
D82*
X146068500Y-92563000D02*
X146068500Y-91319000D01*
D80*
X140449000Y-84201000D02*
X139253157Y-84201000D01*
X98250000Y-71663000D02*
X98250000Y-72819000D01*
X140200001Y-69040999D02*
X140427999Y-69040999D01*
X153543000Y-89027000D02*
X153543000Y-87503000D01*
X117983000Y-63373000D02*
X117983000Y-64135000D01*
X152413000Y-77187000D02*
X153000000Y-76600000D01*
D81*
X141732000Y-55499000D02*
X143198001Y-55499000D01*
D82*
X145510000Y-93677000D02*
X145510000Y-93084666D01*
D80*
X173228000Y-103632000D02*
X170968000Y-103632000D01*
X127767000Y-64944999D02*
X128954500Y-64944999D01*
X140585001Y-71517999D02*
X141745000Y-70358000D01*
D83*
X82482000Y-63217999D02*
X82482000Y-61468000D01*
D80*
X109867000Y-66675000D02*
X109029000Y-66675000D01*
D83*
X77402000Y-61468000D02*
X77402000Y-63217999D01*
D80*
X81250000Y-100990000D02*
X79866000Y-100990000D01*
X106680000Y-75819000D02*
X106680000Y-78294000D01*
D83*
X85908500Y-55908500D02*
X84133000Y-55908500D01*
D80*
X130122500Y-71554999D02*
X128935000Y-71554999D01*
X171450000Y-95250000D02*
X173380400Y-97180400D01*
X94859910Y-79629000D02*
X94272527Y-79041617D01*
D82*
X111609000Y-93218000D02*
X112543000Y-92284000D01*
D81*
X175514000Y-67056000D02*
X175514000Y-65278000D01*
D80*
X139954000Y-60643000D02*
X138303000Y-62294000D01*
X145669000Y-79108000D02*
X145669000Y-77597000D01*
D83*
X75633000Y-55908500D02*
X75633000Y-59699000D01*
D80*
X153416000Y-63881000D02*
X152908000Y-63373000D01*
X113093500Y-106870500D02*
X114554000Y-105410000D01*
D82*
X153571000Y-83568000D02*
X152807000Y-82804000D01*
D80*
X152413000Y-79502000D02*
X152413000Y-81153000D01*
X120015000Y-81241000D02*
X121524000Y-81241000D01*
X87617000Y-66675000D02*
X87617000Y-66103000D01*
X124587000Y-64944999D02*
X126079500Y-64944999D01*
X124596000Y-65900000D02*
X124596000Y-64411000D01*
D84*
X141732000Y-55499000D02*
X141732000Y-57137000D01*
D80*
X130122500Y-71554999D02*
X131307999Y-71554999D01*
X143382000Y-66295000D02*
X143637000Y-66040000D01*
X70202000Y-104140000D02*
X68437000Y-104140000D01*
X113843000Y-97536000D02*
X113538000Y-97231000D01*
X89154000Y-71538000D02*
X87744000Y-72948000D01*
X152413000Y-82410000D02*
X152807000Y-82804000D01*
X152908000Y-63373000D02*
X152908000Y-62443999D01*
X112804000Y-104010000D02*
X112804000Y-102644000D01*
X113157000Y-109119000D02*
X111252000Y-109119000D01*
X94093695Y-64816000D02*
X93512500Y-64816000D01*
X152413000Y-81153000D02*
X152413000Y-82410000D01*
X125730000Y-72504000D02*
X125730000Y-71019000D01*
D83*
X78192001Y-64008000D02*
X81691999Y-64008000D01*
D80*
X94250000Y-99950000D02*
X93100000Y-99950000D01*
X107315000Y-69469000D02*
X105715001Y-69469000D01*
X119405000Y-63271000D02*
X120650000Y-64516000D01*
D82*
X112543000Y-92284000D02*
X112543000Y-89284500D01*
D80*
X153416000Y-66802000D02*
X153416000Y-63881000D01*
D82*
X146031666Y-92563000D02*
X146068500Y-92563000D01*
D80*
X107315000Y-69469000D02*
X107315000Y-70776800D01*
X134942500Y-76121500D02*
X134998500Y-76065500D01*
X94697198Y-72169503D02*
X94723000Y-72169503D01*
X163850000Y-95250000D02*
X163400000Y-95700000D01*
X145828000Y-67568999D02*
X145840000Y-67580999D01*
D82*
X158500000Y-95250000D02*
X165000000Y-95250000D01*
D80*
X116623000Y-117267305D02*
X116623000Y-110873000D01*
X114843000Y-109093000D02*
X113157000Y-109093000D01*
X93921000Y-86848000D02*
X95318000Y-86848000D01*
D81*
X108174000Y-57124000D02*
X106439000Y-57124000D01*
D80*
X105537000Y-81153000D02*
X105283000Y-80899000D01*
X94341500Y-78140500D02*
X94841500Y-78140500D01*
X118491000Y-81255000D02*
X120001000Y-81255000D01*
X152273000Y-64008000D02*
X152908000Y-63373000D01*
X95445000Y-86975000D02*
X95445000Y-88225000D01*
X94201695Y-71674000D02*
X94697198Y-72169503D01*
X140078500Y-76319500D02*
X140973000Y-76319500D01*
X103980000Y-77724000D02*
X105885000Y-75819000D01*
X144899500Y-102261000D02*
X146558000Y-102261000D01*
X90745500Y-71674000D02*
X89441000Y-71674000D01*
X87617000Y-66103000D02*
X88904000Y-64816000D01*
X138431000Y-69040999D02*
X137097000Y-70374999D01*
X110936000Y-61211000D02*
X110361000Y-60636000D01*
X129501500Y-76121500D02*
X133601500Y-76121500D01*
X98250000Y-72819000D02*
X98171000Y-72898000D01*
X117983000Y-118122000D02*
X117477695Y-118122000D01*
X114681000Y-69711000D02*
X114681000Y-68461000D01*
X113157000Y-109119000D02*
X113157000Y-109093000D01*
X136271000Y-62040000D02*
X138049000Y-62040000D01*
X144048000Y-60528999D02*
X144593000Y-60528999D01*
X170129200Y-118211600D02*
X168351200Y-118211600D01*
X130330999Y-67084999D02*
X131445000Y-67084999D01*
X104087999Y-69596000D02*
X104151999Y-69532000D01*
X87744000Y-72948000D02*
X87744000Y-74562000D01*
X97409000Y-65369000D02*
X97409000Y-66548000D01*
X104775000Y-62675000D02*
X104775000Y-62231000D01*
X112903000Y-74676000D02*
X112903000Y-73152000D01*
X87617000Y-65700000D02*
X86714000Y-65700000D01*
D81*
X62103000Y-76200000D02*
X62103000Y-75327001D01*
D80*
X93620500Y-71674000D02*
X94201695Y-71674000D01*
X139490000Y-71517999D02*
X140585001Y-71517999D01*
X138240000Y-71517999D02*
X137097000Y-70374999D01*
X90637500Y-64816000D02*
X91825000Y-64816000D01*
D82*
X105800000Y-97550000D02*
X105800000Y-100500000D01*
D81*
X59568500Y-81788500D02*
X63862500Y-81788500D01*
D80*
X120231000Y-96939000D02*
X118237000Y-98933000D01*
X138052500Y-81726500D02*
X138847500Y-81726500D01*
X70202000Y-107690000D02*
X70202000Y-104140000D01*
X113538000Y-97231000D02*
X113538000Y-96279000D01*
D84*
X140208000Y-57137000D02*
X141732000Y-57137000D01*
D80*
X152688000Y-60528999D02*
X152143000Y-60528999D01*
X143382000Y-67056000D02*
X143382000Y-66295000D01*
X144899500Y-99448500D02*
X144899500Y-102261000D01*
X94589198Y-65311503D02*
X94615000Y-65311503D01*
X97409000Y-73660000D02*
X98171000Y-72898000D01*
X117881000Y-61211000D02*
X117881000Y-63271000D01*
X117881000Y-63271000D02*
X117983000Y-63373000D01*
X92250000Y-98350000D02*
X90850000Y-98350000D01*
X119406000Y-79883000D02*
X121031000Y-79883000D01*
X145796000Y-98552000D02*
X144899500Y-99448500D01*
X129381001Y-66929000D02*
X127517000Y-65064999D01*
X94282000Y-88225000D02*
X94175000Y-88118000D01*
X138847500Y-81726500D02*
X140752500Y-79821500D01*
X88904000Y-64816000D02*
X90637500Y-64816000D01*
D81*
X108174000Y-57124000D02*
X109693000Y-57124000D01*
D82*
X145510000Y-93084666D02*
X146031666Y-92563000D01*
D81*
X64312000Y-79698000D02*
X64312000Y-82238000D01*
D80*
X123063000Y-81254000D02*
X124587000Y-81254000D01*
X127517000Y-62843000D02*
X127517000Y-64694999D01*
D81*
X107201000Y-56336000D02*
X106426000Y-57111000D01*
D80*
X141092500Y-76687500D02*
X140752500Y-77027500D01*
X112141000Y-66676000D02*
X112141000Y-65976000D01*
X152413000Y-77851000D02*
X152413000Y-79502000D01*
X151422000Y-99423000D02*
X151422000Y-103523000D01*
X104775000Y-62231000D02*
X106299000Y-60707000D01*
X152143000Y-60528999D02*
X151568000Y-61103999D01*
X127247500Y-71554999D02*
X128435000Y-71554999D01*
X92325000Y-64816000D02*
X93512500Y-64816000D01*
X121539000Y-81226000D02*
X123035000Y-81226000D01*
X163400000Y-95700000D02*
X163400000Y-97250000D01*
X112804000Y-102644000D02*
X112776000Y-102616000D01*
X126079500Y-64944999D02*
X127267000Y-64944999D01*
X118456000Y-60636000D02*
X117881000Y-61211000D01*
X139253157Y-84201000D02*
X139065000Y-84012843D01*
X116623000Y-110873000D02*
X114843000Y-109093000D01*
X140752500Y-77027500D02*
X140752500Y-79821500D01*
X106794000Y-81153000D02*
X105537000Y-81153000D01*
D83*
X75633000Y-59699000D02*
X77402000Y-61468000D01*
D81*
X60468000Y-76200000D02*
X60432500Y-76235500D01*
D80*
X101473000Y-62357000D02*
X104457000Y-62357000D01*
X115070000Y-68072000D02*
X117221000Y-68072000D01*
X125730000Y-71019000D02*
X126265999Y-71554999D01*
X140335000Y-60643000D02*
X139954000Y-60643000D01*
X117477695Y-118122000D02*
X116623000Y-117267305D01*
X119001000Y-60636000D02*
X118456000Y-60636000D01*
X93620500Y-71674000D02*
X92433000Y-71674000D01*
X112903000Y-73152000D02*
X112903000Y-71628000D01*
X106680000Y-78294000D02*
X106553000Y-78421000D01*
X96837000Y-73660000D02*
X97409000Y-73660000D01*
X144046000Y-97152000D02*
X144046000Y-96238000D01*
X81250000Y-103500000D02*
X81250000Y-100990000D01*
X102743000Y-69596000D02*
X102743000Y-70859002D01*
X82482000Y-61468000D02*
X86714000Y-65700000D01*
X96329000Y-67056000D02*
X96901000Y-67056000D01*
X114296000Y-68076000D02*
X113541000Y-68076000D01*
X130175000Y-66929000D02*
X129381001Y-66929000D01*
X106299000Y-60707000D02*
X110290000Y-60707000D01*
X90745500Y-71674000D02*
X91933000Y-71674000D01*
X147651000Y-67580999D02*
X148368000Y-68297999D01*
D83*
X84133000Y-55908500D02*
X84133000Y-59817000D01*
D80*
X96901000Y-67056000D02*
X97409000Y-66548000D01*
D81*
X62103000Y-78232000D02*
X62103000Y-76200000D01*
D80*
X135971000Y-89524500D02*
X137477500Y-89524500D01*
X140335000Y-60643000D02*
X143933999Y-60643000D01*
X152908000Y-62443999D02*
X151568000Y-61103999D01*
X121031000Y-80718000D02*
X121539000Y-81226000D01*
X140427999Y-69040999D02*
X141745000Y-70358000D01*
X124587000Y-81254000D02*
X126111000Y-81254000D01*
X148209000Y-97803000D02*
X148209000Y-100610000D01*
X153571000Y-85979000D02*
X153571000Y-84455000D01*
X104457000Y-62357000D02*
X104775000Y-62675000D01*
D81*
X62103000Y-76200000D02*
X60468000Y-76200000D01*
D82*
X153571000Y-84455000D02*
X153571000Y-83568000D01*
D80*
X105715001Y-69469000D02*
X105652001Y-69532000D01*
D81*
X63569000Y-79698000D02*
X62103000Y-78232000D01*
X107201000Y-53848000D02*
X107201000Y-55372000D01*
D80*
X139490000Y-71517999D02*
X138240000Y-71517999D01*
D83*
X81691999Y-64008000D02*
X82482000Y-63217999D01*
D80*
X114681000Y-68461000D02*
X114296000Y-68076000D01*
X114681000Y-109119000D02*
X113157000Y-109119000D01*
X121031000Y-79883000D02*
X121031000Y-80858000D01*
X128257000Y-62103000D02*
X127517000Y-62843000D01*
X165000000Y-95250000D02*
X163850000Y-95250000D01*
X108966000Y-70713000D02*
X107455600Y-70713000D01*
X124587000Y-64402000D02*
X124587000Y-64944999D01*
D81*
X62103000Y-75327001D02*
X62812001Y-74618000D01*
D80*
X170968000Y-103632000D02*
X165800000Y-108800000D01*
X95445000Y-88225000D02*
X94282000Y-88225000D01*
X87617000Y-66675000D02*
X87617000Y-65700000D01*
X128685000Y-69549000D02*
X128685000Y-71304999D01*
X94841500Y-78140500D02*
X94841500Y-79487500D01*
X95445000Y-88225000D02*
X97595000Y-88225000D01*
D82*
X105800000Y-104900000D02*
X105800000Y-100500000D01*
D80*
X93100000Y-99950000D02*
X92250000Y-99100000D01*
D83*
X77402000Y-63217999D02*
X78192001Y-64008000D01*
D80*
X87630000Y-78776000D02*
X87630000Y-74676000D01*
X153543000Y-90551000D02*
X153543000Y-89027000D01*
X94093695Y-64816000D02*
X94589198Y-65311503D01*
X90900000Y-104850000D02*
X90750000Y-105000000D01*
D81*
X152688000Y-56348999D02*
X158753999Y-56348999D01*
D83*
X73591500Y-55908500D02*
X75633000Y-55908500D01*
D81*
X107201000Y-55372000D02*
X107201000Y-56336000D01*
D80*
X145828000Y-65870999D02*
X145828000Y-67568999D01*
X130175000Y-68059000D02*
X129527000Y-68707000D01*
X153543000Y-87503000D02*
X153543000Y-86007000D01*
X102362000Y-87947000D02*
X102807000Y-88392000D01*
D81*
X141745000Y-53848000D02*
X141745000Y-55486000D01*
D83*
X84133000Y-59817000D02*
X82482000Y-61468000D01*
D80*
X116243000Y-96939000D02*
X118237000Y-98933000D01*
X130175000Y-66929000D02*
X130330999Y-67084999D01*
X153100000Y-103800000D02*
X151699000Y-103800000D01*
X145840000Y-67580999D02*
X147651000Y-67580999D01*
X133601500Y-76121500D02*
X134942500Y-76121500D01*
X111481000Y-61211000D02*
X110936000Y-61211000D01*
X144593000Y-60528999D02*
X145168000Y-61103999D01*
X138699999Y-69040999D02*
X138431000Y-69040999D01*
X102743000Y-69596000D02*
X104087999Y-69596000D01*
X148209000Y-100610000D02*
X146558000Y-102261000D01*
X126265999Y-71554999D02*
X127247500Y-71554999D01*
X165000000Y-95250000D02*
X171450000Y-95250000D01*
X102807000Y-88392000D02*
X103632000Y-88392000D01*
X113541000Y-68076000D02*
X112141000Y-66676000D01*
X129527000Y-68707000D02*
X128685000Y-69549000D01*
X148368000Y-68297999D02*
X148368000Y-69547999D01*
X165800000Y-108800000D02*
X158450000Y-108800000D01*
D81*
X143198001Y-55499000D02*
X144048000Y-56348999D01*
D82*
X145210000Y-93977000D02*
X145510000Y-93677000D01*
D80*
%TO.N,Net-(U1-RUN)*%
X116060000Y-93510000D02*
X116060000Y-95212000D01*
D82*
X115343000Y-89284500D02*
X115343000Y-92793000D01*
X115343000Y-92793000D02*
X116060000Y-93510000D01*
D80*
X120287000Y-95339000D02*
X116187000Y-95339000D01*
%TO.N,Net-(B2-Pad2)*%
X89230000Y-74676000D02*
X98789000Y-74676000D01*
X98789000Y-74676000D02*
X99442000Y-75329000D01*
X89230000Y-74676000D02*
X89230000Y-78776000D01*
D82*
%TO.N,Net-(U7-RUN)*%
X148868500Y-91851475D02*
X148868500Y-91319000D01*
D80*
X149780000Y-92798330D02*
X149780000Y-99381000D01*
X149822000Y-99423000D02*
X149822000Y-103523000D01*
X148893500Y-91911830D02*
X149780000Y-92798330D01*
%TO.N,Net-(B4-Pad2)*%
X135375500Y-77848500D02*
X133728500Y-77848500D01*
X133601500Y-77721500D02*
X129501500Y-77721500D01*
D82*
%TO.N,+3V3*%
X113382975Y-88392000D02*
X112182975Y-88392000D01*
D80*
X78000000Y-111592000D02*
X78000000Y-110492000D01*
X128651000Y-114173000D02*
X121539000Y-114173000D01*
X92710000Y-87796000D02*
X92710000Y-86320000D01*
X126111000Y-82804000D02*
X124587000Y-82804000D01*
X108344000Y-82120900D02*
X108623883Y-82400783D01*
X81752000Y-106592462D02*
X81752000Y-107251956D01*
X141236000Y-115697000D02*
X142748000Y-114185000D01*
D82*
X113919000Y-80213000D02*
X113919000Y-82409500D01*
X108521690Y-82647500D02*
X109121191Y-83247000D01*
X113743000Y-89284500D02*
X113743000Y-94524000D01*
X115743000Y-82409500D02*
X116143000Y-82409500D01*
D80*
X94810000Y-89896000D02*
X92710000Y-87796000D01*
X121539000Y-82776000D02*
X120030000Y-82776000D01*
D82*
X116143000Y-82409500D02*
X116980500Y-83247000D01*
D80*
X118491000Y-82805000D02*
X117397500Y-82805000D01*
X110189000Y-72470000D02*
X109617500Y-73041500D01*
X98950000Y-110250000D02*
X100750000Y-110250000D01*
D82*
X113743000Y-88752025D02*
X113382975Y-88392000D01*
D80*
X93816499Y-78478000D02*
X93376948Y-78478000D01*
D82*
X116224000Y-86622975D02*
X116448025Y-86847000D01*
D80*
X93841500Y-78140500D02*
X93841500Y-78452999D01*
D82*
X118402000Y-93510000D02*
X117080000Y-93510000D01*
D80*
X96533000Y-79629000D02*
X98044000Y-79629000D01*
X96457000Y-83038000D02*
X95445000Y-84050000D01*
X82800000Y-100990000D02*
X82800000Y-103500000D01*
X124702000Y-118122000D02*
X121793000Y-118122000D01*
X89027000Y-63860000D02*
X90593500Y-63860000D01*
X108966000Y-72390000D02*
X109617500Y-73041500D01*
D82*
X116448025Y-83247000D02*
X116224000Y-83471025D01*
X116143000Y-81596000D02*
X116459000Y-81280000D01*
D80*
X81752000Y-106592462D02*
X81752000Y-105850462D01*
X95504000Y-78600000D02*
X96533000Y-79629000D01*
X88032000Y-63860000D02*
X88011000Y-63881000D01*
X142748000Y-114185000D02*
X144260000Y-115697000D01*
X65560000Y-92002000D02*
X65560000Y-90920000D01*
X99425000Y-92500000D02*
X96554000Y-92500000D01*
X107417000Y-72322000D02*
X108907000Y-72322000D01*
D82*
X110637975Y-83247000D02*
X111125000Y-83734025D01*
D80*
X81752000Y-107251956D02*
X78511956Y-110492000D01*
D82*
X116143000Y-82409500D02*
X116143000Y-81596000D01*
D80*
X95504000Y-77978000D02*
X95504000Y-78600000D01*
X90593500Y-63860000D02*
X90637500Y-63816000D01*
X128651000Y-114173000D02*
X124702000Y-118122000D01*
X92710000Y-86320000D02*
X93142000Y-85888000D01*
D82*
X108623883Y-82400783D02*
X108521690Y-82502976D01*
D80*
X144260000Y-115697000D02*
X155333000Y-115697000D01*
X109617500Y-73041500D02*
X109380000Y-73279000D01*
X91935000Y-77739000D02*
X91935000Y-79629000D01*
X124587000Y-82804000D02*
X123063000Y-82804000D01*
X95445000Y-84475000D02*
X95445000Y-84050000D01*
D82*
X111125000Y-86359975D02*
X110637975Y-86847000D01*
X109121191Y-83247000D02*
X110105500Y-83247000D01*
D80*
X96527000Y-89896000D02*
X94810000Y-89896000D01*
X87884000Y-62422000D02*
X89027000Y-63565000D01*
X90637500Y-64316000D02*
X90637500Y-63816000D01*
X93841500Y-78452999D02*
X93816499Y-78478000D01*
D82*
X110105500Y-83247000D02*
X110637975Y-83247000D01*
D80*
X128651000Y-114173000D02*
X130175000Y-115697000D01*
X81752000Y-105850462D02*
X82661000Y-104941462D01*
D82*
X113843000Y-80137000D02*
X113919000Y-80213000D01*
D80*
X82800000Y-103500000D02*
X82800000Y-104802462D01*
X123063000Y-82804000D02*
X121567000Y-82804000D01*
X82800000Y-104802462D02*
X82661000Y-104941462D01*
X94250000Y-102150000D02*
X90600000Y-102150000D01*
X90600000Y-102150000D02*
X89500000Y-103250000D01*
D82*
X118491000Y-93599000D02*
X118402000Y-93510000D01*
D80*
X95445000Y-84475000D02*
X95445000Y-85725000D01*
D82*
X113919000Y-82409500D02*
X113743000Y-82409500D01*
X113743000Y-89284500D02*
X113743000Y-88752025D01*
D80*
X96554000Y-92500000D02*
X96527000Y-92527000D01*
X93142000Y-85888000D02*
X95282000Y-85888000D01*
X92225948Y-79629000D02*
X93376948Y-78478000D01*
X91309000Y-62026000D02*
X90637500Y-62697500D01*
X65687000Y-100621000D02*
X65687000Y-99428000D01*
D82*
X116224000Y-83471025D02*
X116224000Y-86622975D01*
D80*
X155333000Y-115697000D02*
X156845000Y-114185000D01*
X98044000Y-79629000D02*
X99822000Y-77851000D01*
X108344000Y-81153000D02*
X108344000Y-82120900D01*
X89027000Y-63860000D02*
X88032000Y-63860000D01*
X109380000Y-73279000D02*
X109380000Y-73914000D01*
X120015000Y-82791000D02*
X118505000Y-82791000D01*
X116459000Y-81280000D02*
X117856000Y-79883000D01*
D82*
X114143000Y-82409500D02*
X113919000Y-82409500D01*
D80*
X91731000Y-77535000D02*
X91935000Y-77739000D01*
D82*
X108521690Y-82502976D02*
X108521690Y-82647500D01*
X116448025Y-86847000D02*
X116980500Y-86847000D01*
D80*
X87884000Y-61087000D02*
X87884000Y-62422000D01*
X96527000Y-89896000D02*
X96527000Y-92527000D01*
X95282000Y-85888000D02*
X95445000Y-85725000D01*
D82*
X111125000Y-83734025D02*
X111125000Y-86359975D01*
X110637975Y-86847000D02*
X110105500Y-86847000D01*
X112182975Y-88392000D02*
X110637975Y-86847000D01*
X116980500Y-83247000D02*
X116448025Y-83247000D01*
D80*
X65687000Y-99428000D02*
X65699000Y-99416000D01*
X117397500Y-82805000D02*
X116980500Y-83222000D01*
X90637500Y-62697500D02*
X90637500Y-63816000D01*
X130175000Y-115697000D02*
X141236000Y-115697000D01*
%TO.N,Net-(U1-XIN)*%
X111252000Y-107569000D02*
X111252000Y-106962000D01*
D82*
X111909000Y-105290000D02*
X112029000Y-105410000D01*
X112029000Y-105410000D02*
X112804000Y-105410000D01*
D80*
X111252000Y-106962000D02*
X112804000Y-105410000D01*
D82*
X111909000Y-93907950D02*
X111909000Y-105290000D01*
X112943000Y-89284500D02*
X112943000Y-92873950D01*
X112943000Y-92873950D02*
X111909000Y-93907950D01*
D80*
%TO.N,Net-(C2-Pad2)*%
X115440000Y-104010000D02*
X114554000Y-104010000D01*
X114554000Y-104010000D02*
X114554000Y-102044000D01*
X115454000Y-106796000D02*
X115454000Y-104024000D01*
X114681000Y-107569000D02*
X115454000Y-106796000D01*
X115454000Y-104024000D02*
X115440000Y-104010000D01*
%TO.N,+5V*%
X67744000Y-90750000D02*
X64312000Y-87318000D01*
D85*
X87037000Y-69837000D02*
X89154000Y-69837000D01*
X61588500Y-67713500D02*
X84913500Y-67713500D01*
D80*
X93550000Y-110250000D02*
X90750000Y-110250000D01*
D85*
X90745500Y-70674000D02*
X90745500Y-69850000D01*
D80*
X85250000Y-103500000D02*
X85250000Y-101000000D01*
D85*
X89154000Y-69837000D02*
X90732500Y-69837000D01*
D80*
X67750000Y-90750000D02*
X67744000Y-90750000D01*
D85*
X58547000Y-82317000D02*
X59568500Y-83338500D01*
X58547000Y-70755000D02*
X58547000Y-82317000D01*
X59568500Y-83338500D02*
X62872500Y-83338500D01*
X60276500Y-68107500D02*
X60735500Y-68566500D01*
X64312000Y-84778000D02*
X64312000Y-87318000D01*
D86*
X90745500Y-71174000D02*
X90745500Y-70674000D01*
D80*
X68750000Y-91750000D02*
X67750000Y-90750000D01*
D85*
X60735500Y-68566500D02*
X61588500Y-67713500D01*
X90745500Y-69850000D02*
X90745500Y-69557500D01*
X84913500Y-67713500D02*
X87037000Y-69837000D01*
X60735500Y-68566500D02*
X58547000Y-70755000D01*
X59035500Y-68107500D02*
X60276500Y-68107500D01*
X62872500Y-83338500D02*
X64312000Y-84778000D01*
D80*
X90732500Y-69837000D02*
X90745500Y-69850000D01*
D85*
X91358000Y-68945000D02*
X90745500Y-69557500D01*
D80*
X90750000Y-110250000D02*
X90250000Y-110750000D01*
D82*
%TO.N,Net-(U7-XIN)*%
X143510000Y-98552000D02*
X144046000Y-98552000D01*
X144617050Y-94677000D02*
X142621000Y-96673050D01*
X145910000Y-94340000D02*
X145573000Y-94677000D01*
X145573000Y-94677000D02*
X144617050Y-94677000D01*
X142621000Y-96673050D02*
X142621000Y-97663000D01*
X146468500Y-92963000D02*
X146197352Y-92963000D01*
X146468500Y-91319000D02*
X146468500Y-92963000D01*
D80*
X142875000Y-99723000D02*
X144046000Y-98552000D01*
D82*
X142621000Y-97663000D02*
X143510000Y-98552000D01*
X145910000Y-93250352D02*
X145910000Y-94340000D01*
D80*
X142875000Y-100711000D02*
X142875000Y-99723000D01*
D82*
X146197352Y-92963000D02*
X145910000Y-93250352D01*
D80*
%TO.N,Net-(C23-Pad2)*%
X146696000Y-97227000D02*
X146621000Y-97152000D01*
X146621000Y-97152000D02*
X145796000Y-97152000D01*
X146685000Y-95313000D02*
X146685000Y-97088000D01*
X146696000Y-100573000D02*
X146696000Y-97227000D01*
X146685000Y-97088000D02*
X146621000Y-97152000D01*
%TO.N,Net-(U11-SS)*%
X89294000Y-72948000D02*
X89971500Y-72948000D01*
X89971500Y-72948000D02*
X90745500Y-72174000D01*
%TO.N,Net-(U5-SS)*%
X89712000Y-66675000D02*
X90637500Y-65749500D01*
X90637500Y-65749500D02*
X90637500Y-65316000D01*
X89167000Y-66675000D02*
X89712000Y-66675000D01*
%TO.N,Net-(U12-SS)*%
X124596000Y-67450000D02*
X126079500Y-65966500D01*
X126079500Y-65966500D02*
X126079500Y-65444999D01*
%TO.N,Net-(U13-SS)*%
X127247500Y-72536500D02*
X127247500Y-72054999D01*
X125730000Y-74054000D02*
X127247500Y-72536500D01*
D81*
%TO.N,+BATT*%
X154635200Y-74117200D02*
X154940000Y-74422000D01*
D80*
X133719500Y-64532999D02*
X133719500Y-67516000D01*
D81*
X139053500Y-55499000D02*
X136259500Y-58293000D01*
D80*
X133719500Y-67516000D02*
X138775000Y-67516000D01*
X135763000Y-65088000D02*
X134274501Y-65088000D01*
X136906000Y-58293000D02*
X133719500Y-61479500D01*
X137017001Y-65088000D02*
X137351000Y-65421999D01*
X135763000Y-65088000D02*
X137017001Y-65088000D01*
D81*
X140195000Y-53848000D02*
X140195000Y-55486000D01*
D80*
X134274501Y-65088000D02*
X133719500Y-64532999D01*
X133719500Y-61479500D02*
X133719500Y-64532999D01*
D81*
X154940000Y-74422000D02*
X158623000Y-74422000D01*
X140182000Y-55499000D02*
X139053500Y-55499000D01*
D80*
%TO.N,Net-(D1-K)*%
X104582000Y-90667000D02*
X104582000Y-92498000D01*
%TO.N,Net-(D1-A)*%
X102830000Y-92500000D02*
X101075000Y-92500000D01*
D84*
%TO.N,/USB_D+*%
X113919000Y-69899000D02*
X113731000Y-69711000D01*
D81*
X113919000Y-77153000D02*
X113919000Y-69899000D01*
%TO.N,/USB_D-*%
X115443000Y-77153000D02*
X115443000Y-69899000D01*
D84*
X115443000Y-69899000D02*
X115631000Y-69711000D01*
%TO.N,/D-*%
X115631000Y-66291000D02*
X115431000Y-66091000D01*
X115431000Y-62611000D02*
X115431000Y-61211000D01*
X115431000Y-66091000D02*
X115431000Y-62611000D01*
X114431000Y-62036000D02*
X115006000Y-62611000D01*
X115006000Y-62611000D02*
X115431000Y-62611000D01*
X114431000Y-61211000D02*
X114431000Y-62036000D01*
D87*
%TO.N,VBUS*%
X110617000Y-66167000D02*
X110236000Y-65786000D01*
D84*
X108204000Y-63563000D02*
X107886000Y-63881000D01*
D87*
X107886000Y-63881000D02*
X107886000Y-65405000D01*
X112264000Y-62608000D02*
X112264000Y-61228000D01*
X111372000Y-63500000D02*
X112264000Y-62608000D01*
X110236000Y-63500000D02*
X111372000Y-63500000D01*
X110617000Y-67183000D02*
X110617000Y-66167000D01*
X110236000Y-67564000D02*
X110617000Y-67183000D01*
X114681000Y-63881000D02*
X114681000Y-66291000D01*
D84*
X108204000Y-61722000D02*
X108204000Y-63563000D01*
D80*
X111125000Y-68453000D02*
X110236000Y-67564000D01*
D87*
X109792999Y-68007001D02*
X110236000Y-67564000D01*
D84*
X108174000Y-58674000D02*
X106439000Y-58674000D01*
D87*
X110236000Y-65786000D02*
X110236000Y-65405000D01*
X107886000Y-65405000D02*
X110236000Y-65405000D01*
D84*
X108204000Y-59982000D02*
X108204000Y-58704000D01*
D87*
X116963000Y-62608000D02*
X116963000Y-61329000D01*
X105577000Y-68007001D02*
X109792999Y-68007001D01*
X110236000Y-65405000D02*
X110236000Y-63500000D01*
D84*
%TO.N,/D+*%
X113931000Y-66091000D02*
X113931000Y-61211000D01*
X113731000Y-66291000D02*
X113931000Y-66091000D01*
X113931000Y-60386000D02*
X114246000Y-60071000D01*
X114681000Y-60071000D02*
X114931000Y-60321000D01*
X114246000Y-60071000D02*
X114681000Y-60071000D01*
X113931000Y-61211000D02*
X113931000Y-60386000D01*
X114931000Y-60321000D02*
X114931000Y-61211000D01*
D80*
%TO.N,Net-(D3-K)*%
X77580000Y-106479000D02*
X79138538Y-106479000D01*
%TO.N,Net-(D4-K)*%
X138427500Y-91799500D02*
X138427500Y-93697500D01*
%TO.N,Net-(D4-A)*%
X136625000Y-93750000D02*
X135075000Y-93750000D01*
D88*
%TO.N,/R_USB_D+*%
X147418000Y-70837000D02*
X147574000Y-70993000D01*
X147418000Y-69547999D02*
X147418000Y-70837000D01*
X147574000Y-70993000D02*
X147574000Y-79561500D01*
%TO.N,/R_USB_D-*%
X149318000Y-79341500D02*
X149098000Y-79561500D01*
X149318000Y-69547999D02*
X149318000Y-79341500D01*
D84*
%TO.N,Net-(D5-L2-Pad4)*%
X149318000Y-65851999D02*
X149118000Y-65651999D01*
X149118000Y-65651999D02*
X149118000Y-61865999D01*
X148118000Y-61103999D02*
X148118000Y-61978999D01*
X148118000Y-61978999D02*
X148143000Y-62003999D01*
X148980000Y-62003999D02*
X149118000Y-61865999D01*
X148143000Y-62003999D02*
X148980000Y-62003999D01*
X149118000Y-61865999D02*
X149118000Y-61103999D01*
D87*
%TO.N,VCC*%
X141329000Y-67945000D02*
X144653000Y-67945000D01*
D80*
X144399000Y-68199000D02*
X144653000Y-67945000D01*
D87*
X144653000Y-67945000D02*
X144653000Y-64516000D01*
D80*
X145017001Y-62627999D02*
X145967000Y-62627999D01*
X141458000Y-63881000D02*
X143764000Y-63881000D01*
D84*
X142494000Y-61722000D02*
X142494000Y-62357000D01*
X141732000Y-58687000D02*
X141732000Y-59918000D01*
D87*
X150793000Y-62627999D02*
X150793000Y-61128999D01*
D80*
X144399000Y-70485000D02*
X144399000Y-68199000D01*
D87*
X144653000Y-64516000D02*
X143891000Y-63754000D01*
X145968000Y-61103999D02*
X145968000Y-62626999D01*
D80*
X148368000Y-63782999D02*
X148380000Y-63770999D01*
D87*
X140900000Y-67516000D02*
X141329000Y-67945000D01*
D84*
X140208000Y-58687000D02*
X141732000Y-58687000D01*
X142494000Y-62357000D02*
X143891000Y-63754000D01*
D80*
X143891000Y-63754000D02*
X145017001Y-62627999D01*
X142240000Y-65405000D02*
X143891000Y-63754000D01*
D87*
X140125000Y-67516000D02*
X140900000Y-67516000D01*
X148368000Y-66127999D02*
X148368000Y-63782999D01*
D80*
X143764000Y-63881000D02*
X143891000Y-63754000D01*
D84*
%TO.N,Net-(D5-L1-Pad6)*%
X147618000Y-60228999D02*
X147759000Y-60087999D01*
X147618000Y-61103999D02*
X147618000Y-60228999D01*
X147418000Y-66127999D02*
X147618000Y-65927999D01*
X147618000Y-65927999D02*
X147618000Y-61103999D01*
X148618000Y-60228999D02*
X148618000Y-61103999D01*
X147759000Y-60087999D02*
X148477000Y-60087999D01*
X148477000Y-60087999D02*
X148618000Y-60228999D01*
D82*
%TO.N,/SWD*%
X116859000Y-106609000D02*
X120523000Y-110273000D01*
X114943000Y-89284500D02*
X114943000Y-99167000D01*
X120523000Y-110273000D02*
X120523000Y-118122000D01*
X116859000Y-100945667D02*
X116859000Y-106609000D01*
X114943000Y-99167000D02*
X115080334Y-99167000D01*
X115080334Y-99167000D02*
X116859000Y-100945667D01*
%TO.N,/SWCLK*%
X119222463Y-110472463D02*
X119222463Y-114838537D01*
X114689698Y-99567000D02*
X114914648Y-99567000D01*
X114914648Y-99567000D02*
X116459000Y-101111352D01*
X119253000Y-114869074D02*
X119253000Y-118122000D01*
X119222463Y-114838537D02*
X119253000Y-114869075D01*
X114543000Y-89284500D02*
X114543000Y-99420302D01*
X119222463Y-114838537D02*
X119253000Y-114869074D01*
X116459000Y-101111352D02*
X116459000Y-107709000D01*
X116459000Y-107709000D02*
X119222463Y-110472463D01*
X114543000Y-99420302D02*
X114689698Y-99567000D01*
D80*
%TO.N,Net-(J2-CC1)*%
X116648000Y-63819000D02*
X115931000Y-63102000D01*
X115931000Y-61211000D02*
X115931000Y-63102000D01*
%TO.N,Net-(J2-CC2)*%
X112141000Y-64130000D02*
X112989000Y-63282000D01*
X112931000Y-62249695D02*
X112931000Y-61211000D01*
X112989000Y-63282000D02*
X112989000Y-62307695D01*
X112989000Y-62307695D02*
X112931000Y-62249695D01*
D82*
%TO.N,/Ch.1A*%
X137849500Y-84763500D02*
X135052795Y-84763500D01*
X111679250Y-91746500D02*
X112143000Y-91282750D01*
X135052795Y-84763500D02*
X134992661Y-84823634D01*
X143631000Y-86081500D02*
X142413563Y-86081500D01*
X142413563Y-86081500D02*
X141992562Y-85660500D01*
X141992562Y-85660500D02*
X138746500Y-85660500D01*
X112143000Y-91282750D02*
X112143000Y-89284500D01*
X138746500Y-85660500D02*
X137849500Y-84763500D01*
%TO.N,/Ch.1B*%
X143631000Y-86481500D02*
X142247878Y-86481500D01*
X119426025Y-93500000D02*
X125250000Y-93500000D01*
X138569186Y-86060500D02*
X137972186Y-85463500D01*
X136271000Y-104521000D02*
X136271000Y-114173000D01*
X137972186Y-85463500D02*
X135760500Y-85463500D01*
X142247878Y-86481500D02*
X141826877Y-86060500D01*
X115743000Y-89816975D02*
X119426025Y-93500000D01*
X125250000Y-93500000D02*
X136271000Y-104521000D01*
X141826877Y-86060500D02*
X138569186Y-86060500D01*
X115743000Y-89284500D02*
X115743000Y-89816975D01*
%TO.N,/Ch.2A*%
X138403500Y-86460500D02*
X138103500Y-86160500D01*
X142082193Y-86881500D02*
X141661192Y-86460500D01*
X116143000Y-89651289D02*
X119582711Y-93091000D01*
X145393000Y-111750000D02*
X147828000Y-114185000D01*
X141661192Y-86460500D02*
X138403500Y-86460500D01*
X143631000Y-86881500D02*
X142082193Y-86881500D01*
X116143000Y-89284500D02*
X116143000Y-89651289D01*
X136671000Y-104355315D02*
X136671000Y-107421000D01*
X136703795Y-86160500D02*
X136643661Y-86220634D01*
X141000000Y-111750000D02*
X145393000Y-111750000D01*
X138103500Y-86160500D02*
X136703795Y-86160500D01*
X136671000Y-107421000D02*
X141000000Y-111750000D01*
X119582711Y-93091000D02*
X125406685Y-93091000D01*
X125406685Y-93091000D02*
X136671000Y-104355315D01*
%TO.N,/Ch.2B*%
X121224500Y-92691000D02*
X125572371Y-92691000D01*
X141916507Y-87281500D02*
X141495507Y-86860500D01*
X137071000Y-104189630D02*
X137071000Y-106821000D01*
X137071000Y-106821000D02*
X141600000Y-111350000D01*
X147533000Y-111350000D02*
X150368000Y-114185000D01*
X125572371Y-92691000D02*
X137071000Y-104189630D01*
X116980500Y-88447000D02*
X121224500Y-92691000D01*
X143631000Y-87281500D02*
X141916507Y-87281500D01*
X141600000Y-111350000D02*
X147533000Y-111350000D01*
X141495507Y-86860500D02*
X137411500Y-86860500D01*
%TO.N,/Ch.3A*%
X121758360Y-92291000D02*
X125738057Y-92291000D01*
X141750821Y-87681500D02*
X141351699Y-87282378D01*
X147698685Y-110950000D02*
X147873685Y-111125000D01*
X125738057Y-92291000D02*
X137471000Y-104023945D01*
X116980500Y-88047000D02*
X117514360Y-88047000D01*
X147873685Y-111125000D02*
X158865000Y-111125000D01*
X137471000Y-106221000D02*
X142200000Y-110950000D01*
X142200000Y-110950000D02*
X147698685Y-110950000D01*
X158865000Y-111125000D02*
X161925000Y-114185000D01*
X141351699Y-87282378D02*
X138640622Y-87282378D01*
X117514360Y-88047000D02*
X121758360Y-92291000D01*
X138640622Y-87282378D02*
X138300500Y-87622500D01*
X143631000Y-87681500D02*
X141750821Y-87681500D01*
X137471000Y-104023945D02*
X137471000Y-106221000D01*
%TO.N,/Ch.3B*%
X117873000Y-87647000D02*
X116980500Y-87647000D01*
X141585135Y-88081500D02*
X143631000Y-88081500D01*
X164465000Y-114185000D02*
X161005000Y-110725000D01*
X137871000Y-103858259D02*
X125903743Y-91891000D01*
X140353937Y-87982378D02*
X140418059Y-88046500D01*
X161005000Y-110725000D02*
X148039371Y-110725000D01*
X122117000Y-91891000D02*
X117873000Y-87647000D01*
X140418059Y-88046500D02*
X141550135Y-88046500D01*
X139930378Y-87982378D02*
X140353937Y-87982378D01*
X125903743Y-91891000D02*
X122117000Y-91891000D01*
X147864370Y-110550000D02*
X142800000Y-110550000D01*
X142800000Y-110550000D02*
X137871000Y-105621000D01*
X148039371Y-110725000D02*
X147864370Y-110550000D01*
X137871000Y-105621000D02*
X137871000Y-103858259D01*
X141550135Y-88046500D02*
X141585135Y-88081500D01*
%TO.N,/SCL*%
X99060000Y-83780000D02*
X99187000Y-83653000D01*
X99060000Y-83780000D02*
X97731000Y-83780000D01*
X110105500Y-86447000D02*
X103973000Y-86447000D01*
D80*
X98107000Y-83404000D02*
X97731000Y-83780000D01*
D82*
X99187000Y-83653000D02*
X101092000Y-83653000D01*
X103973000Y-86447000D02*
X103886000Y-86360000D01*
D80*
X97731000Y-83780000D02*
X97731000Y-84339000D01*
X98107000Y-82804000D02*
X98107000Y-83404000D01*
%TO.N,/SDA*%
X98973000Y-85725000D02*
X97595000Y-85725000D01*
D82*
X104180000Y-85384000D02*
X99314000Y-85384000D01*
D80*
X98177000Y-89235000D02*
X100330000Y-87082000D01*
D82*
X110105500Y-86047000D02*
X104843000Y-86047000D01*
D80*
X98177000Y-89896000D02*
X98177000Y-89235000D01*
X100330000Y-87082000D02*
X98973000Y-85725000D01*
D82*
X99314000Y-85384000D02*
X98973000Y-85725000D01*
X104843000Y-86047000D02*
X104180000Y-85384000D01*
%TO.N,/LS1*%
X111743000Y-89982661D02*
X110909000Y-90816661D01*
X143631000Y-85681500D02*
X142579248Y-85681500D01*
X137660500Y-83939500D02*
X133855500Y-83939500D01*
X138981500Y-85260500D02*
X137660500Y-83939500D01*
X121539000Y-102616000D02*
X123698000Y-100457000D01*
X142158247Y-85260500D02*
X138981500Y-85260500D01*
X67250000Y-102250000D02*
X65708000Y-102250000D01*
X110909000Y-90816661D02*
X110909000Y-98506000D01*
X61750000Y-102210000D02*
X65626000Y-102210000D01*
X142579248Y-85681500D02*
X142158247Y-85260500D01*
X121539000Y-102743000D02*
X121539000Y-102616000D01*
X111743000Y-89284500D02*
X111743000Y-89982661D01*
X110909000Y-98506000D02*
X111209000Y-98806000D01*
D89*
%TO.N,Net-(J8-In)*%
X79883000Y-55908500D02*
X79883000Y-61409000D01*
D82*
%TO.N,/PWM_EMRG_REL*%
X143631000Y-90081500D02*
X142826500Y-90081500D01*
X142826500Y-90081500D02*
X142110500Y-90797500D01*
D80*
%TO.N,Net-(J12-CC1)*%
X149618000Y-63247999D02*
X149618000Y-61103999D01*
X150652000Y-64281999D02*
X149618000Y-63247999D01*
%TO.N,Net-(J12-CC2)*%
X146692000Y-62327694D02*
X146618000Y-62253694D01*
X145828000Y-64220999D02*
X146692000Y-63356999D01*
X146692000Y-63356999D02*
X146692000Y-62327694D01*
X146618000Y-62253694D02*
X146618000Y-61103999D01*
%TO.N,Net-(J13-Pin_1)*%
X108960000Y-116500000D02*
X79056004Y-116500000D01*
X110710000Y-114750000D02*
X108960000Y-116500000D01*
X107823000Y-97218000D02*
X107823000Y-111863000D01*
X78923004Y-116367000D02*
X78375000Y-116367000D01*
X79056004Y-116500000D02*
X78923004Y-116367000D01*
X78375000Y-116367000D02*
X78000000Y-115992000D01*
X107823000Y-111863000D02*
X110710000Y-114750000D01*
%TO.N,Net-(J13-Pin_2)*%
X109474000Y-110974000D02*
X109474000Y-97218000D01*
X113250000Y-114750000D02*
X109474000Y-110974000D01*
X110908000Y-117092000D02*
X78000000Y-117092000D01*
X113250000Y-114750000D02*
X110908000Y-117092000D01*
D82*
%TO.N,/D1*%
X106677000Y-87247000D02*
X110105500Y-87247000D01*
X105532000Y-88392000D02*
X106677000Y-87247000D01*
%TO.N,/D1_R*%
X140804550Y-88446500D02*
X141384450Y-88446500D01*
X139726550Y-89524500D02*
X140804550Y-88446500D01*
X141384450Y-88446500D02*
X141419450Y-88481500D01*
X139377500Y-89524500D02*
X139726550Y-89524500D01*
X141419450Y-88481500D02*
X143631000Y-88481500D01*
%TO.N,Net-(U1-XOUT)*%
X114427000Y-100267000D02*
X114427000Y-99869988D01*
X113343000Y-93039636D02*
X113343000Y-89284500D01*
X114427000Y-99869988D02*
X112309000Y-97751988D01*
X112309000Y-94073636D02*
X113343000Y-93039636D01*
X112309000Y-97751988D02*
X112309000Y-94073636D01*
D87*
%TO.N,Net-(U1-USB_DP)*%
X114046000Y-78930000D02*
X114543000Y-79427000D01*
X114543000Y-79427000D02*
X114543000Y-82409500D01*
%TO.N,Net-(U1-USB_DM)*%
X114943000Y-79557000D02*
X114943000Y-82409500D01*
X115570000Y-78930000D02*
X114943000Y-79557000D01*
D80*
%TO.N,/QSPI_SS*%
X105577000Y-71817000D02*
X104739050Y-71817000D01*
X102159000Y-75329000D02*
X102362000Y-75532000D01*
X104739050Y-71817000D02*
X103980000Y-72576050D01*
D82*
X103107500Y-74786500D02*
X103980000Y-73914000D01*
X109131000Y-79921000D02*
X104069588Y-79921000D01*
X110943000Y-81733000D02*
X109131000Y-79921000D01*
D80*
X106082000Y-72322000D02*
X105577000Y-71817000D01*
D82*
X110943000Y-82409500D02*
X110943000Y-81733000D01*
X102362000Y-78213413D02*
X102362000Y-75532000D01*
D80*
X101092000Y-75329000D02*
X102159000Y-75329000D01*
D82*
X102362000Y-75532000D02*
X103107500Y-74786500D01*
X104069588Y-79921000D02*
X102362000Y-78213413D01*
D80*
X103980000Y-72576050D02*
X103980000Y-73914000D01*
D82*
%TO.N,/GPS_TX*%
X109474000Y-95568000D02*
X109474000Y-91650620D01*
X109474000Y-91650620D02*
X110531810Y-90592810D01*
X111343000Y-89816975D02*
X110509000Y-90650975D01*
X111343000Y-89284500D02*
X111343000Y-89816975D01*
%TO.N,/GPS_RX*%
X110109000Y-90118500D02*
X110943000Y-89284500D01*
D80*
X107823000Y-95568000D02*
X107823000Y-92404500D01*
X107823000Y-92404500D02*
X110109000Y-90118500D01*
%TO.N,Net-(U1-GPIO4)*%
X130429000Y-81026000D02*
X131382000Y-81026000D01*
D82*
X107868500Y-85247000D02*
X107569000Y-84947500D01*
X109982000Y-85247000D02*
X107868500Y-85247000D01*
D80*
%TO.N,/CROSS_PRIMTX_REDRX*%
X134635701Y-81026000D02*
X133540000Y-81026000D01*
D82*
X141983500Y-89654500D02*
X142010500Y-89681500D01*
X142010500Y-89681500D02*
X143631000Y-89681500D01*
D80*
%TO.N,Net-(U1-GPIO5)*%
X130429000Y-82550000D02*
X131509000Y-82550000D01*
D82*
X110105500Y-85647000D02*
X106852500Y-85647000D01*
X106852500Y-85647000D02*
X106553000Y-85347500D01*
%TO.N,/CROSS_PRIMRX_REDTX*%
X143098525Y-89281500D02*
X143631000Y-89281500D01*
X141693550Y-88954500D02*
X142771525Y-88954500D01*
X142771525Y-88954500D02*
X143098525Y-89281500D01*
X141094500Y-89146500D02*
X141501550Y-89146500D01*
X141501550Y-89146500D02*
X141693550Y-88954500D01*
D80*
X134686698Y-82296000D02*
X133413000Y-82296000D01*
D82*
%TO.N,Net-(U7-XOUT)*%
X146868500Y-91319000D02*
X146868500Y-93479500D01*
D87*
%TO.N,Net-(U7-USB_DP)*%
X148068500Y-81706000D02*
X147574000Y-81211500D01*
X148068500Y-84444000D02*
X148068500Y-81706000D01*
%TO.N,Net-(U7-USB_DM)*%
X148468500Y-84444000D02*
X148468500Y-81841000D01*
X148468500Y-81841000D02*
X149098000Y-81211500D01*
D80*
%TO.N,/R_QSPI_SS*%
X138212500Y-76519500D02*
X138212500Y-77756500D01*
D82*
X136503500Y-82519206D02*
X137297137Y-83312843D01*
X136503500Y-79465500D02*
X136503500Y-82519206D01*
X144468500Y-83935558D02*
X144468500Y-84444000D01*
D80*
X137194500Y-78774500D02*
X137194500Y-78647500D01*
D82*
X137297137Y-83312843D02*
X143845785Y-83312843D01*
X137194500Y-78774500D02*
X138052500Y-77916500D01*
D80*
X137194500Y-78647500D02*
X136395500Y-77848500D01*
D82*
X143845785Y-83312843D02*
X144468500Y-83935558D01*
X137194500Y-78774500D02*
X136503500Y-79465500D01*
D80*
X138212500Y-77756500D02*
X138052500Y-77916500D01*
%TO.N,Net-(U5-PG)*%
X93512500Y-64316000D02*
X94611000Y-64316000D01*
X94611000Y-64316000D02*
X94615000Y-64312000D01*
X93599000Y-62026000D02*
X92329000Y-62026000D01*
%TO.N,Net-(U11-PG)*%
X94719000Y-71174000D02*
X94723000Y-71170000D01*
X93620500Y-71174000D02*
X94719000Y-71174000D01*
X92693000Y-68630000D02*
X93707000Y-68630000D01*
%TO.N,Net-(U11-EN{slash}UVLO)*%
X93620500Y-72174000D02*
X95106500Y-73660000D01*
X95250000Y-73597000D02*
X95250000Y-72998604D01*
X95250000Y-72998604D02*
X96247000Y-72001604D01*
%TO.N,Net-(U5-EN{slash}UVLO)*%
X94679000Y-67056000D02*
X94679000Y-66530000D01*
X93512500Y-65316000D02*
X94540500Y-66344000D01*
X94679000Y-66530000D02*
X94865000Y-66344000D01*
X94540500Y-66344000D02*
X94865000Y-66344000D01*
X95885000Y-65324000D02*
X94865000Y-66344000D01*
%TO.N,Net-(U12-PG)*%
X128651000Y-60960000D02*
X128397000Y-61214000D01*
X128397000Y-61214000D02*
X126745000Y-61214000D01*
X129953000Y-64444999D02*
X130045000Y-64352999D01*
X128954500Y-64444999D02*
X129953000Y-64444999D01*
%TO.N,Net-(U13-PG)*%
X128079000Y-69027115D02*
X128079000Y-67310000D01*
X128132018Y-69080133D02*
X128079000Y-69027115D01*
X130122500Y-71054999D02*
X131002001Y-71054999D01*
X131002001Y-71054999D02*
X131318000Y-70739000D01*
%TO.N,Net-(U12-EN{slash}UVLO)*%
X131445000Y-64071000D02*
X131445000Y-65434999D01*
X128954500Y-65444999D02*
X131435000Y-65444999D01*
%TO.N,Net-(U13-EN{slash}UVLO)*%
X133223000Y-72072000D02*
X131699000Y-73596000D01*
X130157999Y-72054999D02*
X131699000Y-73596000D01*
D82*
%TO.N,/SPI0_POCI*%
X95450000Y-97050000D02*
X95450000Y-98750000D01*
X90978000Y-80588000D02*
X97826450Y-80588000D01*
X106219186Y-83047500D02*
X108356005Y-83047500D01*
X100438000Y-80499000D02*
X103670686Y-80499000D01*
X90678000Y-80288000D02*
X90678000Y-77216000D01*
X86280443Y-96065829D02*
X86464614Y-96250000D01*
X97826450Y-80588000D02*
X98425950Y-79988500D01*
X94650000Y-96250000D02*
X95450000Y-97050000D01*
X86464614Y-96250000D02*
X94650000Y-96250000D01*
X91183000Y-76711000D02*
X92364950Y-76711000D01*
X90678000Y-77216000D02*
X91183000Y-76711000D01*
X92364950Y-76711000D02*
X92597950Y-76478000D01*
X98425950Y-79988500D02*
X99927500Y-79988500D01*
X95450000Y-98750000D02*
X95350000Y-98850000D01*
D80*
X85852000Y-81102000D02*
X85852000Y-81153000D01*
D82*
X92597950Y-76478000D02*
X93179000Y-76478000D01*
D80*
X84448000Y-79698000D02*
X85852000Y-81102000D01*
D82*
X90678000Y-80288000D02*
X90978000Y-80588000D01*
X99927500Y-79988500D02*
X100438000Y-80499000D01*
X108955506Y-83647000D02*
X110105500Y-83647000D01*
X108356005Y-83047500D02*
X108955506Y-83647000D01*
X95350000Y-98850000D02*
X94250000Y-98850000D01*
X103670686Y-80499000D02*
X106219186Y-83047500D01*
%TO.N,/SPI0_CS_RAD*%
X83312000Y-72073000D02*
X86106000Y-74867000D01*
X98591636Y-80388500D02*
X99476950Y-80388500D01*
X99987450Y-80899000D02*
X103505000Y-80899000D01*
X86106000Y-78740000D02*
X87366000Y-80000000D01*
X108789821Y-84047000D02*
X110105500Y-84047000D01*
X108190320Y-83447500D02*
X108789821Y-84047000D01*
X99476950Y-80388500D02*
X99987450Y-80899000D01*
X106053500Y-83447500D02*
X108190320Y-83447500D01*
X97992136Y-80988000D02*
X98591636Y-80388500D01*
X86106000Y-74867000D02*
X86106000Y-78740000D01*
X87366000Y-80000000D02*
X89400050Y-80000000D01*
X90388050Y-80988000D02*
X97992136Y-80988000D01*
X89400050Y-80000000D02*
X90388050Y-80988000D01*
X103505000Y-80899000D02*
X106053500Y-83447500D01*
%TO.N,/SPI0_SCK*%
X94715685Y-95750000D02*
X95850000Y-96884315D01*
X95850000Y-96884315D02*
X95850000Y-100550000D01*
X99187000Y-81088500D02*
X99187000Y-81388000D01*
X89234364Y-80400000D02*
X90222365Y-81388000D01*
X105818500Y-83847500D02*
X103359000Y-81388000D01*
D80*
X94341500Y-75866605D02*
X94808105Y-75400000D01*
D82*
X88500000Y-80400000D02*
X89234364Y-80400000D01*
X90222365Y-81388000D02*
X99187000Y-81388000D01*
D80*
X94341500Y-76315500D02*
X94341500Y-75866605D01*
D82*
X110105500Y-84447000D02*
X108624136Y-84447000D01*
X85623856Y-76929856D02*
X85623856Y-78873856D01*
X108624136Y-84447000D02*
X108024635Y-83847500D01*
X85623856Y-78873856D02*
X87150000Y-80400000D01*
X103359000Y-81388000D02*
X99187000Y-81388000D01*
D80*
X96417000Y-75400000D02*
X97028000Y-76011000D01*
D82*
X95350000Y-101050000D02*
X94250000Y-101050000D01*
D80*
X94808105Y-75400000D02*
X96417000Y-75400000D01*
D82*
X108024635Y-83847500D02*
X105818500Y-83847500D01*
X95850000Y-100550000D02*
X95350000Y-101050000D01*
X87335784Y-95750000D02*
X94715685Y-95750000D01*
X83312000Y-74618000D02*
X85623856Y-76929856D01*
X86792892Y-95207108D02*
X87335784Y-95750000D01*
X88500000Y-80400000D02*
X88500000Y-81250000D01*
X87150000Y-80400000D02*
X88500000Y-80400000D01*
%TO.N,/SPI0_PICO*%
X96250000Y-96718630D02*
X96250000Y-102350000D01*
X92456000Y-81788000D02*
X92244000Y-82000000D01*
X92244000Y-82000000D02*
X88184314Y-82000000D01*
X96250000Y-102350000D02*
X95350000Y-103250000D01*
D80*
X93472000Y-75692000D02*
X92394000Y-75692000D01*
X92394000Y-75692000D02*
X92075000Y-76011000D01*
X93841500Y-76315500D02*
X93841500Y-76061500D01*
D82*
X94031370Y-94500000D02*
X96250000Y-96718630D01*
X107858950Y-84247500D02*
X105641725Y-84247500D01*
X103182225Y-81788000D02*
X92456000Y-81788000D01*
X95350000Y-103250000D02*
X94250000Y-103250000D01*
X88184314Y-82000000D02*
X83342314Y-77158000D01*
X108269000Y-84847000D02*
X108269000Y-84657550D01*
X110105500Y-84847000D02*
X108269000Y-84847000D01*
X105641725Y-84247500D02*
X103182225Y-81788000D01*
X92456000Y-82169000D02*
X92456000Y-81788000D01*
D80*
X93841500Y-76061500D02*
X93472000Y-75692000D01*
D82*
X108269000Y-84657550D02*
X107858950Y-84247500D01*
X87500000Y-94500000D02*
X94031370Y-94500000D01*
D80*
%TO.N,/SPIO_CS_IMU*%
X95917000Y-75978000D02*
X94866501Y-75978000D01*
X97663000Y-77724000D02*
X95917000Y-75978000D01*
X94841500Y-76003001D02*
X94841500Y-76315500D01*
D82*
X108122500Y-87647000D02*
X110105500Y-87647000D01*
X107823000Y-87946500D02*
X108122500Y-87647000D01*
D80*
X97790000Y-77724000D02*
X97663000Y-77724000D01*
X94866501Y-75978000D02*
X94841500Y-76003001D01*
D82*
%TO.N,/LS2*%
X107442000Y-90932000D02*
X107442000Y-89408000D01*
X108803000Y-88047000D02*
X110105500Y-88047000D01*
X107442000Y-89408000D02*
X108803000Y-88047000D01*
D80*
X65437000Y-93460000D02*
X61750000Y-93460000D01*
D82*
X106807000Y-91567000D02*
X107442000Y-90932000D01*
X91500000Y-93750000D02*
X65658000Y-93750000D01*
D80*
%TO.N,/PWM_MC*%
X110105500Y-89096694D02*
X110105500Y-88472000D01*
X108125967Y-91076227D02*
X110105500Y-89096694D01*
X86750000Y-108000000D02*
X86750000Y-114500000D01*
X88500000Y-106250000D02*
X86750000Y-108000000D01*
X88500000Y-101500000D02*
X88500000Y-106250000D01*
D82*
%TO.N,/TXEN*%
X124118015Y-86115795D02*
X123808745Y-86115795D01*
X119024184Y-84847000D02*
X116980500Y-84847000D01*
X93069347Y-89180653D02*
X88164653Y-89180653D01*
X123808745Y-86115795D02*
X123479950Y-85787000D01*
X119964184Y-85787000D02*
X119024184Y-84847000D01*
X123479950Y-85787000D02*
X119964184Y-85787000D01*
D80*
X64312000Y-77158000D02*
X76308000Y-89154000D01*
D82*
X88164653Y-89180653D02*
X88138000Y-89154000D01*
X88138000Y-89154000D02*
X76308000Y-89154000D01*
%TO.N,/SW*%
X86233000Y-88392000D02*
X80631000Y-88392000D01*
X86265044Y-88424044D02*
X86233000Y-88392000D01*
X91233470Y-88424044D02*
X86265044Y-88424044D01*
X120028980Y-88114537D02*
X119271443Y-87357000D01*
X119271443Y-87357000D02*
X118821364Y-87357000D01*
X80631000Y-88392000D02*
X64312000Y-72073000D01*
X118821364Y-87357000D02*
X117911364Y-86447000D01*
X120028980Y-88114537D02*
X120401037Y-88114537D01*
X120401037Y-88114537D02*
X120750000Y-88463500D01*
X117911364Y-86447000D02*
X116980500Y-86447000D01*
D80*
%TO.N,/DIO1*%
X91800000Y-87600000D02*
X83594000Y-87600000D01*
D82*
X118077050Y-86047000D02*
X116980500Y-86047000D01*
X121331086Y-87503000D02*
X119983129Y-87503000D01*
X118987050Y-86957000D02*
X118077050Y-86047000D01*
X121386040Y-87448046D02*
X121331086Y-87503000D01*
X119983129Y-87503000D02*
X119437128Y-86957000D01*
X119437128Y-86957000D02*
X118987050Y-86957000D01*
%TO.N,/~{RST}*%
X84005000Y-82931000D02*
X93536500Y-82931000D01*
X83312000Y-82238000D02*
X84005000Y-82931000D01*
X119844499Y-86233000D02*
X118858499Y-85247000D01*
X118858499Y-85247000D02*
X116980500Y-85247000D01*
X93536500Y-82931000D02*
X93980000Y-82487500D01*
X123190000Y-86487000D02*
X122936000Y-86233000D01*
X122936000Y-86233000D02*
X119844499Y-86233000D01*
%TO.N,/BUSY*%
X119602813Y-86557000D02*
X119152736Y-86557000D01*
X118242735Y-85647000D02*
X116980500Y-85647000D01*
X119152736Y-86557000D02*
X118242735Y-85647000D01*
D80*
X91600000Y-85000000D02*
X83534000Y-85000000D01*
D82*
X121964661Y-86741000D02*
X119786813Y-86741000D01*
X119786813Y-86741000D02*
X119602813Y-86557000D01*
X122322587Y-87098926D02*
X121964661Y-86741000D01*
D80*
%TO.N,/TIMEPULSE*%
X87500000Y-105940004D02*
X78548004Y-114892000D01*
D82*
X124989164Y-85625791D02*
X124750373Y-85387000D01*
X120129870Y-85387000D02*
X119189869Y-84447000D01*
D80*
X89500000Y-97000000D02*
X89250000Y-97000000D01*
D82*
X119189869Y-84447000D02*
X116980500Y-84447000D01*
D80*
X89250000Y-97000000D02*
X87500000Y-98750000D01*
D82*
X124750373Y-85387000D02*
X120129870Y-85387000D01*
D80*
X87500000Y-98750000D02*
X87500000Y-105940004D01*
%TO.N,Net-(J15-Pin_1)*%
X97500000Y-113670000D02*
X96420000Y-114750000D01*
X97500000Y-110250000D02*
X97500000Y-113670000D01*
X95000000Y-110250000D02*
X97500000Y-110250000D01*
D82*
%TO.N,/QSPI_SD3*%
X112943000Y-82409500D02*
X112943000Y-80897409D01*
X111506000Y-79460409D02*
X111506000Y-77310000D01*
X111506000Y-77310000D02*
X109380000Y-75184000D01*
X112943000Y-80897409D02*
X111506000Y-79460409D01*
%TO.N,/QSPI_SCLK*%
X111106000Y-79626094D02*
X111106000Y-78180000D01*
X112543000Y-81063095D02*
X111106000Y-79626094D01*
X111106000Y-78180000D02*
X109380000Y-76454000D01*
X112543000Y-82409500D02*
X112543000Y-81063095D01*
%TO.N,/QSPI_SD0*%
X109380000Y-78465781D02*
X109380000Y-77724000D01*
X112143000Y-82409500D02*
X112143000Y-81228781D01*
X112143000Y-81228781D02*
X109380000Y-78465781D01*
%TO.N,/QSPI_SD2*%
X103980000Y-76454000D02*
X103305000Y-77129000D01*
X104400959Y-79121000D02*
X109469533Y-79121000D01*
X111743000Y-81394467D02*
X111743000Y-82409500D01*
X103305000Y-77129000D02*
X103305000Y-78025041D01*
X109469533Y-79121000D02*
X111743000Y-81394467D01*
X103305000Y-78025041D02*
X104400959Y-79121000D01*
%TO.N,/QSPI_SD1*%
X111343000Y-81560153D02*
X109303847Y-79521000D01*
X104235273Y-79521000D02*
X102870000Y-78155727D01*
X102870000Y-78155727D02*
X102870000Y-76294000D01*
X111343000Y-82409500D02*
X111343000Y-81560153D01*
X102870000Y-76294000D02*
X103980000Y-75184000D01*
X109303847Y-79521000D02*
X104235273Y-79521000D01*
%TO.N,/SWD_R*%
X172669200Y-115469200D02*
X172669200Y-118211600D01*
X148468500Y-92631500D02*
X148468500Y-91319000D01*
X149055000Y-93218000D02*
X148468500Y-92631500D01*
%TO.N,/SWCLK_R*%
X171272200Y-115417600D02*
X171399200Y-115544600D01*
X148068500Y-93191475D02*
X148068500Y-91319000D01*
X171399200Y-115544600D02*
X171399200Y-118211600D01*
X148795025Y-93918000D02*
X148765050Y-93918000D01*
X148765050Y-93918000D02*
X148355000Y-93507950D01*
X148984025Y-94107000D02*
X148795025Y-93918000D01*
X148984025Y-94855975D02*
X148984025Y-94107000D01*
X148355000Y-93507950D02*
X148355000Y-93477975D01*
X148355000Y-93477975D02*
X148068500Y-93191475D01*
D80*
%TO.N,Net-(U1-VREG_VOUT)*%
X111353000Y-73152000D02*
X111353000Y-74676000D01*
D82*
X114143000Y-88752025D02*
X114143000Y-89284500D01*
D80*
X112197000Y-79480450D02*
X112197000Y-75520000D01*
D82*
X115343000Y-82409500D02*
X115343000Y-82941975D01*
X113343000Y-80626450D02*
X112197000Y-79480450D01*
D80*
X111353000Y-71628000D02*
X111353000Y-73152000D01*
D82*
X115824000Y-87984500D02*
X114910525Y-87984500D01*
X115207988Y-83076988D02*
X115824000Y-83693000D01*
X115343000Y-82941975D02*
X115207988Y-83076988D01*
D80*
X112197000Y-75520000D02*
X111353000Y-74676000D01*
D82*
X115207988Y-83076988D02*
X115137975Y-83147000D01*
X113373000Y-83147000D02*
X113343000Y-83117000D01*
X115137975Y-83147000D02*
X113373000Y-83147000D01*
X115824000Y-83693000D02*
X115824000Y-87984500D01*
X114910525Y-87984500D02*
X114143000Y-88752025D01*
X113343000Y-82409500D02*
X113343000Y-80626450D01*
X113343000Y-83117000D02*
X113343000Y-82409500D01*
%TO.N,/CUT*%
X155956000Y-91948000D02*
X170448000Y-91948000D01*
X170448000Y-91948000D02*
X173140400Y-94640400D01*
X141750000Y-92250000D02*
X141862500Y-92250000D01*
D80*
X170942000Y-68976000D02*
X170942000Y-70358000D01*
D82*
X141862500Y-92250000D02*
X143631000Y-90481500D01*
%TO.N,/SPI0_CS_SD*%
X118038685Y-87247000D02*
X116980500Y-87247000D01*
X121291686Y-90500000D02*
X122000000Y-90500000D01*
X100358870Y-101000000D02*
X100358870Y-101041130D01*
X100358870Y-101041130D02*
X97050000Y-104350000D01*
X97050000Y-104350000D02*
X94250000Y-104350000D01*
X118038685Y-87247000D02*
X121291686Y-90500000D01*
%TO.N,/R_QSPI_SD3*%
X144526000Y-80260000D02*
X143452500Y-79186500D01*
X144526000Y-80964315D02*
X144526000Y-80260000D01*
X144527500Y-81134636D02*
X144527500Y-80965815D01*
X146468500Y-84444000D02*
X146468500Y-83075636D01*
X144527500Y-80965815D02*
X144526000Y-80964315D01*
X146468500Y-83075636D02*
X144527500Y-81134636D01*
%TO.N,/R_QSPI_SCLK*%
X146068500Y-84444000D02*
X146068500Y-83241322D01*
X144127500Y-81300322D02*
X146068500Y-83241322D01*
X144127500Y-81131500D02*
X144127500Y-81300322D01*
X143452500Y-80456500D02*
X144127500Y-81131500D01*
%TO.N,/R_QSPI_SD0*%
X145668500Y-83438500D02*
X145668500Y-84444000D01*
X143956500Y-81726500D02*
X145668500Y-83438500D01*
X143452500Y-81726500D02*
X143956500Y-81726500D01*
%TO.N,/R_QSPI_SD2*%
X137303500Y-82053500D02*
X137762843Y-82512843D01*
X144177157Y-82512843D02*
X145268500Y-83604186D01*
X145268500Y-83604186D02*
X145268500Y-84444000D01*
X137303500Y-81205500D02*
X137303500Y-82053500D01*
X138052500Y-80456500D02*
X137303500Y-81205500D01*
X137762843Y-82512843D02*
X144177157Y-82512843D01*
%TO.N,/R_QSPI_SD1*%
X136903500Y-82353520D02*
X136903500Y-80335500D01*
X144868500Y-84444000D02*
X144868500Y-83769872D01*
X144011471Y-82912843D02*
X137462823Y-82912843D01*
X137462823Y-82912843D02*
X136903500Y-82353520D01*
X144868500Y-83769872D02*
X144011471Y-82912843D01*
X136903500Y-80335500D02*
X138052500Y-79186500D01*
D86*
%TO.N,Net-(AE1-A)*%
X68500000Y-110492000D02*
X59795299Y-110492000D01*
X59795299Y-110492000D02*
X59250000Y-111037299D01*
D87*
%TO.N,Net-(J14-Pin_1)*%
X99441000Y-60579000D02*
X99441000Y-65532000D01*
D81*
X105651000Y-53848000D02*
X105651000Y-55372000D01*
D87*
X101473000Y-58547000D02*
X99441000Y-60579000D01*
X101346000Y-65533000D02*
X102687998Y-65533000D01*
X99441000Y-67945000D02*
X99503001Y-68007001D01*
X99503001Y-68007001D02*
X104227000Y-68007001D01*
X99441000Y-65532000D02*
X99441000Y-67945000D01*
X101346000Y-65533000D02*
X99442000Y-65533000D01*
D80*
X99442000Y-65533000D02*
X99441000Y-65532000D01*
D81*
X105651000Y-55372000D02*
X104648000Y-55372000D01*
X104648000Y-55372000D02*
X101473000Y-58547000D01*
D87*
X102687998Y-65533000D02*
X102997000Y-65842002D01*
D80*
%TO.N,+3V3_R*%
X151993000Y-90551000D02*
X151993000Y-89027000D01*
X141999000Y-84201000D02*
X142449000Y-84201000D01*
D82*
X144475988Y-89194012D02*
X144163475Y-88881500D01*
D80*
X151993000Y-95123000D02*
X151993000Y-90551000D01*
D82*
X144904500Y-90162500D02*
X144777500Y-90162500D01*
D80*
X173939200Y-118211600D02*
X175971200Y-118211600D01*
D82*
X161200000Y-97250000D02*
X161200000Y-99200000D01*
X150506000Y-88881500D02*
X151847500Y-88881500D01*
X145539500Y-90257525D02*
X145174488Y-89892512D01*
D80*
X151257000Y-83691000D02*
X152021000Y-84455000D01*
X138212500Y-74740000D02*
X141182500Y-74740000D01*
D82*
X145174488Y-89892512D02*
X144904500Y-90162500D01*
X147268500Y-84444000D02*
X147268500Y-83387500D01*
D80*
X149668500Y-84444000D02*
X151257000Y-82855500D01*
D82*
X146771475Y-90289500D02*
X145539500Y-90289500D01*
D80*
X142347500Y-76392500D02*
X142347500Y-76811500D01*
D82*
X144475988Y-85488988D02*
X144475988Y-89194012D01*
D80*
X147193000Y-82677000D02*
X147193000Y-83312000D01*
X143452500Y-77266000D02*
X143452500Y-77916500D01*
D82*
X147668500Y-95712500D02*
X148209000Y-96253000D01*
D80*
X126079500Y-63944999D02*
X126079500Y-64444999D01*
D82*
X147268500Y-90786525D02*
X146771475Y-90289500D01*
D80*
X151257000Y-82804000D02*
X151257000Y-83691000D01*
X144145000Y-76573500D02*
X143452500Y-77266000D01*
X124587000Y-62852000D02*
X124986501Y-62852000D01*
X143504500Y-85256500D02*
X143631000Y-85256500D01*
X145669000Y-80658000D02*
X145669000Y-81153000D01*
X141182500Y-74740000D02*
X142642500Y-76200000D01*
D82*
X144163475Y-88881500D02*
X143631000Y-88881500D01*
X149268500Y-84444000D02*
X149668500Y-84444000D01*
X161200000Y-99200000D02*
X161250000Y-99250000D01*
D80*
X124986501Y-62852000D02*
X126079500Y-63944999D01*
D82*
X147268500Y-91319000D02*
X147268500Y-90786525D01*
D80*
X125095000Y-61214000D02*
X128143000Y-58166000D01*
D82*
X149668500Y-84444000D02*
X150506000Y-85281500D01*
D80*
X151993000Y-89027000D02*
X151993000Y-87503000D01*
D82*
X147668500Y-84444000D02*
X147268500Y-84444000D01*
D80*
X133425000Y-93750000D02*
X132000000Y-93750000D01*
D82*
X147668500Y-92931500D02*
X147668500Y-95712500D01*
X145539500Y-90289500D02*
X145539500Y-90257525D01*
X147268500Y-92531500D02*
X147668500Y-92931500D01*
D80*
X125095000Y-62344000D02*
X124587000Y-62852000D01*
X152021000Y-85979000D02*
X152021000Y-84455000D01*
X125095000Y-61214000D02*
X125095000Y-62344000D01*
X142347500Y-76811500D02*
X143452500Y-77916500D01*
X142449000Y-84201000D02*
X143504500Y-85256500D01*
X151993000Y-95123000D02*
X151993000Y-97244000D01*
D82*
X147268500Y-91319000D02*
X147268500Y-92531500D01*
X145174488Y-89892512D02*
X144475988Y-89194012D01*
D80*
X151993000Y-87503000D02*
X151993000Y-86007000D01*
X145669000Y-81153000D02*
X147193000Y-82677000D01*
D82*
X147268500Y-83387500D02*
X147193000Y-83312000D01*
X144268500Y-85281500D02*
X144475988Y-85488988D01*
D80*
X151993000Y-97244000D02*
X151447000Y-97790000D01*
D82*
X143631000Y-85281500D02*
X144268500Y-85281500D01*
D80*
%TO.N,Net-(U11-VIN)*%
X93741500Y-63587000D02*
X95416000Y-63587000D01*
X95885000Y-63741000D02*
X97331000Y-63741000D01*
X104227000Y-68707000D02*
X105577000Y-68707000D01*
X104227000Y-68707000D02*
X99218000Y-68707000D01*
X97409000Y-63819000D02*
X98425000Y-64835000D01*
X99218000Y-68707000D02*
X98250000Y-69675000D01*
X98425000Y-64835000D02*
X98425000Y-67914000D01*
X93620500Y-70674000D02*
X94205500Y-70089000D01*
X94205500Y-70089000D02*
X96247000Y-70089000D01*
X93512500Y-63816000D02*
X93741500Y-63587000D01*
X96247000Y-70089000D02*
X98226000Y-70089000D01*
X98250000Y-69675000D02*
X98250000Y-70113000D01*
X98425000Y-67914000D02*
X99218000Y-68707000D01*
%TO.N,Net-(U12-VIN)*%
X138775000Y-68215999D02*
X140125000Y-68215999D01*
X131077000Y-68707000D02*
X131077000Y-69600499D01*
X131127000Y-62103000D02*
X131445000Y-62421000D01*
X138775000Y-68215999D02*
X133223000Y-68215999D01*
X131077000Y-68707000D02*
X132350999Y-68707000D01*
X129807000Y-62103000D02*
X131127000Y-62103000D01*
X131077000Y-69600499D02*
X130122500Y-70554999D01*
X131445000Y-62421000D02*
X132842000Y-63818000D01*
X132842000Y-63818000D02*
X132842000Y-68215999D01*
X128954500Y-62955500D02*
X129807000Y-62103000D01*
X132350999Y-68707000D02*
X132842000Y-68215999D01*
X133223000Y-70295000D02*
X133223000Y-68215999D01*
X133223000Y-68215999D02*
X132842000Y-68215999D01*
X128954500Y-63944999D02*
X128954500Y-62955500D01*
%TO.N,Net-(U14-SS)*%
X105152000Y-70163800D02*
X105803400Y-70815200D01*
X105152000Y-69532000D02*
X105152000Y-70163800D01*
%TO.N,Net-(U15-SS)*%
X139700000Y-69040999D02*
X139700000Y-69863000D01*
X139700000Y-69863000D02*
X140195000Y-70358000D01*
%TO.N,Net-(U14-OV1)*%
X104702000Y-64398000D02*
X104702000Y-65842002D01*
X104652000Y-65973002D02*
X104652000Y-67232002D01*
%TO.N,Net-(U14-PR1)*%
X101346000Y-67183000D02*
X104102997Y-67183000D01*
X101473000Y-64007000D02*
X100204000Y-64007000D01*
X104102997Y-67183000D02*
X104151999Y-67232002D01*
X100191000Y-67132062D02*
X101295062Y-67132062D01*
X100204000Y-64007000D02*
X100203000Y-64008000D01*
%TO.N,Net-(U14-ILM)*%
X104652000Y-69532000D02*
X104652000Y-70544000D01*
X104652000Y-70544000D02*
X104330000Y-70866000D01*
%TO.N,Net-(U14-OV2)*%
X106236000Y-64181996D02*
X105511000Y-64906996D01*
X106299000Y-62357000D02*
X106299000Y-63818000D01*
X105511000Y-64906996D02*
X105511000Y-66323004D01*
X105511000Y-66323004D02*
X105152000Y-66682004D01*
X105152000Y-66682004D02*
X105152000Y-67232002D01*
%TO.N,Net-(U14-CP2)*%
X105931001Y-66929000D02*
X105677001Y-67183000D01*
X106236000Y-66624001D02*
X105931001Y-66929000D01*
X107059000Y-66929000D02*
X105931001Y-66929000D01*
X106236000Y-65405000D02*
X106236000Y-66624001D01*
X105677001Y-67183000D02*
X105677001Y-67232002D01*
%TO.N,Net-(U15-OV1)*%
X138303000Y-64723999D02*
X139001000Y-65421999D01*
X139200000Y-65620999D02*
X139200000Y-66741001D01*
X138303000Y-63944000D02*
X138303000Y-64723999D01*
%TO.N,Net-(U15-PR1)*%
X135763000Y-66738000D02*
X134546000Y-66738000D01*
X138696998Y-66738000D02*
X138699999Y-66741001D01*
X134620000Y-63881000D02*
X136080000Y-63881000D01*
X134546000Y-66738000D02*
X134493000Y-66791000D01*
X135763000Y-66738000D02*
X138696998Y-66738000D01*
%TO.N,Net-(U15-ILM)*%
X139200000Y-69040999D02*
X139200000Y-69921999D01*
X139200000Y-69921999D02*
X138747000Y-70374999D01*
%TO.N,Net-(U15-OV2)*%
X140335000Y-63354000D02*
X139808000Y-63881000D01*
X139808000Y-63881000D02*
X139808000Y-66083002D01*
X140335000Y-62293000D02*
X140335000Y-63354000D01*
X139808000Y-66083002D02*
X139700000Y-66191002D01*
X139700000Y-66191002D02*
X139700000Y-66741001D01*
%TO.N,Net-(U15-CP2)*%
X140200001Y-66741001D02*
X141417001Y-66741001D01*
X140589000Y-65405000D02*
X140589000Y-66352002D01*
X140589000Y-66352002D02*
X140200001Y-66741001D01*
X141417001Y-66741001D02*
X141732000Y-67056000D01*
%TO.N,/V_BCKP*%
X71625000Y-107442000D02*
X72300000Y-107442000D01*
X75041000Y-105590000D02*
X75930000Y-106479000D01*
X72300000Y-107442000D02*
X74152000Y-105590000D01*
X75930000Y-111164462D02*
X75930000Y-106479000D01*
X77457538Y-112692000D02*
X75930000Y-111164462D01*
X74152000Y-105590000D02*
X75041000Y-105590000D01*
D82*
%TO.N,Net-(U7-VREG_VOUT)*%
X147073525Y-85181500D02*
X148747500Y-85181500D01*
X146868500Y-84444000D02*
X146868500Y-84976475D01*
X148747500Y-85181500D02*
X148868500Y-85060500D01*
X149349500Y-85783500D02*
X148747500Y-85181500D01*
X147668500Y-90451500D02*
X148684500Y-90451500D01*
X149349500Y-89786500D02*
X149349500Y-85783500D01*
X150863000Y-81153000D02*
X150863000Y-79502000D01*
X148868500Y-84444000D02*
X148868500Y-83288140D01*
X148868500Y-83288140D02*
X150863000Y-81293640D01*
X147668500Y-91319000D02*
X147668500Y-90451500D01*
X146868500Y-84976475D02*
X147073525Y-85181500D01*
X148684500Y-90451500D02*
X149349500Y-89786500D01*
X148868500Y-85060500D02*
X148868500Y-84444000D01*
D80*
X150863000Y-77851000D02*
X150863000Y-79502000D01*
D82*
%TO.N,/STEP*%
X126800000Y-84047000D02*
X116980500Y-84047000D01*
D80*
X123444000Y-104902000D02*
X126746000Y-101600000D01*
X119253000Y-104902000D02*
X123444000Y-104902000D01*
D82*
X126800000Y-91000000D02*
X126800000Y-84047000D01*
%TO.N,/DIR*%
X127600000Y-83912000D02*
X127335000Y-83647000D01*
X127600000Y-90000000D02*
X127600000Y-83912000D01*
D80*
X124333000Y-105918000D02*
X127635000Y-102616000D01*
X119253000Y-105918000D02*
X124333000Y-105918000D01*
D82*
X127335000Y-83647000D02*
X116980500Y-83647000D01*
D80*
%TO.N,+5V_R*%
X125730000Y-69469000D02*
X126161501Y-69469000D01*
X126161501Y-69469000D02*
X127247500Y-70554999D01*
X126429000Y-68770000D02*
X125730000Y-69469000D01*
X174575400Y-90755400D02*
X174575400Y-107364600D01*
X127247500Y-71054999D02*
X127247500Y-70554999D01*
X124587000Y-71120000D02*
X124587000Y-70612000D01*
X126429000Y-67310000D02*
X126429000Y-68770000D01*
X124587000Y-70612000D02*
X125730000Y-69469000D01*
X174575400Y-107364600D02*
X173228000Y-108712000D01*
X173380400Y-89560400D02*
X174575400Y-90755400D01*
X121285000Y-71120000D02*
X124587000Y-71120000D01*
D81*
%TO.N,Net-(LM1084-ADJ1-VO)*%
X156616400Y-65532000D02*
X156616400Y-68986400D01*
X156616400Y-68986400D02*
X161163000Y-73533000D01*
X164084000Y-67939000D02*
X160864200Y-64719200D01*
X157429200Y-64719200D02*
X156616400Y-65532000D01*
X160864200Y-64719200D02*
X157429200Y-64719200D01*
X161163000Y-74422000D02*
X161163000Y-83572000D01*
%TO.N,Net-(J11-Pin_2)*%
X166243000Y-76962000D02*
X163703000Y-74422000D01*
X174740000Y-76962000D02*
X166243000Y-76962000D01*
X159004000Y-67939000D02*
X163703000Y-72638000D01*
%TO.N,Net-(J11-Pin_1)*%
X174000000Y-73682000D02*
X174000000Y-61412000D01*
X174740000Y-74422000D02*
X174000000Y-73682000D01*
%TO.N,Net-(JP2-B)*%
X170954000Y-65278000D02*
X170954000Y-67664000D01*
D82*
%TO.N,/SPI0_POCI_R*%
X144468500Y-91319000D02*
X140900000Y-94887500D01*
X140900000Y-94887500D02*
X140900000Y-103400000D01*
X158289950Y-105700000D02*
X164500000Y-99489950D01*
X140900000Y-103400000D02*
X143200000Y-105700000D01*
X143200000Y-105700000D02*
X158289950Y-105700000D01*
X164500000Y-99489950D02*
X164500000Y-97250000D01*
%TO.N,/SPI0_SCK_R*%
X145268500Y-92194794D02*
X144710000Y-92753295D01*
X161500000Y-101000000D02*
X162300000Y-100200000D01*
X145268500Y-91319000D02*
X145268500Y-92194794D01*
X141700000Y-103015686D02*
X143584315Y-104900000D01*
X144710000Y-92753295D02*
X144710000Y-92921364D01*
X156350000Y-104900000D02*
X160250000Y-101000000D01*
X160250000Y-101000000D02*
X161500000Y-101000000D01*
X144710000Y-92921364D02*
X141700000Y-95931365D01*
X143584315Y-104900000D02*
X156350000Y-104900000D01*
X162300000Y-100200000D02*
X162300000Y-97250000D01*
X141700000Y-95931365D02*
X141700000Y-103015686D01*
%TO.N,/SPI0_PICO_R*%
X145668500Y-91319000D02*
X145668500Y-92360480D01*
X143750000Y-104500000D02*
X155000000Y-104500000D01*
X142100000Y-102850000D02*
X143750000Y-104500000D01*
X155000000Y-104500000D02*
X160100000Y-99400000D01*
X145668500Y-92360480D02*
X145110000Y-92918980D01*
X145110000Y-92918980D02*
X145110000Y-93087050D01*
X160100000Y-99400000D02*
X160100000Y-97250000D01*
X142100000Y-96097050D02*
X142100000Y-102850000D01*
X145110000Y-93087050D02*
X142100000Y-96097050D01*
%TO.N,/SPI0_CS_SD_R*%
X141300000Y-95421360D02*
X141300000Y-103181372D01*
X144868500Y-91319000D02*
X144868500Y-91852860D01*
X144868500Y-91852860D02*
X141300000Y-95421360D01*
X157700000Y-105300000D02*
X160750000Y-102250000D01*
X143418630Y-105300000D02*
X157700000Y-105300000D01*
X141300000Y-103181372D02*
X143418630Y-105300000D01*
X159000000Y-99250000D02*
X159000000Y-97250000D01*
%TD*%
%TA.AperFunction,Conductor*%
%TO.N,GND*%
G36*
X70985648Y-106533152D02*
G01*
X71000000Y-106567800D01*
X71000000Y-107028035D01*
X70994660Y-107050279D01*
X70990282Y-107058871D01*
X70990281Y-107058872D01*
X70990281Y-107058874D01*
X70974500Y-107158512D01*
X70974500Y-107725488D01*
X70990281Y-107825126D01*
X70994659Y-107833719D01*
X71000000Y-107855964D01*
X71000000Y-108499999D01*
X71000000Y-108500000D01*
X75554974Y-108451021D01*
X75589774Y-108464999D01*
X75604497Y-108499491D01*
X75604500Y-108500018D01*
X75604500Y-111207318D01*
X75626681Y-111290099D01*
X75626682Y-111290102D01*
X75669535Y-111364324D01*
X76885148Y-112579937D01*
X76899500Y-112614585D01*
X76899500Y-112923517D01*
X76914353Y-113017303D01*
X76971945Y-113130335D01*
X76971950Y-113130342D01*
X76986848Y-113145240D01*
X77001197Y-113179388D01*
X77002451Y-113302355D01*
X76988454Y-113337148D01*
X76988105Y-113337500D01*
X76971952Y-113353654D01*
X76971948Y-113353661D01*
X76914355Y-113466692D01*
X76899500Y-113560482D01*
X76899500Y-114023517D01*
X76914353Y-114117303D01*
X76971945Y-114230335D01*
X76971950Y-114230342D01*
X76998188Y-114256580D01*
X77012537Y-114290728D01*
X77013562Y-114391244D01*
X76999565Y-114426037D01*
X76999215Y-114426390D01*
X76971951Y-114453656D01*
X76971945Y-114453664D01*
X76914355Y-114566690D01*
X76914355Y-114566692D01*
X76899500Y-114660482D01*
X76899500Y-115123517D01*
X76914353Y-115217303D01*
X76971945Y-115330335D01*
X76971950Y-115330342D01*
X77009528Y-115367920D01*
X77023877Y-115402068D01*
X77024674Y-115480133D01*
X77010677Y-115514926D01*
X77010326Y-115515280D01*
X76971951Y-115553656D01*
X76971945Y-115553664D01*
X76914355Y-115666690D01*
X76914355Y-115666692D01*
X76899500Y-115760482D01*
X76899500Y-116223517D01*
X76914353Y-116317303D01*
X76971945Y-116430335D01*
X76971950Y-116430342D01*
X77020869Y-116479261D01*
X77035218Y-116513409D01*
X77035785Y-116569021D01*
X77021788Y-116603814D01*
X77021437Y-116604168D01*
X76971951Y-116653656D01*
X76971945Y-116653664D01*
X76914355Y-116766690D01*
X76914355Y-116766692D01*
X76899500Y-116860482D01*
X76899500Y-117323517D01*
X76914353Y-117417303D01*
X76971945Y-117530335D01*
X76971950Y-117530342D01*
X77061657Y-117620049D01*
X77061664Y-117620054D01*
X77174691Y-117677644D01*
X77174692Y-117677644D01*
X77174696Y-117677646D01*
X77268481Y-117692500D01*
X78731518Y-117692499D01*
X78825304Y-117677646D01*
X78862327Y-117658782D01*
X78904355Y-117637368D01*
X78941742Y-117634425D01*
X78970259Y-117658782D01*
X78975600Y-117681027D01*
X78975600Y-118915800D01*
X78961248Y-118950448D01*
X78926600Y-118964800D01*
X69778639Y-118964800D01*
X69743991Y-118950448D01*
X69729640Y-118916163D01*
X69712253Y-116569021D01*
X69679200Y-112106800D01*
X69679199Y-112106800D01*
X69679199Y-112106799D01*
X69351098Y-112113020D01*
X69327924Y-112107689D01*
X69325306Y-112106355D01*
X69325305Y-112106354D01*
X69325304Y-112106354D01*
X69231519Y-112091500D01*
X69231517Y-112091500D01*
X67768482Y-112091500D01*
X67674698Y-112106353D01*
X67606355Y-112141175D01*
X67585039Y-112146506D01*
X67049929Y-112156653D01*
X67015015Y-112142961D01*
X67000009Y-112108591D01*
X67000000Y-112107662D01*
X67000000Y-110916500D01*
X67014352Y-110881852D01*
X67049000Y-110867500D01*
X67409903Y-110867500D01*
X67444551Y-110881852D01*
X67453562Y-110894254D01*
X67471950Y-110930342D01*
X67471953Y-110930345D01*
X67561657Y-111020049D01*
X67561664Y-111020054D01*
X67674691Y-111077644D01*
X67674692Y-111077644D01*
X67674696Y-111077646D01*
X67768481Y-111092500D01*
X69231518Y-111092499D01*
X69325304Y-111077646D01*
X69395263Y-111042000D01*
X69438335Y-111020054D01*
X69438337Y-111020052D01*
X69438342Y-111020050D01*
X69528050Y-110930342D01*
X69560070Y-110867500D01*
X69585644Y-110817309D01*
X69585644Y-110817307D01*
X69585646Y-110817304D01*
X69600500Y-110723519D01*
X69600499Y-110260482D01*
X69585646Y-110166696D01*
X69558848Y-110114102D01*
X69528054Y-110053664D01*
X69528049Y-110053657D01*
X69438342Y-109963950D01*
X69438335Y-109963945D01*
X69325308Y-109906355D01*
X69325305Y-109906354D01*
X69325304Y-109906354D01*
X69231519Y-109891500D01*
X69231517Y-109891500D01*
X67768482Y-109891500D01*
X67674696Y-109906353D01*
X67561664Y-109963945D01*
X67561657Y-109963950D01*
X67471953Y-110053654D01*
X67471948Y-110053660D01*
X67453562Y-110089746D01*
X67425044Y-110114102D01*
X67409903Y-110116500D01*
X67049000Y-110116500D01*
X67014352Y-110102148D01*
X67000000Y-110067500D01*
X67000000Y-108273939D01*
X67014352Y-108239291D01*
X67018885Y-108235286D01*
X67545326Y-107825127D01*
X68400927Y-107158513D01*
X69208720Y-106529147D01*
X69238835Y-106518800D01*
X70951000Y-106518800D01*
X70985648Y-106533152D01*
G37*
%TD.AperFunction*%
%TD*%
M02*
