%TF.GenerationSoftware,KiCad,Pcbnew,8.0.0*%
%TF.CreationDate,2024-04-26T20:32:01-04:00*%
%TF.ProjectId,Main board,4d61696e-2062-46f6-9172-642e6b696361,rev?*%
%TF.SameCoordinates,Original*%
%TF.FileFunction,Plated,1,4,PTH,Mixed*%
%TF.FilePolarity,Positive*%
%FSLAX46Y46*%
G04 Gerber Fmt 4.6, Leading zero omitted, Abs format (unit mm)*
G04 Created by KiCad (PCBNEW 8.0.0) date 2024-04-26 20:32:01*
%MOMM*%
%LPD*%
G01*
G04 APERTURE LIST*
%TA.AperFunction,ComponentDrill*%
%ADD10C,0.350000*%
%TD*%
%TA.AperFunction,ViaDrill*%
%ADD11C,0.400000*%
%TD*%
G04 aperture for slot hole*
%TA.AperFunction,ComponentDrill*%
%ADD12C,0.600000*%
%TD*%
%TA.AperFunction,ComponentDrill*%
%ADD13C,1.000000*%
%TD*%
%TA.AperFunction,ComponentDrill*%
%ADD14C,1.090000*%
%TD*%
G04 APERTURE END LIST*
D10*
%TO.C,U1*%
X112268000Y-84572000D03*
X112268000Y-85847000D03*
X112268000Y-87122000D03*
X113543000Y-84572000D03*
X113543000Y-85847000D03*
X113543000Y-87122000D03*
X114818000Y-84572000D03*
X114818000Y-85847000D03*
X114818000Y-87122000D03*
%TO.C,U7*%
X145793500Y-86606500D03*
X145793500Y-87881500D03*
X145793500Y-89156500D03*
X147068500Y-86606500D03*
X147068500Y-87881500D03*
X147068500Y-89156500D03*
X148343500Y-86606500D03*
X148343500Y-87881500D03*
X148343500Y-89156500D03*
%TD*%
D11*
X60432500Y-76235500D03*
X65560000Y-90920000D03*
X65699000Y-99416000D03*
X67250000Y-102250000D03*
X68250000Y-107735462D03*
X68437000Y-104140000D03*
X68750000Y-91750000D03*
X70250000Y-111500000D03*
X70250000Y-118250000D03*
X73591500Y-55908500D03*
X76500000Y-118250000D03*
X79866000Y-100990000D03*
X82661000Y-104941462D03*
X85250000Y-101000000D03*
X85250000Y-103500000D03*
X85852000Y-81153000D03*
X85908500Y-55908500D03*
X86280443Y-96065829D03*
X86792892Y-95207108D03*
X87500000Y-94500000D03*
X88011000Y-63881000D03*
X88500000Y-81250000D03*
X88500000Y-101500000D03*
X89500000Y-97000000D03*
X89500000Y-103250000D03*
X90250000Y-110750000D03*
X90678000Y-80288000D03*
X90750000Y-98250000D03*
X90750000Y-105000000D03*
X91233470Y-88424044D03*
X91500000Y-93750000D03*
X91600000Y-85000000D03*
X91731000Y-77535000D03*
X91800000Y-87600000D03*
X92075000Y-76011000D03*
X92456000Y-82169000D03*
X93069347Y-89180653D03*
X93599000Y-62026000D03*
X93707000Y-68630000D03*
X93980000Y-82487500D03*
X94175000Y-88118000D03*
X94272527Y-79041617D03*
X94615000Y-64312000D03*
X94615000Y-65311503D03*
X94723000Y-71170000D03*
X94723000Y-72169503D03*
X96527000Y-92527000D03*
X97028000Y-76011000D03*
X97409000Y-66548000D03*
X97790000Y-77724000D03*
X98171000Y-72898000D03*
X99187000Y-81088500D03*
X99822000Y-77851000D03*
X100191000Y-67132062D03*
X100203000Y-64008000D03*
X100358870Y-101000000D03*
X100750000Y-110250000D03*
X102362000Y-87947000D03*
X102743000Y-69596000D03*
X103886000Y-86360000D03*
X105283000Y-80899000D03*
X105800000Y-100500000D03*
X106553000Y-78421000D03*
X106553000Y-85347500D03*
X106807000Y-91567000D03*
X107315000Y-69469000D03*
X107569000Y-84947500D03*
X107823000Y-87946500D03*
X108125967Y-91076227D03*
X108204000Y-59982000D03*
X108204000Y-61722000D03*
X108623883Y-82400783D03*
X109867000Y-66675000D03*
X110189000Y-72470000D03*
X111209000Y-98806000D03*
X111609000Y-93218000D03*
X111679250Y-91746500D03*
X112264000Y-62608000D03*
X112395000Y-70612000D03*
X112776000Y-102616000D03*
X113093500Y-106870500D03*
X113157000Y-109093000D03*
X113843000Y-80137000D03*
X113843000Y-97536000D03*
X114681000Y-63881000D03*
X116459000Y-81280000D03*
X116963000Y-62608000D03*
X117221000Y-68072000D03*
X118237000Y-98933000D03*
X118491000Y-93599000D03*
X119253000Y-104902000D03*
X119253000Y-105918000D03*
X120750000Y-88463500D03*
X121031000Y-79883000D03*
X121386040Y-87448046D03*
X121539000Y-102743000D03*
X121539000Y-114173000D03*
X122000000Y-90500000D03*
X122322587Y-87098926D03*
X123190000Y-86487000D03*
X123698000Y-100457000D03*
X124118015Y-86115795D03*
X124587000Y-71120000D03*
X124989164Y-85625791D03*
X126746000Y-101600000D03*
X126800000Y-91000000D03*
X127600000Y-90000000D03*
X127635000Y-102616000D03*
X128132018Y-69080133D03*
X128651000Y-60960000D03*
X130045000Y-64352999D03*
X130175000Y-66929000D03*
X130429000Y-81026000D03*
X130429000Y-82550000D03*
X131318000Y-70739000D03*
X132000000Y-93750000D03*
X133855500Y-83939500D03*
X134493000Y-66791000D03*
X134620000Y-63881000D03*
X134635701Y-81026000D03*
X134686698Y-82296000D03*
X134992661Y-84823634D03*
X134998500Y-76065500D03*
X135760500Y-85463500D03*
X135971000Y-89524500D03*
X136643661Y-86220634D03*
X137411500Y-86860500D03*
X138300500Y-87622500D03*
X139065000Y-84012843D03*
X139490000Y-71517999D03*
X139930378Y-87982378D03*
X140078500Y-76319500D03*
X141094500Y-89146500D03*
X141732000Y-59918000D03*
X141750000Y-92250000D03*
X141983500Y-89654500D03*
X142110500Y-90797500D03*
X142494000Y-61722000D03*
X143637000Y-66040000D03*
X144145000Y-76573500D03*
X144777500Y-90162500D03*
X144899500Y-102261000D03*
X144907000Y-95377000D03*
X145210000Y-93977000D03*
X145669000Y-77597000D03*
X145840000Y-67580999D03*
X145967000Y-62627999D03*
X147193000Y-83312000D03*
X148380000Y-63770999D03*
X148984025Y-94855975D03*
X149055000Y-93218000D03*
X150793000Y-62627999D03*
X151993000Y-95123000D03*
X153000000Y-76600000D03*
X153100000Y-103800000D03*
X154635200Y-74117200D03*
X155956000Y-91948000D03*
X159000000Y-99250000D03*
X160750000Y-102250000D03*
X161250000Y-99250000D03*
X168351200Y-118211600D03*
X170942000Y-70358000D03*
X171272200Y-115417600D03*
X172669200Y-115469200D03*
X175514000Y-67056000D03*
X175971200Y-118211600D03*
D12*
%TO.C,J2*%
X110361000Y-56056000D02*
X110361000Y-56856000D01*
X110361000Y-60086000D02*
X110361000Y-61186000D01*
X119001000Y-56056000D02*
X119001000Y-56856000D01*
X119001000Y-60086000D02*
X119001000Y-61186000D01*
%TO.C,J12*%
X144048000Y-55948999D02*
X144048000Y-56748999D01*
X144048000Y-59978999D02*
X144048000Y-61078999D01*
X152688000Y-55948999D02*
X152688000Y-56748999D01*
X152688000Y-59978999D02*
X152688000Y-61078999D01*
D13*
%TO.C,TP6*%
X59035500Y-68107500D03*
%TO.C,TP5*%
X87884000Y-61087000D03*
%TO.C,TP9*%
X100330000Y-87082000D03*
%TO.C,TP10*%
X101092000Y-83653000D03*
%TO.C,TP2*%
X111125000Y-68453000D03*
%TO.C,TP1*%
X120650000Y-64516000D03*
%TO.C,TP7*%
X121285000Y-71120000D03*
%TO.C,TP8*%
X128905000Y-58166000D03*
%TO.C,TP4*%
X144399000Y-70485000D03*
%TO.C,TP3*%
X153416000Y-66802000D03*
D14*
%TO.C,J6*%
X61750000Y-93460000D03*
X61750000Y-96000000D03*
%TO.C,J7*%
X61750000Y-102210000D03*
X61750000Y-104750000D03*
%TO.C,J18*%
X84210000Y-114500000D03*
X86750000Y-114500000D03*
X89290000Y-114500000D03*
%TO.C,J15*%
X96420000Y-114750000D03*
%TO.C,J14*%
X98933000Y-58547000D03*
%TO.C,J15*%
X98960000Y-114750000D03*
%TO.C,J14*%
X101473000Y-58547000D03*
%TO.C,J15*%
X101500000Y-114750000D03*
X104040000Y-114750000D03*
%TO.C,J13*%
X110710000Y-114750000D03*
X113250000Y-114750000D03*
%TO.C,J3*%
X128651000Y-114173000D03*
X131191000Y-114173000D03*
%TO.C,J16*%
X133719500Y-58293000D03*
%TO.C,J3*%
X133731000Y-114173000D03*
%TO.C,J16*%
X136259500Y-58293000D03*
%TO.C,J3*%
X136271000Y-114173000D03*
%TO.C,J4*%
X142748000Y-114185000D03*
X145288000Y-114185000D03*
X147828000Y-114185000D03*
X150368000Y-114185000D03*
%TO.C,J5*%
X156845000Y-114185000D03*
X159385000Y-114185000D03*
X161925000Y-114185000D03*
X164465000Y-114185000D03*
%TO.C,J10*%
X173228000Y-103632000D03*
X173228000Y-106172000D03*
X173228000Y-108712000D03*
%TO.C,J17*%
X173380400Y-89560400D03*
X173380400Y-92100400D03*
X173380400Y-94640400D03*
X173380400Y-97180400D03*
%TO.C,J11*%
X174740000Y-74422000D03*
X174740000Y-76962000D03*
M02*
