%TF.GenerationSoftware,KiCad,Pcbnew,8.0.0*%
%TF.CreationDate,2024-04-26T21:37:08-04:00*%
%TF.ProjectId,Main board,4d61696e-2062-46f6-9172-642e6b696361,rev?*%
%TF.SameCoordinates,Original*%
%TF.FileFunction,Soldermask,Bot*%
%TF.FilePolarity,Negative*%
%FSLAX46Y46*%
G04 Gerber Fmt 4.6, Leading zero omitted, Abs format (unit mm)*
G04 Created by KiCad (PCBNEW 8.0.0) date 2024-04-26 21:37:08*
%MOMM*%
%LPD*%
G01*
G04 APERTURE LIST*
G04 Aperture macros list*
%AMRoundRect*
0 Rectangle with rounded corners*
0 $1 Rounding radius*
0 $2 $3 $4 $5 $6 $7 $8 $9 X,Y pos of 4 corners*
0 Add a 4 corners polygon primitive as box body*
4,1,4,$2,$3,$4,$5,$6,$7,$8,$9,$2,$3,0*
0 Add four circle primitives for the rounded corners*
1,1,$1+$1,$2,$3*
1,1,$1+$1,$4,$5*
1,1,$1+$1,$6,$7*
1,1,$1+$1,$8,$9*
0 Add four rect primitives between the rounded corners*
20,1,$1+$1,$2,$3,$4,$5,0*
20,1,$1+$1,$4,$5,$6,$7,0*
20,1,$1+$1,$6,$7,$8,$9,0*
20,1,$1+$1,$8,$9,$2,$3,0*%
G04 Aperture macros list end*
%ADD10C,2.000000*%
%ADD11RoundRect,0.250000X-0.620000X-0.620000X0.620000X-0.620000X0.620000X0.620000X-0.620000X0.620000X0*%
%ADD12C,1.740000*%
%ADD13C,3.200000*%
%ADD14RoundRect,0.250000X0.620000X0.620000X-0.620000X0.620000X-0.620000X-0.620000X0.620000X-0.620000X0*%
%ADD15C,0.700000*%
%ADD16C,0.500000*%
%ADD17O,0.800000X1.500000*%
%ADD18C,0.650000*%
%ADD19O,1.000000X2.100000*%
%ADD20O,1.000000X1.800000*%
%ADD21RoundRect,0.250000X-0.620000X0.620000X-0.620000X-0.620000X0.620000X-0.620000X0.620000X0.620000X0*%
%ADD22R,1.500000X5.080000*%
%ADD23RoundRect,0.250000X0.620000X-0.620000X0.620000X0.620000X-0.620000X0.620000X-0.620000X-0.620000X0*%
G04 APERTURE END LIST*
D10*
%TO.C,TP5*%
X87884000Y-61087000D03*
%TD*%
D11*
%TO.C,J18*%
X84210000Y-114500000D03*
D12*
X86750000Y-114500000D03*
X89290000Y-114500000D03*
%TD*%
D13*
%TO.C,REF\u002A\u002A*%
X123698000Y-57000000D03*
X123698000Y-57000000D03*
%TD*%
D14*
%TO.C,J16*%
X136259500Y-58293000D03*
D12*
X133719500Y-58293000D03*
%TD*%
D11*
%TO.C,J5*%
X156845000Y-114185000D03*
D12*
X159385000Y-114185000D03*
X161925000Y-114185000D03*
X164465000Y-114185000D03*
%TD*%
D13*
%TO.C,REF\u002A\u002A*%
X92000000Y-57000000D03*
X92000000Y-57000000D03*
%TD*%
D15*
%TO.C,J1*%
X117348000Y-116967000D03*
D16*
X118618000Y-116967000D03*
X119888000Y-116967000D03*
X121158000Y-116967000D03*
D15*
X122428000Y-116967000D03*
D17*
X117983000Y-118122000D03*
X119253000Y-118122000D03*
X120523000Y-118122000D03*
X121793000Y-118122000D03*
%TD*%
D18*
%TO.C,J12*%
X151258000Y-60028999D03*
X145478000Y-60028999D03*
D19*
X152688000Y-60528999D03*
D20*
X152688000Y-56348999D03*
D19*
X144048000Y-60528999D03*
D20*
X144048000Y-56348999D03*
%TD*%
D10*
%TO.C,TP2*%
X111125000Y-68453000D03*
%TD*%
D21*
%TO.C,J6*%
X61750000Y-93460000D03*
D12*
X61750000Y-96000000D03*
%TD*%
D10*
%TO.C,TP8*%
X128905000Y-58166000D03*
%TD*%
%TO.C,TP7*%
X121285000Y-71120000D03*
%TD*%
%TO.C,TP1*%
X120650000Y-64516000D03*
%TD*%
D13*
%TO.C,REF\u002A\u002A*%
X131000000Y-105000000D03*
X131000000Y-105000000D03*
%TD*%
D10*
%TO.C,TP6*%
X59035500Y-68107500D03*
%TD*%
D14*
%TO.C,J14*%
X101473000Y-58547000D03*
D12*
X98933000Y-58547000D03*
%TD*%
D22*
%TO.C,J8*%
X75633000Y-55908500D03*
X84133000Y-55908500D03*
%TD*%
D10*
%TO.C,TP4*%
X144399000Y-70485000D03*
%TD*%
D15*
%TO.C,J9*%
X169494200Y-117056600D03*
D16*
X170764200Y-117056600D03*
X172034200Y-117056600D03*
X173304200Y-117056600D03*
D15*
X174574200Y-117056600D03*
D17*
X170129200Y-118211600D03*
X171399200Y-118211600D03*
X172669200Y-118211600D03*
X173939200Y-118211600D03*
%TD*%
D13*
%TO.C,REF\u002A\u002A*%
X70000000Y-97000000D03*
X70000000Y-97000000D03*
%TD*%
D10*
%TO.C,TP9*%
X100330000Y-87082000D03*
%TD*%
D18*
%TO.C,J2*%
X117571000Y-60136000D03*
X111791000Y-60136000D03*
D19*
X119001000Y-60636000D03*
D20*
X119001000Y-56456000D03*
D19*
X110361000Y-60636000D03*
D20*
X110361000Y-56456000D03*
%TD*%
D23*
%TO.C,J10*%
X173228000Y-108712000D03*
D12*
X173228000Y-106172000D03*
X173228000Y-103632000D03*
%TD*%
D21*
%TO.C,J11*%
X174740000Y-74422000D03*
D12*
X174740000Y-76962000D03*
%TD*%
D10*
%TO.C,TP10*%
X101092000Y-83653000D03*
%TD*%
D11*
%TO.C,J15*%
X96420000Y-114750000D03*
D12*
X98960000Y-114750000D03*
X101500000Y-114750000D03*
X104040000Y-114750000D03*
%TD*%
D21*
%TO.C,J7*%
X61750000Y-102210000D03*
D12*
X61750000Y-104750000D03*
%TD*%
D11*
%TO.C,J13*%
X110710000Y-114750000D03*
D12*
X113250000Y-114750000D03*
%TD*%
D13*
%TO.C,REF\u002A\u002A*%
X174000000Y-83000000D03*
X174000000Y-83000000D03*
%TD*%
D11*
%TO.C,J4*%
X142748000Y-114185000D03*
D12*
X145288000Y-114185000D03*
X147828000Y-114185000D03*
X150368000Y-114185000D03*
%TD*%
D23*
%TO.C,J17*%
X173380400Y-97180400D03*
D12*
X173380400Y-94640400D03*
X173380400Y-92100400D03*
X173380400Y-89560400D03*
%TD*%
D11*
%TO.C,J3*%
X128651000Y-114173000D03*
D12*
X131191000Y-114173000D03*
X133731000Y-114173000D03*
X136271000Y-114173000D03*
%TD*%
D10*
%TO.C,TP3*%
X153416000Y-66802000D03*
%TD*%
M02*
