%TF.GenerationSoftware,KiCad,Pcbnew,8.0.0*%
%TF.CreationDate,2024-04-26T21:37:07-04:00*%
%TF.ProjectId,Main board,4d61696e-2062-46f6-9172-642e6b696361,rev?*%
%TF.SameCoordinates,Original*%
%TF.FileFunction,Copper,L4,Bot*%
%TF.FilePolarity,Positive*%
%FSLAX46Y46*%
G04 Gerber Fmt 4.6, Leading zero omitted, Abs format (unit mm)*
G04 Created by KiCad (PCBNEW 8.0.0) date 2024-04-26 21:37:07*
%MOMM*%
%LPD*%
G01*
G04 APERTURE LIST*
G04 Aperture macros list*
%AMRoundRect*
0 Rectangle with rounded corners*
0 $1 Rounding radius*
0 $2 $3 $4 $5 $6 $7 $8 $9 X,Y pos of 4 corners*
0 Add a 4 corners polygon primitive as box body*
4,1,4,$2,$3,$4,$5,$6,$7,$8,$9,$2,$3,0*
0 Add four circle primitives for the rounded corners*
1,1,$1+$1,$2,$3*
1,1,$1+$1,$4,$5*
1,1,$1+$1,$6,$7*
1,1,$1+$1,$8,$9*
0 Add four rect primitives between the rounded corners*
20,1,$1+$1,$2,$3,$4,$5,0*
20,1,$1+$1,$4,$5,$6,$7,0*
20,1,$1+$1,$6,$7,$8,$9,0*
20,1,$1+$1,$8,$9,$2,$3,0*%
G04 Aperture macros list end*
%TA.AperFunction,ComponentPad*%
%ADD10C,0.600000*%
%TD*%
%TA.AperFunction,ComponentPad*%
%ADD11C,2.000000*%
%TD*%
%TA.AperFunction,ComponentPad*%
%ADD12RoundRect,0.250000X-0.620000X-0.620000X0.620000X-0.620000X0.620000X0.620000X-0.620000X0.620000X0*%
%TD*%
%TA.AperFunction,ComponentPad*%
%ADD13C,1.740000*%
%TD*%
%TA.AperFunction,ComponentPad*%
%ADD14RoundRect,0.250000X0.620000X0.620000X-0.620000X0.620000X-0.620000X-0.620000X0.620000X-0.620000X0*%
%TD*%
%TA.AperFunction,SMDPad,CuDef*%
%ADD15O,0.800000X1.500000*%
%TD*%
%TA.AperFunction,ComponentPad*%
%ADD16O,1.000000X2.100000*%
%TD*%
%TA.AperFunction,ComponentPad*%
%ADD17O,1.000000X1.800000*%
%TD*%
%TA.AperFunction,ComponentPad*%
%ADD18RoundRect,0.250000X-0.620000X0.620000X-0.620000X-0.620000X0.620000X-0.620000X0.620000X0.620000X0*%
%TD*%
%TA.AperFunction,SMDPad,CuDef*%
%ADD19R,1.500000X5.080000*%
%TD*%
%TA.AperFunction,ComponentPad*%
%ADD20RoundRect,0.250000X0.620000X-0.620000X0.620000X0.620000X-0.620000X0.620000X-0.620000X-0.620000X0*%
%TD*%
%TA.AperFunction,ViaPad*%
%ADD21C,0.800000*%
%TD*%
%TA.AperFunction,Conductor*%
%ADD22C,0.750000*%
%TD*%
%TA.AperFunction,Conductor*%
%ADD23C,0.250000*%
%TD*%
%TA.AperFunction,Conductor*%
%ADD24C,0.500000*%
%TD*%
%TA.AperFunction,Conductor*%
%ADD25C,0.400000*%
%TD*%
%TA.AperFunction,Conductor*%
%ADD26C,0.300000*%
%TD*%
%TA.AperFunction,Conductor*%
%ADD27C,0.200000*%
%TD*%
G04 APERTURE END LIST*
D10*
%TO.P,U7,57,GND*%
%TO.N,GND*%
X145793500Y-86606500D03*
X145793500Y-87881500D03*
X145793500Y-89156500D03*
X147068500Y-86606500D03*
X147068500Y-87881500D03*
X147068500Y-89156500D03*
X148343500Y-86606500D03*
X148343500Y-87881500D03*
X148343500Y-89156500D03*
%TD*%
D11*
%TO.P,TP5,1,1*%
%TO.N,+3V3*%
X87884000Y-61087000D03*
%TD*%
D12*
%TO.P,J18,1,Pin_1*%
%TO.N,+5V*%
X84210000Y-114500000D03*
D13*
%TO.P,J18,2,Pin_2*%
%TO.N,/PWM_MC*%
X86750000Y-114500000D03*
%TO.P,J18,3,Pin_3*%
%TO.N,GND*%
X89290000Y-114500000D03*
%TD*%
D14*
%TO.P,J16,1,Pin_1*%
%TO.N,+BATT*%
X136259500Y-58293000D03*
D13*
%TO.P,J16,2,Pin_2*%
%TO.N,GND*%
X133719500Y-58293000D03*
%TD*%
D12*
%TO.P,J5,1,Pin_1*%
%TO.N,+3V3*%
X156845000Y-114185000D03*
D13*
%TO.P,J5,2,Pin_2*%
%TO.N,GND*%
X159385000Y-114185000D03*
%TO.P,J5,3,Pin_3*%
%TO.N,/Ch.3A*%
X161925000Y-114185000D03*
%TO.P,J5,4,Pin_4*%
%TO.N,/Ch.3B*%
X164465000Y-114185000D03*
%TD*%
D10*
%TO.P,U1,57,GND*%
%TO.N,GND*%
X112268000Y-84572000D03*
X112268000Y-85847000D03*
X112268000Y-87122000D03*
X113543000Y-84572000D03*
X113543000Y-85847000D03*
X113543000Y-87122000D03*
X114818000Y-84572000D03*
X114818000Y-85847000D03*
X114818000Y-87122000D03*
%TD*%
D15*
%TO.P,J1,5,Pin_5*%
%TO.N,unconnected-(J1-Pin_5-Pad5)*%
X117983000Y-118122000D03*
%TO.P,J1,6,Pin_6*%
%TO.N,unconnected-(J1-Pin_6-Pad6)*%
X119253000Y-118122000D03*
%TO.P,J1,7,Pin_7*%
%TO.N,unconnected-(J1-Pin_7-Pad7)*%
X120523000Y-118122000D03*
%TO.P,J1,8,Pin_8*%
%TO.N,unconnected-(J1-Pin_8-Pad8)*%
X121793000Y-118122000D03*
%TD*%
D16*
%TO.P,J12,S1,SHIELD*%
%TO.N,GND*%
X152688000Y-60528999D03*
D17*
X152688000Y-56348999D03*
D16*
X144048000Y-60528999D03*
D17*
X144048000Y-56348999D03*
%TD*%
D11*
%TO.P,TP2,1,1*%
%TO.N,VBUS*%
X111125000Y-68453000D03*
%TD*%
D18*
%TO.P,J6,1,Pin_1*%
%TO.N,/LS2*%
X61750000Y-93460000D03*
D13*
%TO.P,J6,2,Pin_2*%
%TO.N,GND*%
X61750000Y-96000000D03*
%TD*%
D11*
%TO.P,TP8,1,1*%
%TO.N,+3V3_R*%
X128905000Y-58166000D03*
%TD*%
%TO.P,TP7,1,1*%
%TO.N,+5V_R*%
X121285000Y-71120000D03*
%TD*%
%TO.P,TP1,1,1*%
%TO.N,GND*%
X120650000Y-64516000D03*
%TD*%
%TO.P,TP6,1,1*%
%TO.N,+5V*%
X59035500Y-68107500D03*
%TD*%
D14*
%TO.P,J14,1,Pin_1*%
%TO.N,Net-(J14-Pin_1)*%
X101473000Y-58547000D03*
D13*
%TO.P,J14,2,Pin_2*%
%TO.N,GND*%
X98933000Y-58547000D03*
%TD*%
D19*
%TO.P,J8,2,Ext*%
%TO.N,GND*%
X75633000Y-55908500D03*
X84133000Y-55908500D03*
%TD*%
D11*
%TO.P,TP4,1,1*%
%TO.N,VCC*%
X144399000Y-70485000D03*
%TD*%
D15*
%TO.P,J9,5,Pin_5*%
%TO.N,unconnected-(J9-Pin_5-Pad5)*%
X170129200Y-118211600D03*
%TO.P,J9,6,Pin_6*%
%TO.N,unconnected-(J9-Pin_6-Pad6)*%
X171399200Y-118211600D03*
%TO.P,J9,7,Pin_7*%
%TO.N,unconnected-(J9-Pin_7-Pad7)*%
X172669200Y-118211600D03*
%TO.P,J9,8,Pin_8*%
%TO.N,unconnected-(J9-Pin_8-Pad8)*%
X173939200Y-118211600D03*
%TD*%
D11*
%TO.P,TP9,1,1*%
%TO.N,/SDA*%
X100330000Y-87082000D03*
%TD*%
D16*
%TO.P,J2,S1,SHIELD*%
%TO.N,GND*%
X119001000Y-60636000D03*
D17*
X119001000Y-56456000D03*
D16*
X110361000Y-60636000D03*
D17*
X110361000Y-56456000D03*
%TD*%
D20*
%TO.P,J10,1,Pin_1*%
%TO.N,+5V_R*%
X173228000Y-108712000D03*
D13*
%TO.P,J10,2,Pin_2*%
%TO.N,/PWM_EMRG_REL*%
X173228000Y-106172000D03*
%TO.P,J10,3,Pin_3*%
%TO.N,GND*%
X173228000Y-103632000D03*
%TD*%
D18*
%TO.P,J11,1,Pin_1*%
%TO.N,Net-(J11-Pin_1)*%
X174740000Y-74422000D03*
D13*
%TO.P,J11,2,Pin_2*%
%TO.N,Net-(J11-Pin_2)*%
X174740000Y-76962000D03*
%TD*%
D11*
%TO.P,TP10,1,1*%
%TO.N,/SCL*%
X101092000Y-83653000D03*
%TD*%
D12*
%TO.P,J15,1,Pin_1*%
%TO.N,Net-(J15-Pin_1)*%
X96420000Y-114750000D03*
D13*
%TO.P,J15,2,Pin_2*%
%TO.N,GND*%
X98960000Y-114750000D03*
%TO.P,J15,3,Pin_3*%
%TO.N,/STEP*%
X101500000Y-114750000D03*
%TO.P,J15,4,Pin_4*%
%TO.N,/DIR*%
X104040000Y-114750000D03*
%TD*%
D18*
%TO.P,J7,1,Pin_1*%
%TO.N,/LS1*%
X61750000Y-102210000D03*
D13*
%TO.P,J7,2,Pin_2*%
%TO.N,GND*%
X61750000Y-104750000D03*
%TD*%
D12*
%TO.P,J13,1,Pin_1*%
%TO.N,Net-(J13-Pin_1)*%
X110710000Y-114750000D03*
D13*
%TO.P,J13,2,Pin_2*%
%TO.N,Net-(J13-Pin_2)*%
X113250000Y-114750000D03*
%TD*%
D12*
%TO.P,J4,1,Pin_1*%
%TO.N,+3V3*%
X142748000Y-114185000D03*
D13*
%TO.P,J4,2,Pin_2*%
%TO.N,GND*%
X145288000Y-114185000D03*
%TO.P,J4,3,Pin_3*%
%TO.N,/Ch.2A*%
X147828000Y-114185000D03*
%TO.P,J4,4,Pin_4*%
%TO.N,/Ch.2B*%
X150368000Y-114185000D03*
%TD*%
D20*
%TO.P,J17,1,Pin_1*%
%TO.N,GND*%
X173380400Y-97180400D03*
D13*
%TO.P,J17,2,Pin_2*%
%TO.N,/CUT*%
X173380400Y-94640400D03*
%TO.P,J17,3,Pin_3*%
%TO.N,+3V3_R*%
X173380400Y-92100400D03*
%TO.P,J17,4,Pin_4*%
%TO.N,+5V_R*%
X173380400Y-89560400D03*
%TD*%
D12*
%TO.P,J3,1,Pin_1*%
%TO.N,+3V3*%
X128651000Y-114173000D03*
D13*
%TO.P,J3,2,Pin_2*%
%TO.N,GND*%
X131191000Y-114173000D03*
%TO.P,J3,3,Pin_3*%
%TO.N,/Ch.1A*%
X133731000Y-114173000D03*
%TO.P,J3,4,Pin_4*%
%TO.N,/Ch.1B*%
X136271000Y-114173000D03*
%TD*%
D11*
%TO.P,TP3,1,1*%
%TO.N,GND*%
X153416000Y-66802000D03*
%TD*%
D21*
%TO.N,GND*%
X144907000Y-95377000D03*
X139490000Y-71517999D03*
X145210000Y-93977000D03*
X105800000Y-100500000D03*
X97409000Y-66548000D03*
X90750000Y-105000000D03*
X111609000Y-93218000D03*
X168351200Y-118211600D03*
X102362000Y-87947000D03*
X106553000Y-78421000D03*
X134998500Y-76065500D03*
X140078500Y-76319500D03*
X153100000Y-103800000D03*
X94723000Y-72169503D03*
X113843000Y-97536000D03*
X118237000Y-98933000D03*
X70250000Y-111500000D03*
X113093500Y-106870500D03*
X175514000Y-67056000D03*
X135971000Y-89524500D03*
X153000000Y-76600000D03*
X60432500Y-76235500D03*
X94615000Y-65311503D03*
X112395000Y-70612000D03*
X98171000Y-72898000D03*
X68437000Y-104140000D03*
X73591500Y-55908500D03*
X109867000Y-66675000D03*
X139065000Y-84012843D03*
X102743000Y-69596000D03*
X94272527Y-79041617D03*
X112776000Y-102616000D03*
X105283000Y-80899000D03*
X145840000Y-67580999D03*
X70250000Y-118250000D03*
X68250000Y-107735462D03*
X145669000Y-77597000D03*
X79866000Y-100990000D03*
X90750000Y-98250000D03*
X107315000Y-69469000D03*
X121031000Y-79883000D03*
X117221000Y-68072000D03*
X85908500Y-55908500D03*
X113157000Y-109093000D03*
X130175000Y-66929000D03*
X94175000Y-88118000D03*
X143637000Y-66040000D03*
X144899500Y-102261000D03*
X76500000Y-118250000D03*
%TO.N,+3V3*%
X65560000Y-90920000D03*
X108623883Y-82400783D03*
X89500000Y-103250000D03*
X82661000Y-104941462D03*
X65699000Y-99416000D03*
X113843000Y-80137000D03*
X91731000Y-77535000D03*
X88011000Y-63881000D03*
X121539000Y-114173000D03*
X110189000Y-72470000D03*
X118491000Y-93599000D03*
X100750000Y-110250000D03*
X96527000Y-92527000D03*
X99822000Y-77851000D03*
X116459000Y-81280000D03*
%TO.N,+5V*%
X90250000Y-110750000D03*
X68750000Y-91750000D03*
X85250000Y-101000000D03*
X85250000Y-103500000D03*
%TO.N,+BATT*%
X154635200Y-74117200D03*
%TO.N,VBUS*%
X116963000Y-62608000D03*
X108204000Y-61722000D03*
X112264000Y-62608000D03*
X114681000Y-63881000D03*
X108204000Y-59982000D03*
%TO.N,VCC*%
X148380000Y-63770999D03*
X141732000Y-59918000D03*
X150793000Y-62627999D03*
X142494000Y-61722000D03*
X145967000Y-62627999D03*
%TO.N,/Ch.1A*%
X134992661Y-84823634D03*
X111679250Y-91746500D03*
%TO.N,/Ch.1B*%
X135760500Y-85463500D03*
%TO.N,/Ch.2A*%
X136643661Y-86220634D03*
%TO.N,/Ch.2B*%
X137411500Y-86860500D03*
%TO.N,/Ch.3A*%
X138300500Y-87622500D03*
%TO.N,/Ch.3B*%
X139930378Y-87982378D03*
%TO.N,/SCL*%
X103886000Y-86360000D03*
%TO.N,/LS1*%
X121539000Y-102743000D03*
X67250000Y-102250000D03*
X123698000Y-100457000D03*
X111209000Y-98806000D03*
X133855500Y-83939500D03*
%TO.N,/PWM_EMRG_REL*%
X142110500Y-90797500D03*
%TO.N,Net-(U1-GPIO4)*%
X130429000Y-81026000D03*
X107569000Y-84947500D03*
%TO.N,/CROSS_PRIMTX_REDRX*%
X141983500Y-89654500D03*
X134635701Y-81026000D03*
%TO.N,Net-(U1-GPIO5)*%
X130429000Y-82550000D03*
X106553000Y-85347500D03*
%TO.N,/CROSS_PRIMRX_REDTX*%
X134686698Y-82296000D03*
X141094500Y-89146500D03*
%TO.N,Net-(U5-PG)*%
X94615000Y-64312000D03*
X93599000Y-62026000D03*
%TO.N,Net-(U11-PG)*%
X94723000Y-71170000D03*
X93707000Y-68630000D03*
%TO.N,Net-(U12-PG)*%
X130045000Y-64352999D03*
X128651000Y-60960000D03*
%TO.N,Net-(U13-PG)*%
X131318000Y-70739000D03*
X128132018Y-69080133D03*
%TO.N,/SPI0_POCI*%
X86280443Y-96065829D03*
X85852000Y-81153000D03*
X90678000Y-80288000D03*
%TO.N,/SPI0_SCK*%
X86792892Y-95207108D03*
X99187000Y-81088500D03*
X97028000Y-76011000D03*
X88500000Y-81250000D03*
%TO.N,/SPI0_PICO*%
X92456000Y-82169000D03*
X87500000Y-94500000D03*
X92075000Y-76011000D03*
%TO.N,/SPIO_CS_IMU*%
X107823000Y-87946500D03*
X97790000Y-77724000D03*
%TO.N,/LS2*%
X106807000Y-91567000D03*
X91500000Y-93750000D03*
%TO.N,/PWM_MC*%
X108125967Y-91076227D03*
X88500000Y-101500000D03*
%TO.N,/TXEN*%
X124118015Y-86115795D03*
X93069347Y-89180653D03*
%TO.N,/SW*%
X120750000Y-88463500D03*
X91233470Y-88424044D03*
%TO.N,/DIO1*%
X121386040Y-87448046D03*
X91800000Y-87600000D03*
%TO.N,/~{RST}*%
X93980000Y-82487500D03*
X123190000Y-86487000D03*
%TO.N,/BUSY*%
X122322587Y-87098926D03*
X91600000Y-85000000D03*
%TO.N,/TIMEPULSE*%
X124989164Y-85625791D03*
X89500000Y-97000000D03*
%TO.N,/SWD_R*%
X149055000Y-93218000D03*
X172669200Y-115469200D03*
%TO.N,/SWCLK_R*%
X171272200Y-115417600D03*
X148984025Y-94855975D03*
%TO.N,/CUT*%
X155956000Y-91948000D03*
X141750000Y-92250000D03*
X170942000Y-70358000D03*
%TO.N,/SPI0_CS_SD*%
X100358870Y-101000000D03*
X122000000Y-90500000D03*
%TO.N,+3V3_R*%
X144777500Y-90162500D03*
X175971200Y-118211600D03*
X132000000Y-93750000D03*
X147193000Y-83312000D03*
X144145000Y-76573500D03*
X151993000Y-95123000D03*
X161250000Y-99250000D03*
%TO.N,Net-(U14-PR1)*%
X100203000Y-64008000D03*
X100191000Y-67132062D03*
%TO.N,Net-(U15-PR1)*%
X134620000Y-63881000D03*
X134493000Y-66791000D03*
%TO.N,/STEP*%
X126746000Y-101600000D03*
X119253000Y-104902000D03*
X126800000Y-91000000D03*
%TO.N,/DIR*%
X127600000Y-90000000D03*
X119253000Y-105918000D03*
X127635000Y-102616000D03*
%TO.N,+5V_R*%
X124587000Y-71120000D03*
%TO.N,/SPI0_CS_SD_R*%
X159000000Y-99250000D03*
X160750000Y-102250000D03*
%TD*%
D22*
%TO.N,GND*%
X73591500Y-55908500D02*
X75633000Y-55908500D01*
X85908500Y-55908500D02*
X84133000Y-55908500D01*
D23*
%TO.N,+5V*%
X86250000Y-110750000D02*
X84210000Y-112790000D01*
X90250000Y-110750000D02*
X86250000Y-110750000D01*
X76000000Y-91750000D02*
X68750000Y-91750000D01*
X85250000Y-101000000D02*
X76000000Y-91750000D01*
X86250000Y-110750000D02*
X85250000Y-109750000D01*
X84210000Y-112790000D02*
X84210000Y-114500000D01*
X85250000Y-109750000D02*
X85250000Y-103500000D01*
D24*
%TO.N,+BATT*%
X142228500Y-64262000D02*
X144932400Y-64262000D01*
X136259500Y-58293000D02*
X142228500Y-64262000D01*
X144932400Y-64262000D02*
X154635200Y-73964800D01*
X154635200Y-73964800D02*
X154635200Y-74117200D01*
D25*
%TO.N,VBUS*%
X108204000Y-59982000D02*
X108204000Y-61722000D01*
D26*
X114681000Y-62608000D02*
X114681000Y-63881000D01*
X114681000Y-62608000D02*
X116963000Y-62608000D01*
X112264000Y-62608000D02*
X114681000Y-62608000D01*
D25*
%TO.N,VCC*%
X141732000Y-60960000D02*
X142494000Y-61722000D01*
D26*
X148380000Y-62754999D02*
X148507000Y-62627999D01*
D25*
X141732000Y-59918000D02*
X141732000Y-60960000D01*
D26*
X148380000Y-63770999D02*
X148380000Y-62754999D01*
X148507000Y-62627999D02*
X150793000Y-62627999D01*
X145967000Y-62627999D02*
X148507000Y-62627999D01*
D23*
%TO.N,/Ch.1A*%
X133731000Y-113149988D02*
X133731000Y-114173000D01*
D27*
X133731000Y-86085295D02*
X133731000Y-114173000D01*
D23*
X112327512Y-91746500D02*
X133731000Y-113149988D01*
D27*
X134992661Y-84823634D02*
X133731000Y-86085295D01*
D23*
X111679250Y-91746500D02*
X112327512Y-91746500D01*
D27*
%TO.N,/Ch.1B*%
X135250000Y-85974000D02*
X135250000Y-113250000D01*
X135250000Y-113250000D02*
X136173000Y-114173000D01*
X135760500Y-85463500D02*
X135250000Y-85974000D01*
%TO.N,/Ch.2A*%
X136671000Y-103028000D02*
X147828000Y-114185000D01*
X136671000Y-86247973D02*
X136671000Y-103028000D01*
X136643661Y-86220634D02*
X136671000Y-86247973D01*
%TO.N,/Ch.2B*%
X137411500Y-101228500D02*
X150368000Y-114185000D01*
X137411500Y-86860500D02*
X137411500Y-101228500D01*
%TO.N,/Ch.3A*%
X138300500Y-87622500D02*
X138300500Y-93723500D01*
X138300500Y-93723500D02*
X156827000Y-112250000D01*
X156827000Y-112250000D02*
X159990000Y-112250000D01*
X159990000Y-112250000D02*
X161925000Y-114185000D01*
%TO.N,/Ch.3B*%
X162030000Y-111750000D02*
X164465000Y-114185000D01*
X157343000Y-111750000D02*
X162030000Y-111750000D01*
X139930378Y-94337378D02*
X157343000Y-111750000D01*
X139930378Y-87982378D02*
X139930378Y-94337378D01*
%TO.N,/SCL*%
X103799000Y-86360000D02*
X103886000Y-86360000D01*
X101092000Y-83653000D02*
X103799000Y-86360000D01*
%TO.N,/LS1*%
X111209000Y-98806000D02*
X115146000Y-102743000D01*
X115146000Y-102743000D02*
X121539000Y-102743000D01*
X111209000Y-98806000D02*
X107765000Y-102250000D01*
X107765000Y-102250000D02*
X67250000Y-102250000D01*
X123698000Y-91052000D02*
X130810500Y-83939500D01*
X123698000Y-100457000D02*
X123698000Y-91052000D01*
X130810500Y-83939500D02*
X133855500Y-83939500D01*
%TO.N,/PWM_EMRG_REL*%
X142110500Y-90797500D02*
X142175500Y-90862500D01*
D23*
X157943500Y-90887500D02*
X142200500Y-90887500D01*
X173228000Y-106172000D02*
X157943500Y-90887500D01*
X142200500Y-90887500D02*
X142110500Y-90797500D01*
%TO.N,Net-(U1-GPIO4)*%
X127622000Y-81026000D02*
X125585000Y-83063000D01*
X125585000Y-83203000D02*
X109313500Y-83203000D01*
X109313500Y-83203000D02*
X109288500Y-83228000D01*
X127622000Y-81026000D02*
X130429000Y-81026000D01*
D27*
X109288500Y-83228000D02*
X107569000Y-84947500D01*
D23*
%TO.N,/CROSS_PRIMTX_REDRX*%
X134635701Y-81026000D02*
X141544500Y-87934799D01*
X141544500Y-87950500D02*
X141560201Y-87950500D01*
X141983500Y-88373799D02*
X141983500Y-89654500D01*
X141560201Y-87950500D02*
X141983500Y-88373799D01*
X141544500Y-87934799D02*
X141544500Y-87950500D01*
D27*
%TO.N,Net-(U1-GPIO5)*%
X109878450Y-83628000D02*
X107858950Y-85647500D01*
D23*
X127495000Y-82550000D02*
X126557000Y-83488000D01*
D27*
X107858950Y-85647500D02*
X106853000Y-85647500D01*
X126492000Y-83628000D02*
X109878450Y-83628000D01*
D23*
X127495000Y-82550000D02*
X130429000Y-82550000D01*
D27*
X106853000Y-85647500D02*
X106553000Y-85347500D01*
D23*
%TO.N,/CROSS_PRIMRX_REDTX*%
X141094500Y-88121195D02*
X141094500Y-89146500D01*
X135255000Y-82296000D02*
X135262153Y-82288847D01*
X134686698Y-82296000D02*
X135255000Y-82296000D01*
X135262153Y-82288847D02*
X141094500Y-88121195D01*
%TO.N,Net-(U5-PG)*%
X93599000Y-62026000D02*
X94615000Y-63042000D01*
X94615000Y-63042000D02*
X94615000Y-64312000D01*
%TO.N,Net-(U11-PG)*%
X93707000Y-68630000D02*
X94723000Y-69646000D01*
X94723000Y-69646000D02*
X94723000Y-71170000D01*
%TO.N,Net-(U12-PG)*%
X128651000Y-60960000D02*
X130045000Y-62354000D01*
X130045000Y-62354000D02*
X130045000Y-64352999D01*
%TO.N,Net-(U13-PG)*%
X128135133Y-69080133D02*
X129921000Y-70866000D01*
X128132018Y-69080133D02*
X128135133Y-69080133D01*
X131191000Y-70866000D02*
X131318000Y-70739000D01*
X129921000Y-70866000D02*
X131191000Y-70866000D01*
D27*
%TO.N,/SPI0_POCI*%
X86280443Y-96065829D02*
X86000000Y-95785386D01*
X86000000Y-95785386D02*
X86000000Y-81301000D01*
X87962000Y-80288000D02*
X87097000Y-81153000D01*
X87097000Y-81153000D02*
X85852000Y-81153000D01*
X86000000Y-81301000D02*
X85852000Y-81153000D01*
X90678000Y-80288000D02*
X87962000Y-80288000D01*
%TO.N,/SPI0_SCK*%
X86792892Y-95207108D02*
X86750000Y-95164216D01*
D23*
X97028000Y-76011000D02*
X97028000Y-78929500D01*
D27*
X86750000Y-83000000D02*
X88500000Y-81250000D01*
X86750000Y-95164216D02*
X86750000Y-83000000D01*
D23*
X97028000Y-78929500D02*
X99187000Y-81088500D01*
D27*
%TO.N,/SPI0_PICO*%
X92456000Y-82169000D02*
X92331000Y-82169000D01*
D23*
X92456000Y-82169000D02*
X92456000Y-76392000D01*
D27*
X92331000Y-82169000D02*
X87500000Y-87000000D01*
X87500000Y-87000000D02*
X87500000Y-94500000D01*
D23*
X92456000Y-76392000D02*
X92075000Y-76011000D01*
%TO.N,/SPIO_CS_IMU*%
X107823000Y-87642805D02*
X107823000Y-87946500D01*
X97790000Y-77724000D02*
X97904195Y-77724000D01*
X97904195Y-77724000D02*
X107823000Y-87642805D01*
D27*
%TO.N,/LS2*%
X104624000Y-93750000D02*
X106807000Y-91567000D01*
X91500000Y-93750000D02*
X104624000Y-93750000D01*
D23*
%TO.N,/PWM_MC*%
X107891740Y-90842000D02*
X92408000Y-90842000D01*
X108125967Y-91076227D02*
X107891740Y-90842000D01*
X88500000Y-94750000D02*
X88500000Y-101500000D01*
X92408000Y-90842000D02*
X88500000Y-94750000D01*
D27*
%TO.N,/TXEN*%
X124118015Y-86115795D02*
X124118015Y-86548935D01*
X94135194Y-90246500D02*
X93069347Y-89180653D01*
X120420450Y-90246500D02*
X94135194Y-90246500D01*
X124118015Y-86548935D02*
X120420450Y-90246500D01*
%TO.N,/SW*%
X91257514Y-88400000D02*
X93278644Y-88400000D01*
X119376166Y-89837334D02*
X120750000Y-88463500D01*
X93278644Y-88400000D02*
X94725144Y-89846500D01*
X119376166Y-89846500D02*
X119376166Y-89837334D01*
X91233470Y-88424044D02*
X91257514Y-88400000D01*
X94725144Y-89846500D02*
X119376166Y-89846500D01*
%TO.N,/DIO1*%
X95546000Y-87418000D02*
X97574500Y-89446500D01*
X120050000Y-88173550D02*
X120775504Y-87448046D01*
X120775504Y-87448046D02*
X121386040Y-87448046D01*
X97574500Y-89446500D02*
X118803500Y-89446500D01*
X91982000Y-87418000D02*
X95546000Y-87418000D01*
X118803500Y-89446500D02*
X120050000Y-88200000D01*
X120050000Y-88200000D02*
X120050000Y-88173550D01*
X91800000Y-87600000D02*
X91982000Y-87418000D01*
%TO.N,/~{RST}*%
X120276954Y-86348046D02*
X123051046Y-86348046D01*
X107533050Y-88646500D02*
X117978500Y-88646500D01*
X123051046Y-86348046D02*
X123190000Y-86487000D01*
X117978500Y-88646500D02*
X120276954Y-86348046D01*
X93980000Y-82487500D02*
X94114500Y-82353000D01*
X94114500Y-82353000D02*
X101630478Y-82353000D01*
X107061000Y-87783522D02*
X107061000Y-88174450D01*
X107061000Y-88174450D02*
X107533050Y-88646500D01*
X101630478Y-82353000D02*
X107061000Y-87783522D01*
%TO.N,/BUSY*%
X91600000Y-85000000D02*
X95414000Y-85000000D01*
X95414000Y-85000000D02*
X99460500Y-89046500D01*
X121971707Y-86748046D02*
X122322587Y-87098926D01*
X118453500Y-89046500D02*
X120751954Y-86748046D01*
X120751954Y-86748046D02*
X121971707Y-86748046D01*
X99460500Y-89046500D02*
X118453500Y-89046500D01*
%TO.N,/TIMEPULSE*%
X110111330Y-90646500D02*
X120586135Y-90646500D01*
X104007830Y-96750000D02*
X110111330Y-90646500D01*
X124989164Y-86243472D02*
X124989164Y-85625791D01*
D23*
X89551314Y-96948686D02*
X103809144Y-96948686D01*
D27*
X120586135Y-90646500D02*
X124989164Y-86243472D01*
D23*
X89500000Y-97000000D02*
X89551314Y-96948686D01*
X103809144Y-96948686D02*
X104007830Y-96750000D01*
D27*
%TO.N,/SWD_R*%
X164720000Y-109220000D02*
X149055000Y-93555000D01*
X166420000Y-109220000D02*
X164720000Y-109220000D01*
X172669200Y-115469200D02*
X166420000Y-109220000D01*
X149055000Y-93555000D02*
X149055000Y-93218000D01*
%TO.N,/SWCLK_R*%
X171217600Y-115417600D02*
X171272200Y-115417600D01*
X164364050Y-110236000D02*
X166036000Y-110236000D01*
X148984025Y-94855975D02*
X164364050Y-110236000D01*
X166036000Y-110236000D02*
X171217600Y-115417600D01*
D23*
%TO.N,/CUT*%
X170942000Y-70358000D02*
X170942000Y-85142000D01*
X170942000Y-85142000D02*
X175260000Y-89460000D01*
X175260000Y-89460000D02*
X175260000Y-92760800D01*
D27*
X155956000Y-91875500D02*
X155956000Y-91948000D01*
X141750000Y-92250000D02*
X142124500Y-91875500D01*
X142124500Y-91875500D02*
X155956000Y-91875500D01*
D23*
X175260000Y-92760800D02*
X173380400Y-94640400D01*
D27*
%TO.N,/SPI0_CS_SD*%
X100379435Y-101000000D02*
X110332935Y-91046500D01*
X100358870Y-101000000D02*
X100379435Y-101000000D01*
X110332935Y-91046500D02*
X121453500Y-91046500D01*
X121453500Y-91046500D02*
X122000000Y-90500000D01*
D23*
%TO.N,Net-(U14-PR1)*%
X100203000Y-67120062D02*
X100191000Y-67132062D01*
X100203000Y-64008000D02*
X100203000Y-67120062D01*
%TO.N,Net-(U15-PR1)*%
X134620000Y-66664000D02*
X134493000Y-66791000D01*
X134620000Y-63881000D02*
X134620000Y-66664000D01*
%TO.N,/STEP*%
X101500000Y-113700000D02*
X110298000Y-104902000D01*
X126800000Y-91000000D02*
X126800000Y-101546000D01*
X126800000Y-101546000D02*
X126746000Y-101600000D01*
X101500000Y-114750000D02*
X101500000Y-113700000D01*
X110298000Y-104902000D02*
X119253000Y-104902000D01*
%TO.N,/DIR*%
X127600000Y-102581000D02*
X127635000Y-102616000D01*
X127600000Y-90000000D02*
X127600000Y-102581000D01*
X104040000Y-112760000D02*
X110882000Y-105918000D01*
X110882000Y-105918000D02*
X119253000Y-105918000D01*
X104040000Y-114750000D02*
X104040000Y-112760000D01*
%TO.N,+5V_R*%
X152028884Y-89408000D02*
X173228000Y-89408000D01*
X124714000Y-71120000D02*
X131064000Y-77470000D01*
X124587000Y-71120000D02*
X124714000Y-71120000D01*
X140090884Y-77470000D02*
X152028884Y-89408000D01*
X131064000Y-77470000D02*
X140090884Y-77470000D01*
D27*
%TO.N,/SPI0_CS_SD_R*%
X159000000Y-99250000D02*
X159000000Y-100500000D01*
X159000000Y-100500000D02*
X160750000Y-102250000D01*
%TD*%
M02*
