%TF.GenerationSoftware,KiCad,Pcbnew,8.0.0*%
%TF.CreationDate,2024-04-26T21:37:07-04:00*%
%TF.ProjectId,Main board,4d61696e-2062-46f6-9172-642e6b696361,rev?*%
%TF.SameCoordinates,Original*%
%TF.FileFunction,Paste,Top*%
%TF.FilePolarity,Positive*%
%FSLAX46Y46*%
G04 Gerber Fmt 4.6, Leading zero omitted, Abs format (unit mm)*
G04 Created by KiCad (PCBNEW 8.0.0) date 2024-04-26 21:37:07*
%MOMM*%
%LPD*%
G01*
G04 APERTURE LIST*
G04 Aperture macros list*
%AMRoundRect*
0 Rectangle with rounded corners*
0 $1 Rounding radius*
0 $2 $3 $4 $5 $6 $7 $8 $9 X,Y pos of 4 corners*
0 Add a 4 corners polygon primitive as box body*
4,1,4,$2,$3,$4,$5,$6,$7,$8,$9,$2,$3,0*
0 Add four circle primitives for the rounded corners*
1,1,$1+$1,$2,$3*
1,1,$1+$1,$4,$5*
1,1,$1+$1,$6,$7*
1,1,$1+$1,$8,$9*
0 Add four rect primitives between the rounded corners*
20,1,$1+$1,$2,$3,$4,$5,0*
20,1,$1+$1,$4,$5,$6,$7,0*
20,1,$1+$1,$6,$7,$8,$9,0*
20,1,$1+$1,$8,$9,$2,$3,0*%
G04 Aperture macros list end*
%ADD10C,0.000100*%
%ADD11RoundRect,0.160000X-0.160000X-0.310000X0.160000X-0.310000X0.160000X0.310000X-0.160000X0.310000X0*%
%ADD12RoundRect,0.062500X-0.375000X-0.062500X0.375000X-0.062500X0.375000X0.062500X-0.375000X0.062500X0*%
%ADD13RoundRect,0.200000X0.275000X-0.200000X0.275000X0.200000X-0.275000X0.200000X-0.275000X-0.200000X0*%
%ADD14RoundRect,0.175000X0.725000X0.175000X-0.725000X0.175000X-0.725000X-0.175000X0.725000X-0.175000X0*%
%ADD15RoundRect,0.200000X0.700000X0.200000X-0.700000X0.200000X-0.700000X-0.200000X0.700000X-0.200000X0*%
%ADD16RoundRect,0.225000X-0.250000X0.225000X-0.250000X-0.225000X0.250000X-0.225000X0.250000X0.225000X0*%
%ADD17RoundRect,0.250000X-0.292217X-0.292217X0.292217X-0.292217X0.292217X0.292217X-0.292217X0.292217X0*%
%ADD18RoundRect,0.050000X-0.387500X-0.050000X0.387500X-0.050000X0.387500X0.050000X-0.387500X0.050000X0*%
%ADD19RoundRect,0.050000X-0.050000X-0.387500X0.050000X-0.387500X0.050000X0.387500X-0.050000X0.387500X0*%
%ADD20RoundRect,0.200000X-0.200000X-0.275000X0.200000X-0.275000X0.200000X0.275000X-0.200000X0.275000X0*%
%ADD21RoundRect,0.225000X0.225000X0.250000X-0.225000X0.250000X-0.225000X-0.250000X0.225000X-0.250000X0*%
%ADD22RoundRect,0.225000X0.250000X-0.225000X0.250000X0.225000X-0.250000X0.225000X-0.250000X-0.225000X0*%
%ADD23RoundRect,0.225000X-0.225000X-0.250000X0.225000X-0.250000X0.225000X0.250000X-0.225000X0.250000X0*%
%ADD24R,0.381000X0.203200*%
%ADD25R,0.203200X0.381000*%
%ADD26RoundRect,0.200000X-0.275000X0.200000X-0.275000X-0.200000X0.275000X-0.200000X0.275000X0.200000X0*%
%ADD27RoundRect,0.200000X0.200000X0.275000X-0.200000X0.275000X-0.200000X-0.275000X0.200000X-0.275000X0*%
%ADD28R,0.950000X0.550000*%
%ADD29R,0.600000X1.150000*%
%ADD30R,0.300000X1.150000*%
%ADD31O,1.000000X2.100000*%
%ADD32O,1.000000X1.800000*%
%ADD33R,0.650000X2.000000*%
%ADD34RoundRect,0.250000X-0.300000X2.050000X-0.300000X-2.050000X0.300000X-2.050000X0.300000X2.050000X0*%
%ADD35RoundRect,0.250000X-2.375000X2.025000X-2.375000X-2.025000X2.375000X-2.025000X2.375000X2.025000X0*%
%ADD36RoundRect,0.150000X-0.150000X0.512500X-0.150000X-0.512500X0.150000X-0.512500X0.150000X0.512500X0*%
%ADD37RoundRect,0.322500X-1.177500X-0.322500X1.177500X-0.322500X1.177500X0.322500X-1.177500X0.322500X0*%
%ADD38RoundRect,0.325000X-1.175000X-0.325000X1.175000X-0.325000X1.175000X0.325000X-1.175000X0.325000X0*%
%ADD39RoundRect,0.325000X0.325000X-1.425000X0.325000X1.425000X-0.325000X1.425000X-0.325000X-1.425000X0*%
%ADD40RoundRect,0.237500X0.287500X0.237500X-0.287500X0.237500X-0.287500X-0.237500X0.287500X-0.237500X0*%
%ADD41RoundRect,0.250000X0.350000X-0.850000X0.350000X0.850000X-0.350000X0.850000X-0.350000X-0.850000X0*%
%ADD42RoundRect,0.250000X1.125000X-1.275000X1.125000X1.275000X-1.125000X1.275000X-1.125000X-1.275000X0*%
%ADD43R,1.000000X0.900000*%
%ADD44R,1.500000X5.080000*%
%ADD45R,1.800000X0.800000*%
%ADD46R,1.400000X1.800000*%
%ADD47R,1.200000X1.800000*%
%ADD48RoundRect,0.250000X-0.435000X-0.615000X0.435000X-0.615000X0.435000X0.615000X-0.435000X0.615000X0*%
%ADD49RoundRect,0.125000X-0.250000X-0.125000X0.250000X-0.125000X0.250000X0.125000X-0.250000X0.125000X0*%
%ADD50R,1.150000X1.000000*%
%ADD51R,1.050000X0.399999*%
%ADD52R,0.200000X0.599999*%
%ADD53RoundRect,0.250000X0.300000X-2.050000X0.300000X2.050000X-0.300000X2.050000X-0.300000X-2.050000X0*%
%ADD54RoundRect,0.250000X2.375000X-2.025000X2.375000X2.025000X-2.375000X2.025000X-2.375000X-2.025000X0*%
%ADD55R,0.900000X1.000000*%
%ADD56RoundRect,0.250000X-0.250000X-0.250000X0.250000X-0.250000X0.250000X0.250000X-0.250000X0.250000X0*%
%ADD57R,0.800000X1.800000*%
%ADD58R,1.800000X1.400000*%
%ADD59R,1.800000X1.200000*%
%ADD60R,1.700000X4.100000*%
%ADD61R,2.259800X1.362800*%
G04 APERTURE END LIST*
D10*
%TO.C,BT1*%
X74752000Y-106190000D02*
X72352000Y-106190000D01*
X74752000Y-103790000D01*
X74752000Y-106190000D01*
G36*
X74752000Y-106190000D02*
G01*
X72352000Y-106190000D01*
X74752000Y-103790000D01*
X74752000Y-106190000D01*
G37*
%TD*%
D11*
%TO.C,U13*%
X128285000Y-70719999D03*
X128285000Y-71889999D03*
X129085000Y-70719999D03*
X129085000Y-71889999D03*
D12*
X127247500Y-70554999D03*
X127247500Y-71054999D03*
X127247500Y-71554999D03*
X127247500Y-72054999D03*
X130122500Y-72054999D03*
X130122500Y-71554999D03*
X130122500Y-71054999D03*
X130122500Y-70554999D03*
%TD*%
D13*
%TO.C,R17*%
X146685000Y-95313000D03*
X146685000Y-93663000D03*
%TD*%
D14*
%TO.C,U10*%
X78000000Y-118192000D03*
D15*
X78000000Y-117092000D03*
X78000000Y-115992000D03*
X78000000Y-114892000D03*
X78000000Y-113792000D03*
X78000000Y-112692000D03*
X78000000Y-111592000D03*
X78000000Y-110492000D03*
D14*
X78000000Y-109392000D03*
X68500000Y-109392000D03*
D15*
X68500000Y-110492000D03*
X68500000Y-111592000D03*
X68500000Y-112692000D03*
X68500000Y-113792000D03*
X68500000Y-114892000D03*
X68500000Y-115992000D03*
X68500000Y-117092000D03*
D14*
X68500000Y-118192000D03*
%TD*%
D11*
%TO.C,U12*%
X127117000Y-64109999D03*
X127117000Y-65279999D03*
X127917000Y-64109999D03*
X127917000Y-65279999D03*
D12*
X126079500Y-63944999D03*
X126079500Y-64444999D03*
X126079500Y-64944999D03*
X126079500Y-65444999D03*
X128954500Y-65444999D03*
X128954500Y-64944999D03*
X128954500Y-64444999D03*
X128954500Y-63944999D03*
%TD*%
D16*
%TO.C,C46*%
X98250000Y-70113000D03*
X98250000Y-71663000D03*
%TD*%
D17*
%TO.C,U7*%
X146431000Y-87244000D03*
X146431000Y-88519000D03*
X147706000Y-87244000D03*
X147706000Y-88519000D03*
D18*
X143631000Y-85281500D03*
X143631000Y-85681500D03*
X143631000Y-86081500D03*
X143631000Y-86481500D03*
X143631000Y-86881500D03*
X143631000Y-87281500D03*
X143631000Y-87681500D03*
X143631000Y-88081500D03*
X143631000Y-88481500D03*
X143631000Y-88881500D03*
X143631000Y-89281500D03*
X143631000Y-89681500D03*
X143631000Y-90081500D03*
X143631000Y-90481500D03*
D19*
X144468500Y-91319000D03*
X144868500Y-91319000D03*
X145268500Y-91319000D03*
X145668500Y-91319000D03*
X146068500Y-91319000D03*
X146468500Y-91319000D03*
X146868500Y-91319000D03*
X147268500Y-91319000D03*
X147668500Y-91319000D03*
X148068500Y-91319000D03*
X148468500Y-91319000D03*
X148868500Y-91319000D03*
X149268500Y-91319000D03*
X149668500Y-91319000D03*
D18*
X150506000Y-90481500D03*
X150506000Y-90081500D03*
X150506000Y-89681500D03*
X150506000Y-89281500D03*
X150506000Y-88881500D03*
X150506000Y-88481500D03*
X150506000Y-88081500D03*
X150506000Y-87681500D03*
X150506000Y-87281500D03*
X150506000Y-86881500D03*
X150506000Y-86481500D03*
X150506000Y-86081500D03*
X150506000Y-85681500D03*
X150506000Y-85281500D03*
D19*
X149668500Y-84444000D03*
X149268500Y-84444000D03*
X148868500Y-84444000D03*
X148468500Y-84444000D03*
X148068500Y-84444000D03*
X147668500Y-84444000D03*
X147268500Y-84444000D03*
X146868500Y-84444000D03*
X146468500Y-84444000D03*
X146068500Y-84444000D03*
X145668500Y-84444000D03*
X145268500Y-84444000D03*
X144868500Y-84444000D03*
X144468500Y-84444000D03*
%TD*%
D20*
%TO.C,R10*%
X96457000Y-82804000D03*
X98107000Y-82804000D03*
%TD*%
D16*
%TO.C,C49*%
X124587000Y-62852000D03*
X124587000Y-64402000D03*
%TD*%
D21*
%TO.C,C47*%
X89294000Y-72948000D03*
X87744000Y-72948000D03*
%TD*%
D22*
%TO.C,C51*%
X124596000Y-67450000D03*
X124596000Y-65900000D03*
%TD*%
D11*
%TO.C,U5*%
X91675000Y-63981000D03*
X91675000Y-65151000D03*
X92475000Y-63981000D03*
X92475000Y-65151000D03*
D12*
X90637500Y-63816000D03*
X90637500Y-64316000D03*
X90637500Y-64816000D03*
X90637500Y-65316000D03*
X93512500Y-65316000D03*
X93512500Y-64816000D03*
X93512500Y-64316000D03*
X93512500Y-63816000D03*
%TD*%
D23*
%TO.C,C27*%
X151993000Y-90551000D03*
X153543000Y-90551000D03*
%TD*%
D20*
%TO.C,R59*%
X139808000Y-63881000D03*
X141458000Y-63881000D03*
%TD*%
D23*
%TO.C,C31*%
X152021000Y-84455000D03*
X153571000Y-84455000D03*
%TD*%
D24*
%TO.C,U4*%
X93135000Y-76477999D03*
X93135000Y-76978000D03*
X93135000Y-77478000D03*
X93135000Y-77978001D03*
D25*
X93841501Y-78180500D03*
X94341500Y-78180500D03*
X94841499Y-78180500D03*
D24*
X95548000Y-77978001D03*
X95548000Y-77478000D03*
X95548000Y-76978000D03*
X95548000Y-76477999D03*
D25*
X94841499Y-76275500D03*
X94341500Y-76275500D03*
X93841501Y-76275500D03*
%TD*%
D26*
%TO.C,R13*%
X109474000Y-95568000D03*
X109474000Y-97218000D03*
%TD*%
D23*
%TO.C,C5*%
X111353000Y-74676000D03*
X112903000Y-74676000D03*
%TD*%
D27*
%TO.C,R52*%
X108775000Y-66929000D03*
X107125000Y-66929000D03*
%TD*%
D23*
%TO.C,C24*%
X150863000Y-77851000D03*
X152413000Y-77851000D03*
%TD*%
D13*
%TO.C,R55*%
X135763000Y-66738000D03*
X135763000Y-65088000D03*
%TD*%
D20*
%TO.C,R8*%
X116648000Y-64135000D03*
X118298000Y-64135000D03*
%TD*%
D22*
%TO.C,C7*%
X121539000Y-82776000D03*
X121539000Y-81226000D03*
%TD*%
D28*
%TO.C,U3*%
X95445000Y-84475000D03*
X95445000Y-85725000D03*
X95445000Y-86975000D03*
X95445000Y-88225000D03*
X97595000Y-88225000D03*
X97595000Y-86975000D03*
X97595000Y-85725000D03*
X97595000Y-84475000D03*
%TD*%
D16*
%TO.C,C19*%
X89027000Y-63565000D03*
X89027000Y-65115000D03*
%TD*%
D17*
%TO.C,U1*%
X112905500Y-85209500D03*
X112905500Y-86484500D03*
X114180500Y-85209500D03*
X114180500Y-86484500D03*
D18*
X110105500Y-83247000D03*
X110105500Y-83647000D03*
X110105500Y-84047000D03*
X110105500Y-84447000D03*
X110105500Y-84847000D03*
X110105500Y-85247000D03*
X110105500Y-85647000D03*
X110105500Y-86047000D03*
X110105500Y-86447000D03*
X110105500Y-86847000D03*
X110105500Y-87247000D03*
X110105500Y-87647000D03*
X110105500Y-88047000D03*
X110105500Y-88447000D03*
D19*
X110943000Y-89284500D03*
X111343000Y-89284500D03*
X111743000Y-89284500D03*
X112143000Y-89284500D03*
X112543000Y-89284500D03*
X112943000Y-89284500D03*
X113343000Y-89284500D03*
X113743000Y-89284500D03*
X114143000Y-89284500D03*
X114543000Y-89284500D03*
X114943000Y-89284500D03*
X115343000Y-89284500D03*
X115743000Y-89284500D03*
X116143000Y-89284500D03*
D18*
X116980500Y-88447000D03*
X116980500Y-88047000D03*
X116980500Y-87647000D03*
X116980500Y-87247000D03*
X116980500Y-86847000D03*
X116980500Y-86447000D03*
X116980500Y-86047000D03*
X116980500Y-85647000D03*
X116980500Y-85247000D03*
X116980500Y-84847000D03*
X116980500Y-84447000D03*
X116980500Y-84047000D03*
X116980500Y-83647000D03*
X116980500Y-83247000D03*
D19*
X116143000Y-82409500D03*
X115743000Y-82409500D03*
X115343000Y-82409500D03*
X114943000Y-82409500D03*
X114543000Y-82409500D03*
X114143000Y-82409500D03*
X113743000Y-82409500D03*
X113343000Y-82409500D03*
X112943000Y-82409500D03*
X112543000Y-82409500D03*
X112143000Y-82409500D03*
X111743000Y-82409500D03*
X111343000Y-82409500D03*
X110943000Y-82409500D03*
%TD*%
D20*
%TO.C,R53*%
X106236000Y-65405000D03*
X107886000Y-65405000D03*
%TD*%
D13*
%TO.C,R37*%
X95885000Y-65391000D03*
X95885000Y-63741000D03*
%TD*%
D21*
%TO.C,C55*%
X107353400Y-70815200D03*
X105803400Y-70815200D03*
%TD*%
D26*
%TO.C,R56*%
X136271000Y-62040000D03*
X136271000Y-63690000D03*
%TD*%
D16*
%TO.C,C16*%
X93921000Y-85593000D03*
X93921000Y-87143000D03*
%TD*%
D29*
%TO.C,J12*%
X151568000Y-61103999D03*
X150768000Y-61103999D03*
D30*
X149618000Y-61103999D03*
X148618000Y-61103999D03*
X148118000Y-61103999D03*
X147118000Y-61103999D03*
D29*
X145968000Y-61103999D03*
X145168000Y-61103999D03*
X145168000Y-61103999D03*
X145968000Y-61103999D03*
D30*
X146618000Y-61103999D03*
X147618000Y-61103999D03*
X149118000Y-61103999D03*
X150118000Y-61103999D03*
D29*
X150768000Y-61103999D03*
X151568000Y-61103999D03*
D31*
X152688000Y-60528999D03*
D32*
X152688000Y-56348999D03*
D31*
X144048000Y-60528999D03*
D32*
X144048000Y-56348999D03*
%TD*%
D21*
%TO.C,C29*%
X141999000Y-84201000D03*
X140449000Y-84201000D03*
%TD*%
%TO.C,C48*%
X89167000Y-66675000D03*
X87617000Y-66675000D03*
%TD*%
D33*
%TO.C,D5*%
X147418000Y-69547999D03*
X148368000Y-69547999D03*
X149318000Y-69547999D03*
X149318000Y-66127999D03*
X148368000Y-66127999D03*
X147418000Y-66127999D03*
%TD*%
D26*
%TO.C,R9*%
X112141000Y-64326000D03*
X112141000Y-65976000D03*
%TD*%
D20*
%TO.C,R15*%
X131636000Y-80772000D03*
X133286000Y-80772000D03*
%TD*%
D22*
%TO.C,C52*%
X125730000Y-74054000D03*
X125730000Y-72504000D03*
%TD*%
D34*
%TO.C,LM1084-ADJ1*%
X163703000Y-74422000D03*
X161163000Y-74422000D03*
D35*
X163938000Y-81147000D03*
X158388000Y-81147000D03*
X163938000Y-85997000D03*
X158388000Y-85997000D03*
D34*
X158623000Y-74422000D03*
%TD*%
D36*
%TO.C,Q1*%
X105532000Y-88392000D03*
X103632000Y-88392000D03*
X104582000Y-90667000D03*
%TD*%
D23*
%TO.C,C11*%
X117970000Y-79756000D03*
X119520000Y-79756000D03*
%TD*%
D22*
%TO.C,C41*%
X140208000Y-58687000D03*
X140208000Y-57137000D03*
%TD*%
D20*
%TO.C,R7*%
X99425000Y-92500000D03*
X101075000Y-92500000D03*
%TD*%
D26*
%TO.C,R22*%
X138212500Y-74740000D03*
X138212500Y-76390000D03*
%TD*%
D21*
%TO.C,C57*%
X71625000Y-107442000D03*
X70075000Y-107442000D03*
%TD*%
D37*
%TO.C,U6*%
X64312000Y-72073000D03*
D38*
X64312000Y-74618000D03*
X64312000Y-77158000D03*
X64312000Y-79698000D03*
X64312000Y-82238000D03*
X64312000Y-84778000D03*
X64312000Y-87318000D03*
X83312000Y-87318000D03*
X83312000Y-84778000D03*
X83312000Y-82238000D03*
X83312000Y-79698000D03*
X83312000Y-77158000D03*
X83312000Y-74618000D03*
D37*
X83312000Y-72073000D03*
D39*
X82482000Y-61468000D03*
X79942000Y-61468000D03*
X77402000Y-61468000D03*
%TD*%
D13*
%TO.C,R40*%
X131445000Y-67084999D03*
X131445000Y-65434999D03*
%TD*%
D40*
%TO.C,D1*%
X104580000Y-92500000D03*
X102830000Y-92500000D03*
%TD*%
D26*
%TO.C,R54*%
X138303000Y-62294000D03*
X138303000Y-63944000D03*
%TD*%
D23*
%TO.C,C3*%
X111353000Y-71628000D03*
X112903000Y-71628000D03*
%TD*%
D27*
%TO.C,R6*%
X107417000Y-72322000D03*
X105767000Y-72322000D03*
%TD*%
D20*
%TO.C,R33*%
X91358000Y-68630000D03*
X93008000Y-68630000D03*
%TD*%
D22*
%TO.C,C13*%
X108966000Y-72263000D03*
X108966000Y-70713000D03*
%TD*%
%TO.C,C22*%
X142875000Y-102261000D03*
X142875000Y-100711000D03*
%TD*%
D41*
%TO.C,MOSFET2*%
X170954000Y-65278000D03*
D42*
X171709000Y-60653000D03*
X174759000Y-60653000D03*
X171709000Y-57303000D03*
X174759000Y-57303000D03*
D41*
X175514000Y-65278000D03*
%TD*%
D27*
%TO.C,R49*%
X104330000Y-70866000D03*
X102680000Y-70866000D03*
%TD*%
D22*
%TO.C,C9*%
X124587000Y-82804000D03*
X124587000Y-81254000D03*
%TD*%
D13*
%TO.C,R1*%
X114427000Y-101917000D03*
X114427000Y-100267000D03*
%TD*%
D26*
%TO.C,R60*%
X140335000Y-60643000D03*
X140335000Y-62293000D03*
%TD*%
D23*
%TO.C,C32*%
X151257000Y-82804000D03*
X152807000Y-82804000D03*
%TD*%
D43*
%TO.C,B3*%
X151422000Y-99423000D03*
X151422000Y-103523000D03*
X149822000Y-99423000D03*
X149822000Y-103523000D03*
%TD*%
D16*
%TO.C,C45*%
X97409000Y-63819000D03*
X97409000Y-65369000D03*
%TD*%
%TO.C,C30*%
X148209000Y-96253000D03*
X148209000Y-97803000D03*
%TD*%
D20*
%TO.C,R38*%
X125095000Y-61214000D03*
X126745000Y-61214000D03*
%TD*%
D27*
%TO.C,R57*%
X138747000Y-70374999D03*
X137097000Y-70374999D03*
%TD*%
D13*
%TO.C,R3*%
X114046000Y-78930000D03*
X114046000Y-77280000D03*
%TD*%
D44*
%TO.C,J8*%
X79883000Y-55908500D03*
X75633000Y-55908500D03*
X84133000Y-55908500D03*
%TD*%
D23*
%TO.C,C43*%
X140195000Y-53848000D03*
X141745000Y-53848000D03*
%TD*%
D21*
%TO.C,C14*%
X108344000Y-81153000D03*
X106794000Y-81153000D03*
%TD*%
D23*
%TO.C,C40*%
X105651000Y-55372000D03*
X107201000Y-55372000D03*
%TD*%
D21*
%TO.C,C54*%
X131077000Y-68707000D03*
X129527000Y-68707000D03*
%TD*%
D26*
%TO.C,R44*%
X65687000Y-100621000D03*
X65687000Y-102271000D03*
%TD*%
D22*
%TO.C,C21*%
X59568500Y-83338500D03*
X59568500Y-81788500D03*
%TD*%
D26*
%TO.C,R31*%
X145828000Y-64220999D03*
X145828000Y-65870999D03*
%TD*%
%TO.C,R63*%
X65560000Y-92002000D03*
X65560000Y-93652000D03*
%TD*%
D27*
%TO.C,R58*%
X139001000Y-65421999D03*
X137351000Y-65421999D03*
%TD*%
D45*
%TO.C,J19*%
X94250000Y-105450000D03*
X94250000Y-104350000D03*
X94250000Y-103250000D03*
X94250000Y-102150000D03*
X94250000Y-101050000D03*
X94250000Y-99950000D03*
X94250000Y-98850000D03*
X94250000Y-97750000D03*
D46*
X92250000Y-98350000D03*
X92250000Y-104850000D03*
D47*
X105800000Y-97550000D03*
X105800000Y-104900000D03*
%TD*%
D29*
%TO.C,J2*%
X117881000Y-61211000D03*
X117081000Y-61211000D03*
D30*
X115931000Y-61211000D03*
X114931000Y-61211000D03*
X114431000Y-61211000D03*
X113431000Y-61211000D03*
D29*
X112281000Y-61211000D03*
X111481000Y-61211000D03*
X111481000Y-61211000D03*
X112281000Y-61211000D03*
D30*
X112931000Y-61211000D03*
X113931000Y-61211000D03*
X115431000Y-61211000D03*
X116431000Y-61211000D03*
D29*
X117081000Y-61211000D03*
X117881000Y-61211000D03*
D31*
X119001000Y-60636000D03*
D32*
X119001000Y-56456000D03*
D31*
X110361000Y-60636000D03*
D32*
X110361000Y-56456000D03*
%TD*%
D26*
%TO.C,R47*%
X104775000Y-62675000D03*
X104775000Y-64325000D03*
%TD*%
D22*
%TO.C,C10*%
X118491000Y-82805000D03*
X118491000Y-81255000D03*
%TD*%
D48*
%TO.C,U8*%
X139902500Y-78746500D03*
X139902500Y-80896500D03*
X141602500Y-78746500D03*
X141602500Y-80896500D03*
D49*
X138052500Y-77916500D03*
X138052500Y-79186500D03*
X138052500Y-80456500D03*
X138052500Y-81726500D03*
X143452500Y-81726500D03*
X143452500Y-80456500D03*
X143452500Y-79186500D03*
X143452500Y-77916500D03*
%TD*%
D26*
%TO.C,R50*%
X106299000Y-60707000D03*
X106299000Y-62357000D03*
%TD*%
D23*
%TO.C,C17*%
X94983000Y-79629000D03*
X96533000Y-79629000D03*
%TD*%
D21*
%TO.C,C58*%
X82800000Y-103500000D03*
X81250000Y-103500000D03*
%TD*%
D13*
%TO.C,R43*%
X131445000Y-64071000D03*
X131445000Y-62421000D03*
%TD*%
D23*
%TO.C,C35*%
X151993000Y-87503000D03*
X153543000Y-87503000D03*
%TD*%
D43*
%TO.C,B2*%
X87630000Y-78776000D03*
X87630000Y-74676000D03*
X89230000Y-78776000D03*
X89230000Y-74676000D03*
%TD*%
D22*
%TO.C,C38*%
X108174000Y-58674000D03*
X108174000Y-57124000D03*
%TD*%
D50*
%TO.C,Y1*%
X145796000Y-97152000D03*
X144046000Y-97152000D03*
X144046000Y-98552000D03*
X145796000Y-98552000D03*
%TD*%
D13*
%TO.C,R19*%
X147574000Y-81211500D03*
X147574000Y-79561500D03*
%TD*%
D23*
%TO.C,C36*%
X151993000Y-89027000D03*
X153543000Y-89027000D03*
%TD*%
D51*
%TO.C,U14*%
X105577000Y-68707000D03*
X105577000Y-68007001D03*
D52*
X105652001Y-67232002D03*
X105152000Y-67232002D03*
X104652000Y-67232002D03*
X104151999Y-67232002D03*
D51*
X104227000Y-68007001D03*
X104227000Y-68707000D03*
D52*
X104151999Y-69532000D03*
X104652000Y-69532000D03*
X105152000Y-69532000D03*
X105652001Y-69532000D03*
%TD*%
D27*
%TO.C,R36*%
X96329000Y-67056000D03*
X94679000Y-67056000D03*
%TD*%
%TO.C,R2*%
X117395000Y-93510000D03*
X115745000Y-93510000D03*
%TD*%
D53*
%TO.C,0.3_Ohm_Resistor1*%
X159004000Y-67939000D03*
X164084000Y-67939000D03*
D54*
X158769000Y-61214000D03*
X164319000Y-61214000D03*
X158769000Y-56364000D03*
X164319000Y-56364000D03*
%TD*%
D13*
%TO.C,R46*%
X101346000Y-67183000D03*
X101346000Y-65533000D03*
%TD*%
D26*
%TO.C,R48*%
X101473000Y-62357000D03*
X101473000Y-64007000D03*
%TD*%
D22*
%TO.C,C37*%
X106426000Y-58661000D03*
X106426000Y-57111000D03*
%TD*%
D20*
%TO.C,R51*%
X106236000Y-63881000D03*
X107886000Y-63881000D03*
%TD*%
D13*
%TO.C,R42*%
X133223000Y-71945000D03*
X133223000Y-70295000D03*
%TD*%
D22*
%TO.C,C23*%
X146558000Y-102261000D03*
X146558000Y-100711000D03*
%TD*%
D11*
%TO.C,U11*%
X91783000Y-70839000D03*
X91783000Y-72009000D03*
X92583000Y-70839000D03*
X92583000Y-72009000D03*
D12*
X90745500Y-70674000D03*
X90745500Y-71174000D03*
X90745500Y-71674000D03*
X90745500Y-72174000D03*
X93620500Y-72174000D03*
X93620500Y-71674000D03*
X93620500Y-71174000D03*
X93620500Y-70674000D03*
%TD*%
D55*
%TO.C,B4*%
X129501500Y-76121500D03*
X133601500Y-76121500D03*
X129501500Y-77721500D03*
X133601500Y-77721500D03*
%TD*%
D56*
%TO.C,D3*%
X79252000Y-106592462D03*
X81752000Y-106592462D03*
%TD*%
D48*
%TO.C,U2*%
X105830000Y-74744000D03*
X105830000Y-76894000D03*
X107530000Y-74744000D03*
X107530000Y-76894000D03*
D49*
X103980000Y-73914000D03*
X103980000Y-75184000D03*
X103980000Y-76454000D03*
X103980000Y-77724000D03*
X109380000Y-77724000D03*
X109380000Y-76454000D03*
X109380000Y-75184000D03*
X109380000Y-73914000D03*
%TD*%
D20*
%TO.C,R21*%
X135060500Y-77848500D03*
X136710500Y-77848500D03*
%TD*%
%TO.C,R5*%
X99442000Y-75329000D03*
X101092000Y-75329000D03*
%TD*%
D33*
%TO.C,D2*%
X113731000Y-69596000D03*
X114681000Y-69596000D03*
X115631000Y-69596000D03*
X115631000Y-66176000D03*
X114681000Y-66176000D03*
X113731000Y-66176000D03*
%TD*%
D22*
%TO.C,C12*%
X126111000Y-82804000D03*
X126111000Y-81254000D03*
%TD*%
D20*
%TO.C,R16*%
X131636000Y-82423000D03*
X133286000Y-82423000D03*
%TD*%
D23*
%TO.C,C4*%
X111353000Y-73152000D03*
X112903000Y-73152000D03*
%TD*%
%TO.C,C44*%
X140182000Y-55499000D03*
X141732000Y-55499000D03*
%TD*%
D57*
%TO.C,J20*%
X157900000Y-97250000D03*
X159000000Y-97250000D03*
X160100000Y-97250000D03*
X161200000Y-97250000D03*
X162300000Y-97250000D03*
X163400000Y-97250000D03*
X164500000Y-97250000D03*
X165600000Y-97250000D03*
D58*
X165000000Y-95250000D03*
X158500000Y-95250000D03*
D59*
X165800000Y-108800000D03*
X158450000Y-108800000D03*
%TD*%
D40*
%TO.C,D4*%
X138375000Y-93750000D03*
X136625000Y-93750000D03*
%TD*%
D22*
%TO.C,C42*%
X141732000Y-58687000D03*
X141732000Y-57137000D03*
%TD*%
D20*
%TO.C,R11*%
X96527000Y-89896000D03*
X98177000Y-89896000D03*
%TD*%
D36*
%TO.C,Q2*%
X139377500Y-89524500D03*
X137477500Y-89524500D03*
X138427500Y-91799500D03*
%TD*%
D23*
%TO.C,C39*%
X105651000Y-53848000D03*
X107201000Y-53848000D03*
%TD*%
D60*
%TO.C,BT1*%
X70202000Y-104140000D03*
%TD*%
D21*
%TO.C,C59*%
X82800000Y-100990000D03*
X81250000Y-100990000D03*
%TD*%
D20*
%TO.C,R32*%
X90994000Y-62026000D03*
X92644000Y-62026000D03*
%TD*%
D26*
%TO.C,R41*%
X131699000Y-71946000D03*
X131699000Y-73596000D03*
%TD*%
D27*
%TO.C,R18*%
X151447000Y-97790000D03*
X149797000Y-97790000D03*
%TD*%
D22*
%TO.C,C2*%
X114681000Y-109119000D03*
X114681000Y-107569000D03*
%TD*%
%TO.C,C8*%
X123063000Y-82804000D03*
X123063000Y-81254000D03*
%TD*%
D23*
%TO.C,C25*%
X150863000Y-81153000D03*
X152413000Y-81153000D03*
%TD*%
D50*
%TO.C,Y2*%
X114554000Y-104010000D03*
X112804000Y-104010000D03*
X112804000Y-105410000D03*
X114554000Y-105410000D03*
%TD*%
D20*
%TO.C,R61*%
X140589000Y-65405000D03*
X142239000Y-65405000D03*
%TD*%
D51*
%TO.C,U15*%
X140125000Y-68215999D03*
X140125000Y-67516000D03*
D52*
X140200001Y-66741001D03*
X139700000Y-66741001D03*
X139200000Y-66741001D03*
X138699999Y-66741001D03*
D51*
X138775000Y-67516000D03*
X138775000Y-68215999D03*
D52*
X138699999Y-69040999D03*
X139200000Y-69040999D03*
X139700000Y-69040999D03*
X140200001Y-69040999D03*
%TD*%
D26*
%TO.C,R14*%
X107823000Y-95568000D03*
X107823000Y-97218000D03*
%TD*%
D21*
%TO.C,C34*%
X142642500Y-76200000D03*
X141092500Y-76200000D03*
%TD*%
D22*
%TO.C,C28*%
X145669000Y-80658000D03*
X145669000Y-79108000D03*
%TD*%
D27*
%TO.C,R45*%
X104647000Y-65842002D03*
X102997000Y-65842002D03*
%TD*%
D61*
%TO.C,AE1*%
X59250000Y-111037299D03*
X59250000Y-117962701D03*
%TD*%
D16*
%TO.C,C15*%
X113538000Y-94729000D03*
X113538000Y-96279000D03*
%TD*%
D20*
%TO.C,R39*%
X126429000Y-67310000D03*
X128079000Y-67310000D03*
%TD*%
D55*
%TO.C,B1*%
X120287000Y-96939000D03*
X116187000Y-96939000D03*
X120287000Y-95339000D03*
X116187000Y-95339000D03*
%TD*%
D23*
%TO.C,C18*%
X91935000Y-79629000D03*
X93485000Y-79629000D03*
%TD*%
D22*
%TO.C,C1*%
X111252000Y-109119000D03*
X111252000Y-107569000D03*
%TD*%
%TO.C,C6*%
X120015000Y-82791000D03*
X120015000Y-81241000D03*
%TD*%
D27*
%TO.C,R34*%
X96837000Y-73660000D03*
X95187000Y-73660000D03*
%TD*%
D20*
%TO.C,R23*%
X133425000Y-93750000D03*
X135075000Y-93750000D03*
%TD*%
D21*
%TO.C,C53*%
X129807000Y-62103000D03*
X128257000Y-62103000D03*
%TD*%
D23*
%TO.C,C26*%
X150863000Y-79502000D03*
X152413000Y-79502000D03*
%TD*%
D27*
%TO.C,R62*%
X143382000Y-67056000D03*
X141732000Y-67056000D03*
%TD*%
D13*
%TO.C,R20*%
X149098000Y-81211500D03*
X149098000Y-79561500D03*
%TD*%
D23*
%TO.C,C33*%
X152021000Y-85979000D03*
X153571000Y-85979000D03*
%TD*%
D20*
%TO.C,R30*%
X150432000Y-64008000D03*
X152082000Y-64008000D03*
%TD*%
D13*
%TO.C,R4*%
X115570000Y-78930000D03*
X115570000Y-77280000D03*
%TD*%
%TO.C,R35*%
X96247000Y-71739000D03*
X96247000Y-70089000D03*
%TD*%
D16*
%TO.C,C20*%
X89154000Y-69837000D03*
X89154000Y-71387000D03*
%TD*%
%TO.C,C50*%
X125730000Y-69469000D03*
X125730000Y-71019000D03*
%TD*%
D27*
%TO.C,R12*%
X77580000Y-106479000D03*
X75930000Y-106479000D03*
%TD*%
D21*
%TO.C,C56*%
X141745000Y-70358000D03*
X140195000Y-70358000D03*
%TD*%
M02*
