  0
SECTION
  2
HEADER
  9
$ANGBASE
  50
0.0
  9
$ANGDIR
  70
1
  9
$MEASUREMENT
  70
0
  0
ENDSEC
  0
SECTION
  2
TABLES
  0
TABLE
  2
LTYPE
  70
4
  0
LTYPE
  5
40F
  2
CONTINUOUS
  70
0
  3
Solid line
  72
65
  73
0
  40
0.0
  0
LTYPE
  5
410
  2
DASHDOT
 70
0
  3
Dash Dot ____ _ ____ _
 72
65
 73
4
 40
2.0
 49
1.25
 49
-0.25
 49
0.25
 49
-0.25
  0
LTYPE
  5
411
  2
DASHED
 70
0
  3
Dashed __ __ __ __ __
 72
65
 73
2
 40
0.75
 49
0.5
 49
-0.25
  0
LTYPE
  5
43B
  2
DOTTED
 70
0
  3
Dotted .  .  .  .
 72
65
 73
2
 40
0.2
 49
0.0
 49
-0.2
  0
ENDTAB
  0
TABLE
  2
STYLE
  70
4
  0
STYLE
  2
KICAD
  70
0
  40
0
  41
1
  42
1
  50
0
  71
0
  3
isocp.shx
  0
STYLE
  2
KICADB
  70
0
  40
0
  41
1
  42
1
  50
0
  71
0
  3
isocp.shx
  0
STYLE
  2
KICADI
  70
0
  40
0
  41
1
  42
1
  50
15
  71
0
  3
isocp.shx
  0
STYLE
  2
KICADBI
  70
0
  40
0
  41
1
  42
1
  50
15
  71
0
  3
isocp.shx
  0
ENDTAB
  0
TABLE
  2
LAYER
  70
1
  0
LAYER
  2
BLACK
  70
0
  62
7
  6
CONTINUOUS
  0
ENDTAB
  0
ENDSEC
  0
SECTION
  2
ENTITIES
0
LINE
8
BLACK
6
CONTINUOUS
10
6.9868436220472443
20
-2.0813516535433072
11
6.9931213385826769
21
-2.0832559842519687
0
LINE
8
BLACK
6
CONTINUOUS
10
6.9931213385826769
20
-2.0832559842519687
11
6.9989068897637789
21
-2.0863484251968503
0
LINE
8
BLACK
6
CONTINUOUS
10
6.9989068897637789
20
-2.0863484251968503
11
7.0039779921259839
21
-2.0905101968503939
0
LINE
8
BLACK
6
CONTINUOUS
10
7.0039779921259839
20
-2.0905101968503939
11
7.0081397637795275
21
-2.0955812992125984
0
LINE
8
BLACK
6
CONTINUOUS
10
7.0081397637795275
20
-2.0955812992125984
11
7.0112322047244096
21
-2.1013668503937009
0
LINE
8
BLACK
6
CONTINUOUS
10
7.0112322047244096
20
-2.1013668503937009
11
7.0131365354330706
21
-2.1076445669291339
0
LINE
8
BLACK
6
CONTINUOUS
10
7.0131365354330706
20
-2.1076445669291339
11
7.0137795669291334
21
-2.1141731889763777
0
LINE
8
BLACK
6
CONTINUOUS
10
7.0137795669291334
20
-2.1141731889763777
11
7.0136297637795275
21
-2.1146341338582677
0
LINE
8
BLACK
6
CONTINUOUS
10
7.0136297637795275
20
-2.1146341338582677
11
7.0137795669291334
21
-4.6692913385826769
0
LINE
8
BLACK
6
CONTINUOUS
10
7.0137795669291334
20
-4.6692913385826769
11
7.0137795669291334
21
-4.6692913779527556
0
LINE
8
BLACK
6
CONTINUOUS
10
7.0137795669291334
20
-4.6692913779527556
11
7.0131365354330706
21
-4.6758199999999999
0
LINE
8
BLACK
6
CONTINUOUS
10
7.0131365354330706
20
-4.6758199999999999
11
7.0112322047244096
21
-4.6820977165354334
0
LINE
8
BLACK
6
CONTINUOUS
10
7.0112322047244096
20
-4.6820977165354334
11
7.0081397637795275
21
-4.6878832677165354
0
LINE
8
BLACK
6
CONTINUOUS
10
7.0081397637795275
20
-4.6878832677165354
11
7.0039779921259839
21
-4.6929543700787404
0
LINE
8
BLACK
6
CONTINUOUS
10
7.0039779921259839
20
-4.6929543700787404
11
6.9989068897637789
21
-4.6971161417322831
0
LINE
8
BLACK
6
CONTINUOUS
10
6.9989068897637789
20
-4.6971161417322831
11
6.9931213385826769
21
-4.7002085826771651
0
LINE
8
BLACK
6
CONTINUOUS
10
6.9931213385826769
20
-4.7002085826771651
11
6.9868436220472443
21
-4.702112913385827
0
LINE
8
BLACK
6
CONTINUOUS
10
6.9868436220472443
20
-4.702112913385827
11
6.980315
21
-4.7027559448818899
0
LINE
8
BLACK
6
CONTINUOUS
10
6.980315
20
-4.7027559448818899
11
6.9798539370078743
21
-4.7026061023622043
0
LINE
8
BLACK
6
CONTINUOUS
10
6.9798539370078743
20
-4.7026061023622043
11
2.2795275590551181
21
-4.7027559055118111
0
LINE
8
BLACK
6
CONTINUOUS
10
2.2795275590551181
20
-4.7027559055118111
11
2.2729989370078738
21
-4.7021128740157483
0
LINE
8
BLACK
6
CONTINUOUS
10
2.2729989370078738
20
-4.7021128740157483
11
2.2667212204724407
21
-4.7002085826771651
0
LINE
8
BLACK
6
CONTINUOUS
10
2.2667212204724407
20
-4.7002085826771651
11
2.26093562992126
21
-4.6971161023622043
0
LINE
8
BLACK
6
CONTINUOUS
10
2.26093562992126
20
-4.6971161023622043
11
2.255864527559055
21
-4.6929543700787404
0
LINE
8
BLACK
6
CONTINUOUS
10
2.255864527559055
20
-4.6929543700787404
11
2.2517027952755906
21
-4.6878832677165354
0
LINE
8
BLACK
6
CONTINUOUS
10
2.2517027952755906
20
-4.6878832677165354
11
2.2486103149606298
21
-4.6820976771653546
0
LINE
8
BLACK
6
CONTINUOUS
10
2.2486103149606298
20
-4.6820976771653546
11
2.2467060236220471
21
-4.6758199606299211
0
LINE
8
BLACK
6
CONTINUOUS
10
2.2467060236220471
20
-4.6758199606299211
11
2.2460629921259843
21
-4.6692913385826769
0
LINE
8
BLACK
6
CONTINUOUS
10
2.2460629921259843
20
-4.6692913385826769
11
2.2462127559055118
21
-4.6688303543307086
0
LINE
8
BLACK
6
CONTINUOUS
10
2.2462127559055118
20
-4.6688303543307086
11
2.2460629527559055
21
-2.1141731889763777
0
LINE
8
BLACK
6
CONTINUOUS
10
2.2460629527559055
20
-2.1141731889763777
11
2.2467059842519683
21
-2.1076445669291339
0
LINE
8
BLACK
6
CONTINUOUS
10
2.2467059842519683
20
-2.1076445669291339
11
2.2486103149606298
21
-2.1013668503937009
0
LINE
8
BLACK
6
CONTINUOUS
10
2.2486103149606298
20
-2.1013668503937009
11
2.2517027559055118
21
-2.0955812992125984
0
LINE
8
BLACK
6
CONTINUOUS
10
2.2517027559055118
20
-2.0955812992125984
11
2.255864527559055
21
-2.0905101968503939
0
LINE
8
BLACK
6
CONTINUOUS
10
2.255864527559055
20
-2.0905101968503939
11
2.26093562992126
21
-2.0863484251968503
0
LINE
8
BLACK
6
CONTINUOUS
10
2.26093562992126
20
-2.0863484251968503
11
2.266721181102362
21
-2.0832559842519687
0
LINE
8
BLACK
6
CONTINUOUS
10
2.266721181102362
20
-2.0832559842519687
11
2.2729988976377951
21
-2.0813516535433072
0
LINE
8
BLACK
6
CONTINUOUS
10
2.2729988976377951
20
-2.0813516535433072
11
2.2795275196850393
21
-2.0807086220472439
0
LINE
8
BLACK
6
CONTINUOUS
10
2.2795275196850393
20
-2.0807086220472439
11
2.2799885433070868
21
-2.0808584251968503
0
LINE
8
BLACK
6
CONTINUOUS
10
2.2799885433070868
20
-2.0808584251968503
11
6.980315
21
-2.0807086220472439
0
LINE
8
BLACK
6
CONTINUOUS
10
6.980315
20
-2.0807086220472439
11
6.9868436220472443
21
-2.0813516535433072
0
LINE
8
BLACK
6
CONTINUOUS
10
2.2795275196850393
20
-2.0846456299212597
11
2.2766193307086615
21
-2.0846456299212597
0
LINE
8
BLACK
6
CONTINUOUS
10
2.2766193307086615
20
-2.0846456299212597
11
2.2709146456692912
21
-2.0857803543307085
0
LINE
8
BLACK
6
CONTINUOUS
10
2.2709146456692912
20
-2.0857803543307085
11
2.2655409842519685
21
-2.0880062204724408
0
LINE
8
BLACK
6
CONTINUOUS
10
2.2655409842519685
20
-2.0880062204724408
11
2.2607048031496064
21
-2.0912376377952757
0
LINE
8
BLACK
6
CONTINUOUS
10
2.2607048031496064
20
-2.0912376377952757
11
2.2565919685039368
21
-2.0953504724409449
0
LINE
8
BLACK
6
CONTINUOUS
10
2.2565919685039368
20
-2.0953504724409449
11
2.2533605511811023
21
-2.1001866535433069
0
LINE
8
BLACK
6
CONTINUOUS
10
2.2533605511811023
20
-2.1001866535433069
11
2.2511346850393701
21
-2.1055603149606297
0
LINE
8
BLACK
6
CONTINUOUS
10
2.2511346850393701
20
-2.1055603149606297
11
2.2499999606299212
21
-2.1112649999999999
0
LINE
8
BLACK
6
CONTINUOUS
10
2.2499999606299212
20
-2.1112649999999999
11
2.2499999606299212
21
-2.1141731889763777
0
LINE
8
BLACK
6
CONTINUOUS
10
2.2499999606299212
20
-2.1141731889763777
11
2.2498501574803149
21
-2.1146341338582677
0
LINE
8
BLACK
6
CONTINUOUS
10
2.2498501574803149
20
-2.1146341338582677
11
2.25
21
-4.6692913385826769
0
LINE
8
BLACK
6
CONTINUOUS
10
2.25
20
-4.6692913385826769
11
2.25
21
-4.6721995669291339
0
LINE
8
BLACK
6
CONTINUOUS
10
2.25
20
-4.6721995669291339
11
2.2511347244094488
21
-4.6779042125984249
0
LINE
8
BLACK
6
CONTINUOUS
10
2.2511347244094488
20
-4.6779042125984249
11
2.2533605905511811
21
-4.6832778740157481
0
LINE
8
BLACK
6
CONTINUOUS
10
2.2533605905511811
20
-4.6832778740157481
11
2.2565920078740156
21
-4.6881140551181097
0
LINE
8
BLACK
6
CONTINUOUS
10
2.2565920078740156
20
-4.6881140551181097
11
2.2607048425196852
21
-4.6922268897637798
0
LINE
8
BLACK
6
CONTINUOUS
10
2.2607048425196852
20
-4.6922268897637798
11
2.2655410236220472
21
-4.6954583070866143
0
LINE
8
BLACK
6
CONTINUOUS
10
2.2655410236220472
20
-4.6954583070866143
11
2.27091468503937
21
-4.6976841732283461
0
LINE
8
BLACK
6
CONTINUOUS
10
2.27091468503937
20
-4.6976841732283461
11
2.2766193307086615
21
-4.6988188976377954
0
LINE
8
BLACK
6
CONTINUOUS
10
2.2766193307086615
20
-4.6988188976377954
11
2.2795275590551181
21
-4.6988188976377954
0
LINE
8
BLACK
6
CONTINUOUS
10
2.2795275590551181
20
-4.6988188976377954
11
2.2799885826771651
21
-4.6989687007874013
0
LINE
8
BLACK
6
CONTINUOUS
10
2.2799885826771651
20
-4.6989687007874013
11
6.980315
21
-4.6988189370078741
0
LINE
8
BLACK
6
CONTINUOUS
10
6.980315
20
-4.6988189370078741
11
6.9832231889763774
21
-4.6988189370078741
0
LINE
8
BLACK
6
CONTINUOUS
10
6.9832231889763774
20
-4.6988189370078741
11
6.9889278740157481
21
-4.6976842125984248
0
LINE
8
BLACK
6
CONTINUOUS
10
6.9889278740157481
20
-4.6976842125984248
11
6.9943015354330704
21
-4.695458346456693
0
LINE
8
BLACK
6
CONTINUOUS
10
6.9943015354330704
20
-4.695458346456693
11
6.9991377165354329
21
-4.6922269291338585
0
LINE
8
BLACK
6
CONTINUOUS
10
6.9991377165354329
20
-4.6922269291338585
11
7.0032505511811021
21
-4.6881140944881885
0
LINE
8
BLACK
6
CONTINUOUS
10
7.0032505511811021
20
-4.6881140944881885
11
7.0064819685039366
21
-4.6832779133858269
0
LINE
8
BLACK
6
CONTINUOUS
10
7.0064819685039366
20
-4.6832779133858269
11
7.0087078346456693
21
-4.6779042519685037
0
LINE
8
BLACK
6
CONTINUOUS
10
7.0087078346456693
20
-4.6779042519685037
11
7.0098425590551177
21
-4.6721995669291339
0
LINE
8
BLACK
6
CONTINUOUS
10
7.0098425590551177
20
-4.6721995669291339
11
7.0098425590551177
21
-4.6692913779527556
0
LINE
8
BLACK
6
CONTINUOUS
10
7.0098425590551177
20
-4.6692913779527556
11
7.0099923228346457
21
-4.6688303937007873
0
LINE
8
BLACK
6
CONTINUOUS
10
7.0099923228346457
20
-4.6688303937007873
11
7.0098425590551177
21
-2.1141731889763777
0
LINE
8
BLACK
6
CONTINUOUS
10
7.0098425590551177
20
-2.1141731889763777
11
7.0098425590551177
21
-2.1112649999999999
0
LINE
8
BLACK
6
CONTINUOUS
10
7.0098425590551177
20
-2.1112649999999999
11
7.0087078346456693
21
-2.1055603149606297
0
LINE
8
BLACK
6
CONTINUOUS
10
7.0087078346456693
20
-2.1055603149606297
11
7.0064819685039366
21
-2.1001866535433069
0
LINE
8
BLACK
6
CONTINUOUS
10
7.0064819685039366
20
-2.1001866535433069
11
7.0032505511811021
21
-2.0953504724409449
0
LINE
8
BLACK
6
CONTINUOUS
10
7.0032505511811021
20
-2.0953504724409449
11
6.9991377165354329
21
-2.0912376377952757
0
LINE
8
BLACK
6
CONTINUOUS
10
6.9991377165354329
20
-2.0912376377952757
11
6.9943015354330704
21
-2.0880062204724408
0
LINE
8
BLACK
6
CONTINUOUS
10
6.9943015354330704
20
-2.0880062204724408
11
6.9889278740157481
21
-2.0857803543307085
0
LINE
8
BLACK
6
CONTINUOUS
10
6.9889278740157481
20
-2.0857803543307085
11
6.9832231889763774
21
-2.0846456299212597
0
LINE
8
BLACK
6
CONTINUOUS
10
6.9832231889763774
20
-2.0846456299212597
11
6.980315
21
-2.0846456299212597
0
LINE
8
BLACK
6
CONTINUOUS
10
6.980315
20
-2.0846456299212597
11
6.9798539370078743
21
-2.0844957874015746
0
LINE
8
BLACK
6
CONTINUOUS
10
6.9798539370078743
20
-2.0844957874015746
11
2.2795275196850393
21
-2.0846456299212597
0
LINE
8
BLACK
6
CONTINUOUS
10
5.1783399999999995
20
-4.0066198031496061
11
5.1919746062992127
21
-4.0096210236220475
0
LINE
8
BLACK
6
CONTINUOUS
10
5.1919746062992127
20
-4.0096210236220475
11
5.2052048031496065
21
-4.0140787795275585
0
LINE
8
BLACK
6
CONTINUOUS
10
5.2052048031496065
20
-4.0140787795275585
11
5.2178755118110232
21
-4.0199408661417326
0
LINE
8
BLACK
6
CONTINUOUS
10
5.2178755118110232
20
-4.0199408661417326
11
5.2298381102362201
21
-4.0271385433070863
0
LINE
8
BLACK
6
CONTINUOUS
10
5.2298381102362201
20
-4.0271385433070863
11
5.240952362204724
21
-4.0355873622047245
0
LINE
8
BLACK
6
CONTINUOUS
10
5.240952362204724
20
-4.0355873622047245
11
5.2510879921259841
21
-4.0451883464566931
0
LINE
8
BLACK
6
CONTINUOUS
10
5.2510879921259841
20
-4.0451883464566931
11
5.2601261811023621
21
-4.0558288976377952
0
LINE
8
BLACK
6
CONTINUOUS
10
5.2601261811023621
20
-4.0558288976377952
11
5.2679609055118108
21
-4.0673842913385823
0
LINE
8
BLACK
6
CONTINUOUS
10
5.2679609055118108
20
-4.0673842913385823
11
5.2745003543307085
21
-4.0797190157480312
0
LINE
8
BLACK
6
CONTINUOUS
10
5.2745003543307085
20
-4.0797190157480312
11
5.2796678740157477
21
-4.0926884645669288
0
LINE
8
BLACK
6
CONTINUOUS
10
5.2796678740157477
20
-4.0926884645669288
11
5.2834028346456687
21
-4.1061406299212599
0
LINE
8
BLACK
6
CONTINUOUS
10
5.2834028346456687
20
-4.1061406299212599
11
5.2856614960629917
21
-4.1199177165354328
0
LINE
8
BLACK
6
CONTINUOUS
10
5.2856614960629917
20
-4.1199177165354328
11
5.2864173228346454
21
-4.1338582677165352
0
LINE
8
BLACK
6
CONTINUOUS
10
5.2864173228346454
20
-4.1338582677165352
11
5.2856614960629917
21
-4.1477988188976376
0
LINE
8
BLACK
6
CONTINUOUS
10
5.2856614960629917
20
-4.1477988188976376
11
5.2834028346456687
21
-4.1615759055118113
0
LINE
8
BLACK
6
CONTINUOUS
10
5.2834028346456687
20
-4.1615759055118113
11
5.2796678740157477
21
-4.1750280708661416
0
LINE
8
BLACK
6
CONTINUOUS
10
5.2796678740157477
20
-4.1750280708661416
11
5.2745003543307085
21
-4.1879975196850392
0
LINE
8
BLACK
6
CONTINUOUS
10
5.2745003543307085
20
-4.1879975196850392
11
5.2679609055118108
21
-4.2003322440944881
0
LINE
8
BLACK
6
CONTINUOUS
10
5.2679609055118108
20
-4.2003322440944881
11
5.2601261811023621
21
-4.2118876377952752
0
LINE
8
BLACK
6
CONTINUOUS
10
5.2601261811023621
20
-4.2118876377952752
11
5.2510879921259841
21
-4.2225281889763782
0
LINE
8
BLACK
6
CONTINUOUS
10
5.2510879921259841
20
-4.2225281889763782
11
5.240952362204724
21
-4.2321291732283459
0
LINE
8
BLACK
6
CONTINUOUS
10
5.240952362204724
20
-4.2321291732283459
11
5.2298381102362201
21
-4.2405779921259841
0
LINE
8
BLACK
6
CONTINUOUS
10
5.2298381102362201
20
-4.2405779921259841
11
5.2178755118110232
21
-4.2477756692913387
0
LINE
8
BLACK
6
CONTINUOUS
10
5.2178755118110232
20
-4.2477756692913387
11
5.2052048031496065
21
-4.2536377559055119
0
LINE
8
BLACK
6
CONTINUOUS
10
5.2052048031496065
20
-4.2536377559055119
11
5.1919746062992127
21
-4.2580955118110237
0
LINE
8
BLACK
6
CONTINUOUS
10
5.1919746062992127
20
-4.2580955118110237
11
5.1783399999999995
21
-4.2610967322834643
0
LINE
8
BLACK
6
CONTINUOUS
10
5.1783399999999995
20
-4.2610967322834643
11
5.1644608267716539
21
-4.2626061811023623
0
LINE
8
BLACK
6
CONTINUOUS
10
5.1644608267716539
20
-4.2626061811023623
11
5.1504998031496063
21
-4.2626061811023623
0
LINE
8
BLACK
6
CONTINUOUS
10
5.1504998031496063
20
-4.2626061811023623
11
5.1366206299212598
21
-4.2610967322834643
0
LINE
8
BLACK
6
CONTINUOUS
10
5.1366206299212598
20
-4.2610967322834643
11
5.1229860236220475
21
-4.2580955118110237
0
LINE
8
BLACK
6
CONTINUOUS
10
5.1229860236220475
20
-4.2580955118110237
11
5.1097558267716536
21
-4.2536377559055119
0
LINE
8
BLACK
6
CONTINUOUS
10
5.1097558267716536
20
-4.2536377559055119
11
5.0970851181102361
21
-4.2477756692913387
0
LINE
8
BLACK
6
CONTINUOUS
10
5.0970851181102361
20
-4.2477756692913387
11
5.0851225196850391
21
-4.2405779921259841
0
LINE
8
BLACK
6
CONTINUOUS
10
5.0851225196850391
20
-4.2405779921259841
11
5.0740082677165352
21
-4.2321291732283459
0
LINE
8
BLACK
6
CONTINUOUS
10
5.0740082677165352
20
-4.2321291732283459
11
5.0638726377952752
21
-4.2225281889763782
0
LINE
8
BLACK
6
CONTINUOUS
10
5.0638726377952752
20
-4.2225281889763782
11
5.0548344488188972
21
-4.2118876377952752
0
LINE
8
BLACK
6
CONTINUOUS
10
5.0548344488188972
20
-4.2118876377952752
11
5.0469997244094484
21
-4.2003322440944881
0
LINE
8
BLACK
6
CONTINUOUS
10
5.0469997244094484
20
-4.2003322440944881
11
5.0404602755905508
21
-4.1879975196850392
0
LINE
8
BLACK
6
CONTINUOUS
10
5.0404602755905508
20
-4.1879975196850392
11
5.0352927559055116
21
-4.1750280708661416
0
LINE
8
BLACK
6
CONTINUOUS
10
5.0352927559055116
20
-4.1750280708661416
11
5.0315577952755905
21
-4.1615759055118113
0
LINE
8
BLACK
6
CONTINUOUS
10
5.0315577952755905
20
-4.1615759055118113
11
5.0292991338582675
21
-4.1477988188976376
0
LINE
8
BLACK
6
CONTINUOUS
10
5.0292991338582675
20
-4.1477988188976376
11
5.0285433070866139
21
-4.1338582677165352
0
LINE
8
BLACK
6
CONTINUOUS
10
5.0285433070866139
20
-4.1338582677165352
11
5.0292991338582675
21
-4.1199177165354328
0
LINE
8
BLACK
6
CONTINUOUS
10
5.0292991338582675
20
-4.1199177165354328
11
5.0315577952755905
21
-4.1061406299212599
0
LINE
8
BLACK
6
CONTINUOUS
10
5.0315577952755905
20
-4.1061406299212599
11
5.0352927559055116
21
-4.0926884645669288
0
LINE
8
BLACK
6
CONTINUOUS
10
5.0352927559055116
20
-4.0926884645669288
11
5.0404602755905508
21
-4.0797190157480312
0
LINE
8
BLACK
6
CONTINUOUS
10
5.0404602755905508
20
-4.0797190157480312
11
5.0469997244094484
21
-4.0673842913385823
0
LINE
8
BLACK
6
CONTINUOUS
10
5.0469997244094484
20
-4.0673842913385823
11
5.0548344488188972
21
-4.0558288976377952
0
LINE
8
BLACK
6
CONTINUOUS
10
5.0548344488188972
20
-4.0558288976377952
11
5.0638726377952752
21
-4.0451883464566931
0
LINE
8
BLACK
6
CONTINUOUS
10
5.0638726377952752
20
-4.0451883464566931
11
5.0740082677165352
21
-4.0355873622047245
0
LINE
8
BLACK
6
CONTINUOUS
10
5.0740082677165352
20
-4.0355873622047245
11
5.0851225196850391
21
-4.0271385433070863
0
LINE
8
BLACK
6
CONTINUOUS
10
5.0851225196850391
20
-4.0271385433070863
11
5.0970851181102361
21
-4.0199408661417326
0
LINE
8
BLACK
6
CONTINUOUS
10
5.0970851181102361
20
-4.0199408661417326
11
5.1097558267716536
21
-4.0140787795275585
0
LINE
8
BLACK
6
CONTINUOUS
10
5.1097558267716536
20
-4.0140787795275585
11
5.1229860236220475
21
-4.0096210236220475
0
LINE
8
BLACK
6
CONTINUOUS
10
5.1229860236220475
20
-4.0096210236220475
11
5.1366206299212598
21
-4.0066198031496061
0
LINE
8
BLACK
6
CONTINUOUS
10
5.1366206299212598
20
-4.0066198031496061
11
5.1504998031496063
21
-4.0051103543307089
0
LINE
8
BLACK
6
CONTINUOUS
10
5.1504998031496063
20
-4.0051103543307089
11
5.1644608267716539
21
-4.0051103543307089
0
LINE
8
BLACK
6
CONTINUOUS
10
5.1644608267716539
20
-4.0051103543307089
11
5.1783399999999995
21
-4.0066198031496061
0
LINE
8
BLACK
6
CONTINUOUS
10
5.0350297637795274
20
-4.1476551181102357
11
5.0373444881889764
21
-4.1612785039370079
0
LINE
8
BLACK
6
CONTINUOUS
10
5.0373444881889764
20
-4.1612785039370079
11
5.0411699606299214
21
-4.1745570078740153
0
LINE
8
BLACK
6
CONTINUOUS
10
5.0411699606299214
20
-4.1745570078740153
11
5.0464581102362205
21
-4.1873237401574803
0
LINE
8
BLACK
6
CONTINUOUS
10
5.0464581102362205
20
-4.1873237401574803
11
5.0531424409448817
21
-4.1994181102362207
0
LINE
8
BLACK
6
CONTINUOUS
10
5.0531424409448817
20
-4.1994181102362207
11
5.0611388582677161
21
-4.2106880314960629
0
LINE
8
BLACK
6
CONTINUOUS
10
5.0611388582677161
20
-4.2106880314960629
11
5.070346850393701
21
-4.2209917322834647
0
LINE
8
BLACK
6
CONTINUOUS
10
5.070346850393701
20
-4.2209917322834647
11
5.080650551181102
21
-4.2301997244094487
0
LINE
8
BLACK
6
CONTINUOUS
10
5.080650551181102
20
-4.2301997244094487
11
5.091920472440945
21
-4.2381961417322831
0
LINE
8
BLACK
6
CONTINUOUS
10
5.091920472440945
20
-4.2381961417322831
11
5.1040148425196845
21
-4.2448804724409444
0
LINE
8
BLACK
6
CONTINUOUS
10
5.1040148425196845
20
-4.2448804724409444
11
5.1167815748031495
21
-4.2501686220472443
0
LINE
8
BLACK
6
CONTINUOUS
10
5.1167815748031495
20
-4.2501686220472443
11
5.1300600787401578
21
-4.2539940944881884
0
LINE
8
BLACK
6
CONTINUOUS
10
5.1300600787401578
20
-4.2539940944881884
11
5.1436834645669292
21
-4.2563088188976375
0
LINE
8
BLACK
6
CONTINUOUS
10
5.1436834645669292
20
-4.2563088188976375
11
5.1574803149606296
21
-4.2570836220472437
0
LINE
8
BLACK
6
CONTINUOUS
10
5.1574803149606296
20
-4.2570836220472437
11
5.171277165354331
21
-4.2563088188976375
0
LINE
8
BLACK
6
CONTINUOUS
10
5.171277165354331
20
-4.2563088188976375
11
5.1849005511811024
21
-4.2539940944881884
0
LINE
8
BLACK
6
CONTINUOUS
10
5.1849005511811024
20
-4.2539940944881884
11
5.1981790551181097
21
-4.2501686220472443
0
LINE
8
BLACK
6
CONTINUOUS
10
5.1981790551181097
20
-4.2501686220472443
11
5.2109457874015748
21
-4.2448804724409444
0
LINE
8
BLACK
6
CONTINUOUS
10
5.2109457874015748
20
-4.2448804724409444
11
5.2230401574803151
21
-4.2381961417322831
0
LINE
8
BLACK
6
CONTINUOUS
10
5.2230401574803151
20
-4.2381961417322831
11
5.2343100787401573
21
-4.2301997244094487
0
LINE
8
BLACK
6
CONTINUOUS
10
5.2343100787401573
20
-4.2301997244094487
11
5.2446137795275591
21
-4.2209917322834647
0
LINE
8
BLACK
6
CONTINUOUS
10
5.2446137795275591
20
-4.2209917322834647
11
5.2538217716535431
21
-4.2106880314960629
0
LINE
8
BLACK
6
CONTINUOUS
10
5.2538217716535431
20
-4.2106880314960629
11
5.2618181889763775
21
-4.1994181102362207
0
LINE
8
BLACK
6
CONTINUOUS
10
5.2618181889763775
20
-4.1994181102362207
11
5.2685025196850397
21
-4.1873237401574803
0
LINE
8
BLACK
6
CONTINUOUS
10
5.2685025196850397
20
-4.1873237401574803
11
5.2737906692913388
21
-4.1745570078740153
0
LINE
8
BLACK
6
CONTINUOUS
10
5.2737906692913388
20
-4.1745570078740153
11
5.2776161417322838
21
-4.1612785039370079
0
LINE
8
BLACK
6
CONTINUOUS
10
5.2776161417322838
20
-4.1612785039370079
11
5.2799308661417319
21
-4.1476551181102357
0
LINE
8
BLACK
6
CONTINUOUS
10
5.2799308661417319
20
-4.1476551181102357
11
5.2807056692913381
21
-4.1338582677165352
0
LINE
8
BLACK
6
CONTINUOUS
10
5.2807056692913381
20
-4.1338582677165352
11
5.2799308661417319
21
-4.1200614173228347
0
LINE
8
BLACK
6
CONTINUOUS
10
5.2799308661417319
20
-4.1200614173228347
11
5.2776161417322838
21
-4.1064380314960625
0
LINE
8
BLACK
6
CONTINUOUS
10
5.2776161417322838
20
-4.1064380314960625
11
5.2737906692913388
21
-4.0931595275590551
0
LINE
8
BLACK
6
CONTINUOUS
10
5.2737906692913388
20
-4.0931595275590551
11
5.2685025196850397
21
-4.0803927952755901
0
LINE
8
BLACK
6
CONTINUOUS
10
5.2685025196850397
20
-4.0803927952755901
11
5.2618181889763775
21
-4.0682984251968506
0
LINE
8
BLACK
6
CONTINUOUS
10
5.2618181889763775
20
-4.0682984251968506
11
5.2538217716535431
21
-4.0570285039370075
0
LINE
8
BLACK
6
CONTINUOUS
10
5.2538217716535431
20
-4.0570285039370075
11
5.2446137795275591
21
-4.0467248031496066
0
LINE
8
BLACK
6
CONTINUOUS
10
5.2446137795275591
20
-4.0467248031496066
11
5.2343100787401573
21
-4.0375168110236217
0
LINE
8
BLACK
6
CONTINUOUS
10
5.2343100787401573
20
-4.0375168110236217
11
5.2230401574803151
21
-4.0295203937007873
0
LINE
8
BLACK
6
CONTINUOUS
10
5.2230401574803151
20
-4.0295203937007873
11
5.2109457874015748
21
-4.022836062992126
0
LINE
8
BLACK
6
CONTINUOUS
10
5.2109457874015748
20
-4.022836062992126
11
5.1981790551181097
21
-4.017547913385827
0
LINE
8
BLACK
6
CONTINUOUS
10
5.1981790551181097
20
-4.017547913385827
11
5.1849005511811024
21
-4.013722440944882
0
LINE
8
BLACK
6
CONTINUOUS
10
5.1849005511811024
20
-4.013722440944882
11
5.171277165354331
21
-4.0114077165354329
0
LINE
8
BLACK
6
CONTINUOUS
10
5.171277165354331
20
-4.0114077165354329
11
5.1574803149606296
21
-4.0106329133858267
0
LINE
8
BLACK
6
CONTINUOUS
10
5.1574803149606296
20
-4.0106329133858267
11
5.1436834645669292
21
-4.0114077165354329
0
LINE
8
BLACK
6
CONTINUOUS
10
5.1436834645669292
20
-4.0114077165354329
11
5.1300600787401578
21
-4.013722440944882
0
LINE
8
BLACK
6
CONTINUOUS
10
5.1300600787401578
20
-4.013722440944882
11
5.1167815748031495
21
-4.017547913385827
0
LINE
8
BLACK
6
CONTINUOUS
10
5.1167815748031495
20
-4.017547913385827
11
5.1040148425196845
21
-4.022836062992126
0
LINE
8
BLACK
6
CONTINUOUS
10
5.1040148425196845
20
-4.022836062992126
11
5.091920472440945
21
-4.0295203937007873
0
LINE
8
BLACK
6
CONTINUOUS
10
5.091920472440945
20
-4.0295203937007873
11
5.080650551181102
21
-4.0375168110236217
0
LINE
8
BLACK
6
CONTINUOUS
10
5.080650551181102
20
-4.0375168110236217
11
5.070346850393701
21
-4.0467248031496066
0
LINE
8
BLACK
6
CONTINUOUS
10
5.070346850393701
20
-4.0467248031496066
11
5.0611388582677161
21
-4.0570285039370075
0
LINE
8
BLACK
6
CONTINUOUS
10
5.0611388582677161
20
-4.0570285039370075
11
5.0531424409448817
21
-4.0682984251968506
0
LINE
8
BLACK
6
CONTINUOUS
10
5.0531424409448817
20
-4.0682984251968506
11
5.0464581102362205
21
-4.0803927952755901
0
LINE
8
BLACK
6
CONTINUOUS
10
5.0464581102362205
20
-4.0803927952755901
11
5.0411699606299214
21
-4.0931595275590551
0
LINE
8
BLACK
6
CONTINUOUS
10
5.0411699606299214
20
-4.0931595275590551
11
5.0373444881889764
21
-4.1064380314960625
0
LINE
8
BLACK
6
CONTINUOUS
10
5.0373444881889764
20
-4.1064380314960625
11
5.0350297637795274
21
-4.1200614173228347
0
LINE
8
BLACK
6
CONTINUOUS
10
5.0350297637795274
20
-4.1200614173228347
11
5.0342549606299212
21
-4.1338582677165352
0
LINE
8
BLACK
6
CONTINUOUS
10
5.0342549606299212
20
-4.1338582677165352
11
5.0350297637795274
21
-4.1476551181102357
0
LINE
8
BLACK
6
CONTINUOUS
10
2.7767651968503935
20
-3.6916591732283464
11
2.7903998031496062
21
-3.6946603937007874
0
LINE
8
BLACK
6
CONTINUOUS
10
2.7903998031496062
20
-3.6946603937007874
11
2.8036300000000001
21
-3.6991181496062993
0
LINE
8
BLACK
6
CONTINUOUS
10
2.8036300000000001
20
-3.6991181496062993
11
2.8163007086614171
21
-3.7049802362204725
0
LINE
8
BLACK
6
CONTINUOUS
10
2.8163007086614171
20
-3.7049802362204725
11
2.8282633070866141
21
-3.7121779133858266
0
LINE
8
BLACK
6
CONTINUOUS
10
2.8282633070866141
20
-3.7121779133858266
11
2.839377559055118
21
-3.7206267322834643
0
LINE
8
BLACK
6
CONTINUOUS
10
2.839377559055118
20
-3.7206267322834643
11
2.8495131889763781
21
-3.7302277165354329
0
LINE
8
BLACK
6
CONTINUOUS
10
2.8495131889763781
20
-3.7302277165354329
11
2.858551377952756
21
-3.7408682677165355
0
LINE
8
BLACK
6
CONTINUOUS
10
2.858551377952756
20
-3.7408682677165355
11
2.8663861023622048
21
-3.7524236614173225
0
LINE
8
BLACK
6
CONTINUOUS
10
2.8663861023622048
20
-3.7524236614173225
11
2.8729255511811025
21
-3.7647583858267715
0
LINE
8
BLACK
6
CONTINUOUS
10
2.8729255511811025
20
-3.7647583858267715
11
2.8780930708661416
21
-3.7777278346456691
0
LINE
8
BLACK
6
CONTINUOUS
10
2.8780930708661416
20
-3.7777278346456691
11
2.8818280314960631
21
-3.7911799999999998
0
LINE
8
BLACK
6
CONTINUOUS
10
2.8818280314960631
20
-3.7911799999999998
11
2.8840866929133857
21
-3.8049570866141731
0
LINE
8
BLACK
6
CONTINUOUS
10
2.8840866929133857
20
-3.8049570866141731
11
2.8848425196850394
21
-3.8188976377952755
0
LINE
8
BLACK
6
CONTINUOUS
10
2.8848425196850394
20
-3.8188976377952755
11
2.8840866929133857
21
-3.8328381889763778
0
LINE
8
BLACK
6
CONTINUOUS
10
2.8840866929133857
20
-3.8328381889763778
11
2.8818280314960631
21
-3.8466152755905512
0
LINE
8
BLACK
6
CONTINUOUS
10
2.8818280314960631
20
-3.8466152755905512
11
2.8780930708661416
21
-3.8600674409448819
0
LINE
8
BLACK
6
CONTINUOUS
10
2.8780930708661416
20
-3.8600674409448819
11
2.8729255511811025
21
-3.8730368897637795
0
LINE
8
BLACK
6
CONTINUOUS
10
2.8729255511811025
20
-3.8730368897637795
11
2.8663861023622048
21
-3.8853716141732284
0
LINE
8
BLACK
6
CONTINUOUS
10
2.8663861023622048
20
-3.8853716141732284
11
2.858551377952756
21
-3.8969270078740155
0
LINE
8
BLACK
6
CONTINUOUS
10
2.858551377952756
20
-3.8969270078740155
11
2.8495131889763781
21
-3.907567559055118
0
LINE
8
BLACK
6
CONTINUOUS
10
2.8495131889763781
20
-3.907567559055118
11
2.839377559055118
21
-3.9171685433070866
0
LINE
8
BLACK
6
CONTINUOUS
10
2.839377559055118
20
-3.9171685433070866
11
2.8282633070866141
21
-3.9256173622047243
0
LINE
8
BLACK
6
CONTINUOUS
10
2.8282633070866141
20
-3.9256173622047243
11
2.8163007086614171
21
-3.9328150393700785
0
LINE
8
BLACK
6
CONTINUOUS
10
2.8163007086614171
20
-3.9328150393700785
11
2.8036300000000001
21
-3.9386771259842517
0
LINE
8
BLACK
6
CONTINUOUS
10
2.8036300000000001
20
-3.9386771259842517
11
2.7903998031496062
21
-3.9431348818897636
0
LINE
8
BLACK
6
CONTINUOUS
10
2.7903998031496062
20
-3.9431348818897636
11
2.7767651968503935
21
-3.9461361023622046
0
LINE
8
BLACK
6
CONTINUOUS
10
2.7767651968503935
20
-3.9461361023622046
11
2.7628860236220474
21
-3.9476455511811022
0
LINE
8
BLACK
6
CONTINUOUS
10
2.7628860236220474
20
-3.9476455511811022
11
2.7489249999999998
21
-3.9476455511811022
0
LINE
8
BLACK
6
CONTINUOUS
10
2.7489249999999998
20
-3.9476455511811022
11
2.7350458267716533
21
-3.9461361023622046
0
LINE
8
BLACK
6
CONTINUOUS
10
2.7350458267716533
20
-3.9461361023622046
11
2.721411220472441
21
-3.9431348818897636
0
LINE
8
BLACK
6
CONTINUOUS
10
2.721411220472441
20
-3.9431348818897636
11
2.7081810236220472
21
-3.9386771259842517
0
LINE
8
BLACK
6
CONTINUOUS
10
2.7081810236220472
20
-3.9386771259842517
11
2.6955103149606296
21
-3.9328150393700785
0
LINE
8
BLACK
6
CONTINUOUS
10
2.6955103149606296
20
-3.9328150393700785
11
2.6835477165354331
21
-3.9256173622047243
0
LINE
8
BLACK
6
CONTINUOUS
10
2.6835477165354331
20
-3.9256173622047243
11
2.6724334645669292
21
-3.9171685433070866
0
LINE
8
BLACK
6
CONTINUOUS
10
2.6724334645669292
20
-3.9171685433070866
11
2.6622978346456692
21
-3.907567559055118
0
LINE
8
BLACK
6
CONTINUOUS
10
2.6622978346456692
20
-3.907567559055118
11
2.6532596456692912
21
-3.8969270078740155
0
LINE
8
BLACK
6
CONTINUOUS
10
2.6532596456692912
20
-3.8969270078740155
11
2.6454249212598424
21
-3.8853716141732284
0
LINE
8
BLACK
6
CONTINUOUS
10
2.6454249212598424
20
-3.8853716141732284
11
2.6388854724409447
21
-3.8730368897637795
0
LINE
8
BLACK
6
CONTINUOUS
10
2.6388854724409447
20
-3.8730368897637795
11
2.6337179527559056
21
-3.8600674409448819
0
LINE
8
BLACK
6
CONTINUOUS
10
2.6337179527559056
20
-3.8600674409448819
11
2.6299829921259841
21
-3.8466152755905512
0
LINE
8
BLACK
6
CONTINUOUS
10
2.6299829921259841
20
-3.8466152755905512
11
2.6277243307086615
21
-3.8328381889763778
0
LINE
8
BLACK
6
CONTINUOUS
10
2.6277243307086615
20
-3.8328381889763778
11
2.6269685039370079
21
-3.8188976377952755
0
LINE
8
BLACK
6
CONTINUOUS
10
2.6269685039370079
20
-3.8188976377952755
11
2.6277243307086615
21
-3.8049570866141731
0
LINE
8
BLACK
6
CONTINUOUS
10
2.6277243307086615
20
-3.8049570866141731
11
2.6299829921259841
21
-3.7911799999999998
0
LINE
8
BLACK
6
CONTINUOUS
10
2.6299829921259841
20
-3.7911799999999998
11
2.6337179527559056
21
-3.7777278346456691
0
LINE
8
BLACK
6
CONTINUOUS
10
2.6337179527559056
20
-3.7777278346456691
11
2.6388854724409447
21
-3.7647583858267715
0
LINE
8
BLACK
6
CONTINUOUS
10
2.6388854724409447
20
-3.7647583858267715
11
2.6454249212598424
21
-3.7524236614173225
0
LINE
8
BLACK
6
CONTINUOUS
10
2.6454249212598424
20
-3.7524236614173225
11
2.6532596456692912
21
-3.7408682677165355
0
LINE
8
BLACK
6
CONTINUOUS
10
2.6532596456692912
20
-3.7408682677165355
11
2.6622978346456692
21
-3.7302277165354329
0
LINE
8
BLACK
6
CONTINUOUS
10
2.6622978346456692
20
-3.7302277165354329
11
2.6724334645669292
21
-3.7206267322834643
0
LINE
8
BLACK
6
CONTINUOUS
10
2.6724334645669292
20
-3.7206267322834643
11
2.6835477165354331
21
-3.7121779133858266
0
LINE
8
BLACK
6
CONTINUOUS
10
2.6835477165354331
20
-3.7121779133858266
11
2.6955103149606296
21
-3.7049802362204725
0
LINE
8
BLACK
6
CONTINUOUS
10
2.6955103149606296
20
-3.7049802362204725
11
2.7081810236220472
21
-3.6991181496062993
0
LINE
8
BLACK
6
CONTINUOUS
10
2.7081810236220472
20
-3.6991181496062993
11
2.721411220472441
21
-3.6946603937007874
0
LINE
8
BLACK
6
CONTINUOUS
10
2.721411220472441
20
-3.6946603937007874
11
2.7350458267716533
21
-3.6916591732283464
0
LINE
8
BLACK
6
CONTINUOUS
10
2.7350458267716533
20
-3.6916591732283464
11
2.7489249999999998
21
-3.6901497244094488
0
LINE
8
BLACK
6
CONTINUOUS
10
2.7489249999999998
20
-3.6901497244094488
11
2.7628860236220474
21
-3.6901497244094488
0
LINE
8
BLACK
6
CONTINUOUS
10
2.7628860236220474
20
-3.6901497244094488
11
2.7767651968503935
21
-3.6916591732283464
0
LINE
8
BLACK
6
CONTINUOUS
10
2.6334549606299213
20
-3.8326944881889764
11
2.6357696850393699
21
-3.8463178740157478
0
LINE
8
BLACK
6
CONTINUOUS
10
2.6357696850393699
20
-3.8463178740157478
11
2.6395951574803149
21
-3.859596377952756
0
LINE
8
BLACK
6
CONTINUOUS
10
2.6395951574803149
20
-3.859596377952756
11
2.644883307086614
21
-3.8723631102362206
0
LINE
8
BLACK
6
CONTINUOUS
10
2.644883307086614
20
-3.8723631102362206
11
2.6515676377952757
21
-3.8844574803149605
0
LINE
8
BLACK
6
CONTINUOUS
10
2.6515676377952757
20
-3.8844574803149605
11
2.6595640551181101
21
-3.8957274015748031
0
LINE
8
BLACK
6
CONTINUOUS
10
2.6595640551181101
20
-3.8957274015748031
11
2.6687720472440946
21
-3.9060311023622045
0
LINE
8
BLACK
6
CONTINUOUS
10
2.6687720472440946
20
-3.9060311023622045
11
2.679075748031496
21
-3.915239094488189
0
LINE
8
BLACK
6
CONTINUOUS
10
2.679075748031496
20
-3.915239094488189
11
2.6903456692913386
21
-3.9232355118110234
0
LINE
8
BLACK
6
CONTINUOUS
10
2.6903456692913386
20
-3.9232355118110234
11
2.7024400393700785
21
-3.9299198425196851
0
LINE
8
BLACK
6
CONTINUOUS
10
2.7024400393700785
20
-3.9299198425196851
11
2.7152067716535431
21
-3.9352079921259842
0
LINE
8
BLACK
6
CONTINUOUS
10
2.7152067716535431
20
-3.9352079921259842
11
2.7284852755905513
21
-3.9390334645669292
0
LINE
8
BLACK
6
CONTINUOUS
10
2.7284852755905513
20
-3.9390334645669292
11
2.7421086614173227
21
-3.9413481889763777
0
LINE
8
BLACK
6
CONTINUOUS
10
2.7421086614173227
20
-3.9413481889763777
11
2.7559055118110236
21
-3.9421229921259844
0
LINE
8
BLACK
6
CONTINUOUS
10
2.7559055118110236
20
-3.9421229921259844
11
2.7697023622047245
21
-3.9413481889763777
0
LINE
8
BLACK
6
CONTINUOUS
10
2.7697023622047245
20
-3.9413481889763777
11
2.7833257480314959
21
-3.9390334645669292
0
LINE
8
BLACK
6
CONTINUOUS
10
2.7833257480314959
20
-3.9390334645669292
11
2.7966042519685037
21
-3.9352079921259842
0
LINE
8
BLACK
6
CONTINUOUS
10
2.7966042519685037
20
-3.9352079921259842
11
2.8093709842519683
21
-3.9299198425196851
0
LINE
8
BLACK
6
CONTINUOUS
10
2.8093709842519683
20
-3.9299198425196851
11
2.8214653543307087
21
-3.9232355118110234
0
LINE
8
BLACK
6
CONTINUOUS
10
2.8214653543307087
20
-3.9232355118110234
11
2.8327352755905513
21
-3.915239094488189
0
LINE
8
BLACK
6
CONTINUOUS
10
2.8327352755905513
20
-3.915239094488189
11
2.8430389763779527
21
-3.9060311023622045
0
LINE
8
BLACK
6
CONTINUOUS
10
2.8430389763779527
20
-3.9060311023622045
11
2.8522469685039371
21
-3.8957274015748031
0
LINE
8
BLACK
6
CONTINUOUS
10
2.8522469685039371
20
-3.8957274015748031
11
2.8602433858267715
21
-3.8844574803149605
0
LINE
8
BLACK
6
CONTINUOUS
10
2.8602433858267715
20
-3.8844574803149605
11
2.8669277165354332
21
-3.8723631102362206
0
LINE
8
BLACK
6
CONTINUOUS
10
2.8669277165354332
20
-3.8723631102362206
11
2.8722158661417323
21
-3.859596377952756
0
LINE
8
BLACK
6
CONTINUOUS
10
2.8722158661417323
20
-3.859596377952756
11
2.8760413385826773
21
-3.8463178740157478
0
LINE
8
BLACK
6
CONTINUOUS
10
2.8760413385826773
20
-3.8463178740157478
11
2.8783560629921259
21
-3.8326944881889764
0
LINE
8
BLACK
6
CONTINUOUS
10
2.8783560629921259
20
-3.8326944881889764
11
2.8791308661417321
21
-3.8188976377952755
0
LINE
8
BLACK
6
CONTINUOUS
10
2.8791308661417321
20
-3.8188976377952755
11
2.8783560629921259
21
-3.8051007874015745
0
LINE
8
BLACK
6
CONTINUOUS
10
2.8783560629921259
20
-3.8051007874015745
11
2.8760413385826773
21
-3.7914774015748032
0
LINE
8
BLACK
6
CONTINUOUS
10
2.8760413385826773
20
-3.7914774015748032
11
2.8722158661417323
21
-3.7781988976377954
0
LINE
8
BLACK
6
CONTINUOUS
10
2.8722158661417323
20
-3.7781988976377954
11
2.8669277165354332
21
-3.7654321653543308
0
LINE
8
BLACK
6
CONTINUOUS
10
2.8669277165354332
20
-3.7654321653543308
11
2.8602433858267715
21
-3.7533377952755904
0
LINE
8
BLACK
6
CONTINUOUS
10
2.8602433858267715
20
-3.7533377952755904
11
2.8522469685039371
21
-3.7420678740157478
0
LINE
8
BLACK
6
CONTINUOUS
10
2.8522469685039371
20
-3.7420678740157478
11
2.8430389763779527
21
-3.7317641732283464
0
LINE
8
BLACK
6
CONTINUOUS
10
2.8430389763779527
20
-3.7317641732283464
11
2.8327352755905513
21
-3.722556181102362
0
LINE
8
BLACK
6
CONTINUOUS
10
2.8327352755905513
20
-3.722556181102362
11
2.8214653543307087
21
-3.7145597637795276
0
LINE
8
BLACK
6
CONTINUOUS
10
2.8214653543307087
20
-3.7145597637795276
11
2.8093709842519683
21
-3.7078754330708659
0
LINE
8
BLACK
6
CONTINUOUS
10
2.8093709842519683
20
-3.7078754330708659
11
2.7966042519685037
21
-3.7025872834645668
0
LINE
8
BLACK
6
CONTINUOUS
10
2.7966042519685037
20
-3.7025872834645668
11
2.7833257480314959
21
-3.6987618110236218
0
LINE
8
BLACK
6
CONTINUOUS
10
2.7833257480314959
20
-3.6987618110236218
11
2.7697023622047245
21
-3.6964470866141732
0
LINE
8
BLACK
6
CONTINUOUS
10
2.7697023622047245
20
-3.6964470866141732
11
2.7559055118110236
21
-3.695672283464567
0
LINE
8
BLACK
6
CONTINUOUS
10
2.7559055118110236
20
-3.695672283464567
11
2.7421086614173227
21
-3.6964470866141732
0
LINE
8
BLACK
6
CONTINUOUS
10
2.7421086614173227
20
-3.6964470866141732
11
2.7284852755905513
21
-3.6987618110236218
0
LINE
8
BLACK
6
CONTINUOUS
10
2.7284852755905513
20
-3.6987618110236218
11
2.7152067716535431
21
-3.7025872834645668
0
LINE
8
BLACK
6
CONTINUOUS
10
2.7152067716535431
20
-3.7025872834645668
11
2.7024400393700785
21
-3.7078754330708659
0
LINE
8
BLACK
6
CONTINUOUS
10
2.7024400393700785
20
-3.7078754330708659
11
2.6903456692913386
21
-3.7145597637795276
0
LINE
8
BLACK
6
CONTINUOUS
10
2.6903456692913386
20
-3.7145597637795276
11
2.679075748031496
21
-3.722556181102362
0
LINE
8
BLACK
6
CONTINUOUS
10
2.679075748031496
20
-3.722556181102362
11
2.6687720472440946
21
-3.7317641732283464
0
LINE
8
BLACK
6
CONTINUOUS
10
2.6687720472440946
20
-3.7317641732283464
11
2.6595640551181101
21
-3.7420678740157478
0
LINE
8
BLACK
6
CONTINUOUS
10
2.6595640551181101
20
-3.7420678740157478
11
2.6515676377952757
21
-3.7533377952755904
0
LINE
8
BLACK
6
CONTINUOUS
10
2.6515676377952757
20
-3.7533377952755904
11
2.644883307086614
21
-3.7654321653543308
0
LINE
8
BLACK
6
CONTINUOUS
10
2.644883307086614
20
-3.7654321653543308
11
2.6395951574803149
21
-3.7781988976377954
0
LINE
8
BLACK
6
CONTINUOUS
10
2.6395951574803149
20
-3.7781988976377954
11
2.6357696850393699
21
-3.7914774015748032
0
LINE
8
BLACK
6
CONTINUOUS
10
2.6357696850393699
20
-3.7914774015748032
11
2.6334549606299213
21
-3.8051007874015745
0
LINE
8
BLACK
6
CONTINUOUS
10
2.6334549606299213
20
-3.8051007874015745
11
2.6326801574803147
21
-3.8188976377952755
0
LINE
8
BLACK
6
CONTINUOUS
10
2.6326801574803147
20
-3.8188976377952755
11
2.6334549606299213
21
-3.8326944881889764
0
LINE
8
BLACK
6
CONTINUOUS
10
6.8712533858267717
20
-3.1404780708661417
11
6.884887992125984
21
-3.1434792913385827
0
LINE
8
BLACK
6
CONTINUOUS
10
6.884887992125984
20
-3.1434792913385827
11
6.8981181889763779
21
-3.1479370472440946
0
LINE
8
BLACK
6
CONTINUOUS
10
6.8981181889763779
20
-3.1479370472440946
11
6.9107888976377954
21
-3.1537991338582678
0
LINE
8
BLACK
6
CONTINUOUS
10
6.9107888976377954
20
-3.1537991338582678
11
6.9227514960629923
21
-3.160996811023622
0
LINE
8
BLACK
6
CONTINUOUS
10
6.9227514960629923
20
-3.160996811023622
11
6.9338657480314962
21
-3.1694456299212597
0
LINE
8
BLACK
6
CONTINUOUS
10
6.9338657480314962
20
-3.1694456299212597
11
6.9440013779527554
21
-3.1790466141732283
0
LINE
8
BLACK
6
CONTINUOUS
10
6.9440013779527554
20
-3.1790466141732283
11
6.9530395669291334
21
-3.1896871653543308
0
LINE
8
BLACK
6
CONTINUOUS
10
6.9530395669291334
20
-3.1896871653543308
11
6.9608742913385822
21
-3.2012425590551179
0
LINE
8
BLACK
6
CONTINUOUS
10
6.9608742913385822
20
-3.2012425590551179
11
6.9674137401574798
21
-3.2135772834645668
0
LINE
8
BLACK
6
CONTINUOUS
10
6.9674137401574798
20
-3.2135772834645668
11
6.9725812598425199
21
-3.2265467322834644
0
LINE
8
BLACK
6
CONTINUOUS
10
6.9725812598425199
20
-3.2265467322834644
11
6.9763162204724409
21
-3.2399988976377951
0
LINE
8
BLACK
6
CONTINUOUS
10
6.9763162204724409
20
-3.2399988976377951
11
6.9785748818897639
21
-3.2537759842519685
0
LINE
8
BLACK
6
CONTINUOUS
10
6.9785748818897639
20
-3.2537759842519685
11
6.9793307086614176
21
-3.2677165354330708
0
LINE
8
BLACK
6
CONTINUOUS
10
6.9793307086614176
20
-3.2677165354330708
11
6.9785748818897639
21
-3.2816570866141732
0
LINE
8
BLACK
6
CONTINUOUS
10
6.9785748818897639
20
-3.2816570866141732
11
6.9763162204724409
21
-3.2954341732283465
0
LINE
8
BLACK
6
CONTINUOUS
10
6.9763162204724409
20
-3.2954341732283465
11
6.9725812598425199
21
-3.3088863385826772
0
LINE
8
BLACK
6
CONTINUOUS
10
6.9725812598425199
20
-3.3088863385826772
11
6.9674137401574798
21
-3.3218557874015748
0
LINE
8
BLACK
6
CONTINUOUS
10
6.9674137401574798
20
-3.3218557874015748
11
6.9608742913385822
21
-3.3341905118110233
0
LINE
8
BLACK
6
CONTINUOUS
10
6.9608742913385822
20
-3.3341905118110233
11
6.9530395669291334
21
-3.3457459055118108
0
LINE
8
BLACK
6
CONTINUOUS
10
6.9530395669291334
20
-3.3457459055118108
11
6.9440013779527554
21
-3.3563864566929134
0
LINE
8
BLACK
6
CONTINUOUS
10
6.9440013779527554
20
-3.3563864566929134
11
6.9338657480314962
21
-3.365987440944882
0
LINE
8
BLACK
6
CONTINUOUS
10
6.9338657480314962
20
-3.365987440944882
11
6.9227514960629923
21
-3.3744362598425197
0
LINE
8
BLACK
6
CONTINUOUS
10
6.9227514960629923
20
-3.3744362598425197
11
6.9107888976377954
21
-3.3816339370078738
0
LINE
8
BLACK
6
CONTINUOUS
10
6.9107888976377954
20
-3.3816339370078738
11
6.8981181889763779
21
-3.387496023622047
0
LINE
8
BLACK
6
CONTINUOUS
10
6.8981181889763779
20
-3.387496023622047
11
6.884887992125984
21
-3.3919537795275589
0
LINE
8
BLACK
6
CONTINUOUS
10
6.884887992125984
20
-3.3919537795275589
11
6.8712533858267717
21
-3.3949549999999999
0
LINE
8
BLACK
6
CONTINUOUS
10
6.8712533858267717
20
-3.3949549999999999
11
6.8573742125984252
21
-3.3964644488188975
0
LINE
8
BLACK
6
CONTINUOUS
10
6.8573742125984252
20
-3.3964644488188975
11
6.8434131889763776
21
-3.3964644488188975
0
LINE
8
BLACK
6
CONTINUOUS
10
6.8434131889763776
20
-3.3964644488188975
11
6.8295340157480311
21
-3.3949549999999999
0
LINE
8
BLACK
6
CONTINUOUS
10
6.8295340157480311
20
-3.3949549999999999
11
6.8158994094488188
21
-3.3919537795275589
0
LINE
8
BLACK
6
CONTINUOUS
10
6.8158994094488188
20
-3.3919537795275589
11
6.8026692125984249
21
-3.387496023622047
0
LINE
8
BLACK
6
CONTINUOUS
10
6.8026692125984249
20
-3.387496023622047
11
6.7899985039370074
21
-3.3816339370078738
0
LINE
8
BLACK
6
CONTINUOUS
10
6.7899985039370074
20
-3.3816339370078738
11
6.7780359055118105
21
-3.3744362598425197
0
LINE
8
BLACK
6
CONTINUOUS
10
6.7780359055118105
20
-3.3744362598425197
11
6.7669216535433065
21
-3.365987440944882
0
LINE
8
BLACK
6
CONTINUOUS
10
6.7669216535433065
20
-3.365987440944882
11
6.7567860236220474
21
-3.3563864566929134
0
LINE
8
BLACK
6
CONTINUOUS
10
6.7567860236220474
20
-3.3563864566929134
11
6.7477478346456694
21
-3.3457459055118108
0
LINE
8
BLACK
6
CONTINUOUS
10
6.7477478346456694
20
-3.3457459055118108
11
6.7399131102362206
21
-3.3341905118110233
0
LINE
8
BLACK
6
CONTINUOUS
10
6.7399131102362206
20
-3.3341905118110233
11
6.733373661417323
21
-3.3218557874015748
0
LINE
8
BLACK
6
CONTINUOUS
10
6.733373661417323
20
-3.3218557874015748
11
6.7282061417322829
21
-3.3088863385826772
0
LINE
8
BLACK
6
CONTINUOUS
10
6.7282061417322829
20
-3.3088863385826772
11
6.7244711811023619
21
-3.2954341732283465
0
LINE
8
BLACK
6
CONTINUOUS
10
6.7244711811023619
20
-3.2954341732283465
11
6.7222125196850389
21
-3.2816570866141732
0
LINE
8
BLACK
6
CONTINUOUS
10
6.7222125196850389
20
-3.2816570866141732
11
6.7214566929133861
21
-3.2677165354330708
0
LINE
8
BLACK
6
CONTINUOUS
10
6.7214566929133861
20
-3.2677165354330708
11
6.7222125196850389
21
-3.2537759842519685
0
LINE
8
BLACK
6
CONTINUOUS
10
6.7222125196850389
20
-3.2537759842519685
11
6.7244711811023619
21
-3.2399988976377951
0
LINE
8
BLACK
6
CONTINUOUS
10
6.7244711811023619
20
-3.2399988976377951
11
6.7282061417322829
21
-3.2265467322834644
0
LINE
8
BLACK
6
CONTINUOUS
10
6.7282061417322829
20
-3.2265467322834644
11
6.733373661417323
21
-3.2135772834645668
0
LINE
8
BLACK
6
CONTINUOUS
10
6.733373661417323
20
-3.2135772834645668
11
6.7399131102362206
21
-3.2012425590551179
0
LINE
8
BLACK
6
CONTINUOUS
10
6.7399131102362206
20
-3.2012425590551179
11
6.7477478346456694
21
-3.1896871653543308
0
LINE
8
BLACK
6
CONTINUOUS
10
6.7477478346456694
20
-3.1896871653543308
11
6.7567860236220474
21
-3.1790466141732283
0
LINE
8
BLACK
6
CONTINUOUS
10
6.7567860236220474
20
-3.1790466141732283
11
6.7669216535433065
21
-3.1694456299212597
0
LINE
8
BLACK
6
CONTINUOUS
10
6.7669216535433065
20
-3.1694456299212597
11
6.7780359055118105
21
-3.160996811023622
0
LINE
8
BLACK
6
CONTINUOUS
10
6.7780359055118105
20
-3.160996811023622
11
6.7899985039370074
21
-3.1537991338582678
0
LINE
8
BLACK
6
CONTINUOUS
10
6.7899985039370074
20
-3.1537991338582678
11
6.8026692125984249
21
-3.1479370472440946
0
LINE
8
BLACK
6
CONTINUOUS
10
6.8026692125984249
20
-3.1479370472440946
11
6.8158994094488188
21
-3.1434792913385827
0
LINE
8
BLACK
6
CONTINUOUS
10
6.8158994094488188
20
-3.1434792913385827
11
6.8295340157480311
21
-3.1404780708661417
0
LINE
8
BLACK
6
CONTINUOUS
10
6.8295340157480311
20
-3.1404780708661417
11
6.8434131889763776
21
-3.1389686220472441
0
LINE
8
BLACK
6
CONTINUOUS
10
6.8434131889763776
20
-3.1389686220472441
11
6.8573742125984252
21
-3.1389686220472441
0
LINE
8
BLACK
6
CONTINUOUS
10
6.8573742125984252
20
-3.1389686220472441
11
6.8712533858267717
21
-3.1404780708661417
0
LINE
8
BLACK
6
CONTINUOUS
10
6.7279431496062987
20
-3.2815133858267718
11
6.7302578740157477
21
-3.2951367716535431
0
LINE
8
BLACK
6
CONTINUOUS
10
6.7302578740157477
20
-3.2951367716535431
11
6.7340833464566927
21
-3.3084152755905509
0
LINE
8
BLACK
6
CONTINUOUS
10
6.7340833464566927
20
-3.3084152755905509
11
6.7393714960629918
21
-3.3211820078740155
0
LINE
8
BLACK
6
CONTINUOUS
10
6.7393714960629918
20
-3.3211820078740155
11
6.7460558267716531
21
-3.3332763779527559
0
LINE
8
BLACK
6
CONTINUOUS
10
6.7460558267716531
20
-3.3332763779527559
11
6.7540522440944883
21
-3.3445462992125985
0
LINE
8
BLACK
6
CONTINUOUS
10
6.7540522440944883
20
-3.3445462992125985
11
6.7632602362204723
21
-3.3548499999999999
0
LINE
8
BLACK
6
CONTINUOUS
10
6.7632602362204723
20
-3.3548499999999999
11
6.7735639370078742
21
-3.3640579921259843
0
LINE
8
BLACK
6
CONTINUOUS
10
6.7735639370078742
20
-3.3640579921259843
11
6.7848338582677163
21
-3.3720544094488187
0
LINE
8
BLACK
6
CONTINUOUS
10
6.7848338582677163
20
-3.3720544094488187
11
6.7969282283464567
21
-3.3787387401574804
0
LINE
8
BLACK
6
CONTINUOUS
10
6.7969282283464567
20
-3.3787387401574804
11
6.8096949606299209
21
-3.3840268897637795
0
LINE
8
BLACK
6
CONTINUOUS
10
6.8096949606299209
20
-3.3840268897637795
11
6.8229734645669291
21
-3.3878523622047245
0
LINE
8
BLACK
6
CONTINUOUS
10
6.8229734645669291
20
-3.3878523622047245
11
6.8365968503937005
21
-3.3901670866141731
0
LINE
8
BLACK
6
CONTINUOUS
10
6.8365968503937005
20
-3.3901670866141731
11
6.8503937007874018
21
-3.3909418897637793
0
LINE
8
BLACK
6
CONTINUOUS
10
6.8503937007874018
20
-3.3909418897637793
11
6.8641905511811023
21
-3.3901670866141731
0
LINE
8
BLACK
6
CONTINUOUS
10
6.8641905511811023
20
-3.3901670866141731
11
6.8778139370078737
21
-3.3878523622047245
0
LINE
8
BLACK
6
CONTINUOUS
10
6.8778139370078737
20
-3.3878523622047245
11
6.8910924409448819
21
-3.3840268897637795
0
LINE
8
BLACK
6
CONTINUOUS
10
6.8910924409448819
20
-3.3840268897637795
11
6.9038591732283461
21
-3.3787387401574804
0
LINE
8
BLACK
6
CONTINUOUS
10
6.9038591732283461
20
-3.3787387401574804
11
6.9159535433070864
21
-3.3720544094488187
0
LINE
8
BLACK
6
CONTINUOUS
10
6.9159535433070864
20
-3.3720544094488187
11
6.9272234645669286
21
-3.3640579921259843
0
LINE
8
BLACK
6
CONTINUOUS
10
6.9272234645669286
20
-3.3640579921259843
11
6.9375271653543304
21
-3.3548499999999999
0
LINE
8
BLACK
6
CONTINUOUS
10
6.9375271653543304
20
-3.3548499999999999
11
6.9467351574803144
21
-3.3445462992125985
0
LINE
8
BLACK
6
CONTINUOUS
10
6.9467351574803144
20
-3.3445462992125985
11
6.9547315748031497
21
-3.3332763779527559
0
LINE
8
BLACK
6
CONTINUOUS
10
6.9547315748031497
20
-3.3332763779527559
11
6.961415905511811
21
-3.3211820078740155
0
LINE
8
BLACK
6
CONTINUOUS
10
6.961415905511811
20
-3.3211820078740155
11
6.9667040551181101
21
-3.3084152755905509
0
LINE
8
BLACK
6
CONTINUOUS
10
6.9667040551181101
20
-3.3084152755905509
11
6.9705295275590551
21
-3.2951367716535431
0
LINE
8
BLACK
6
CONTINUOUS
10
6.9705295275590551
20
-3.2951367716535431
11
6.9728442519685041
21
-3.2815133858267718
0
LINE
8
BLACK
6
CONTINUOUS
10
6.9728442519685041
20
-3.2815133858267718
11
6.9736190551181103
21
-3.2677165354330708
0
LINE
8
BLACK
6
CONTINUOUS
10
6.9736190551181103
20
-3.2677165354330708
11
6.9728442519685041
21
-3.2539196850393699
0
LINE
8
BLACK
6
CONTINUOUS
10
6.9728442519685041
20
-3.2539196850393699
11
6.9705295275590551
21
-3.2402962992125985
0
LINE
8
BLACK
6
CONTINUOUS
10
6.9705295275590551
20
-3.2402962992125985
11
6.9667040551181101
21
-3.2270177952755903
0
LINE
8
BLACK
6
CONTINUOUS
10
6.9667040551181101
20
-3.2270177952755903
11
6.961415905511811
21
-3.2142510629921257
0
LINE
8
BLACK
6
CONTINUOUS
10
6.961415905511811
20
-3.2142510629921257
11
6.9547315748031497
21
-3.2021566929133858
0
LINE
8
BLACK
6
CONTINUOUS
10
6.9547315748031497
20
-3.2021566929133858
11
6.9467351574803144
21
-3.1908867716535432
0
LINE
8
BLACK
6
CONTINUOUS
10
6.9467351574803144
20
-3.1908867716535432
11
6.9375271653543304
21
-3.1805830708661418
0
LINE
8
BLACK
6
CONTINUOUS
10
6.9375271653543304
20
-3.1805830708661418
11
6.9272234645669286
21
-3.1713750787401573
0
LINE
8
BLACK
6
CONTINUOUS
10
6.9272234645669286
20
-3.1713750787401573
11
6.9159535433070864
21
-3.1633786614173229
0
LINE
8
BLACK
6
CONTINUOUS
10
6.9159535433070864
20
-3.1633786614173229
11
6.9038591732283461
21
-3.1566943307086612
0
LINE
8
BLACK
6
CONTINUOUS
10
6.9038591732283461
20
-3.1566943307086612
11
6.8910924409448819
21
-3.1514061811023621
0
LINE
8
BLACK
6
CONTINUOUS
10
6.8910924409448819
20
-3.1514061811023621
11
6.8778139370078737
21
-3.1475807086614171
0
LINE
8
BLACK
6
CONTINUOUS
10
6.8778139370078737
20
-3.1475807086614171
11
6.8641905511811023
21
-3.1452659842519686
0
LINE
8
BLACK
6
CONTINUOUS
10
6.8641905511811023
20
-3.1452659842519686
11
6.8503937007874018
21
-3.1444911811023619
0
LINE
8
BLACK
6
CONTINUOUS
10
6.8503937007874018
20
-3.1444911811023619
11
6.8365968503937005
21
-3.1452659842519686
0
LINE
8
BLACK
6
CONTINUOUS
10
6.8365968503937005
20
-3.1452659842519686
11
6.8229734645669291
21
-3.1475807086614171
0
LINE
8
BLACK
6
CONTINUOUS
10
6.8229734645669291
20
-3.1475807086614171
11
6.8096949606299209
21
-3.1514061811023621
0
LINE
8
BLACK
6
CONTINUOUS
10
6.8096949606299209
20
-3.1514061811023621
11
6.7969282283464567
21
-3.1566943307086612
0
LINE
8
BLACK
6
CONTINUOUS
10
6.7969282283464567
20
-3.1566943307086612
11
6.7848338582677163
21
-3.1633786614173229
0
LINE
8
BLACK
6
CONTINUOUS
10
6.7848338582677163
20
-3.1633786614173229
11
6.7735639370078742
21
-3.1713750787401573
0
LINE
8
BLACK
6
CONTINUOUS
10
6.7735639370078742
20
-3.1713750787401573
11
6.7632602362204723
21
-3.1805830708661418
0
LINE
8
BLACK
6
CONTINUOUS
10
6.7632602362204723
20
-3.1805830708661418
11
6.7540522440944883
21
-3.1908867716535432
0
LINE
8
BLACK
6
CONTINUOUS
10
6.7540522440944883
20
-3.1908867716535432
11
6.7460558267716531
21
-3.2021566929133858
0
LINE
8
BLACK
6
CONTINUOUS
10
6.7460558267716531
20
-3.2021566929133858
11
6.7393714960629918
21
-3.2142510629921257
0
LINE
8
BLACK
6
CONTINUOUS
10
6.7393714960629918
20
-3.2142510629921257
11
6.7340833464566927
21
-3.2270177952755903
0
LINE
8
BLACK
6
CONTINUOUS
10
6.7340833464566927
20
-3.2270177952755903
11
6.7302578740157477
21
-3.2402962992125985
0
LINE
8
BLACK
6
CONTINUOUS
10
6.7302578740157477
20
-3.2402962992125985
11
6.7279431496062987
21
-3.2539196850393699
0
LINE
8
BLACK
6
CONTINUOUS
10
6.7279431496062987
20
-3.2539196850393699
11
6.7271683464566925
21
-3.2677165354330708
0
LINE
8
BLACK
6
CONTINUOUS
10
6.7271683464566925
20
-3.2677165354330708
11
6.7279431496062987
21
-3.2815133858267718
0
LINE
8
BLACK
6
CONTINUOUS
10
3.6429069291338583
20
-2.1168560236220473
11
3.6565415354330706
21
-2.1198572440944883
0
LINE
8
BLACK
6
CONTINUOUS
10
3.6565415354330706
20
-2.1198572440944883
11
3.6697717322834644
21
-2.1243149999999997
0
LINE
8
BLACK
6
CONTINUOUS
10
3.6697717322834644
20
-2.1243149999999997
11
3.6824424409448819
21
-2.1301770866141734
0
LINE
8
BLACK
6
CONTINUOUS
10
3.6824424409448819
20
-2.1301770866141734
11
3.6944050393700785
21
-2.1373747637795275
0
LINE
8
BLACK
6
CONTINUOUS
10
3.6944050393700785
20
-2.1373747637795275
11
3.7055192913385824
21
-2.1458235826771652
0
LINE
8
BLACK
6
CONTINUOUS
10
3.7055192913385824
20
-2.1458235826771652
11
3.7156549212598424
21
-2.1554245669291339
0
LINE
8
BLACK
6
CONTINUOUS
10
3.7156549212598424
20
-2.1554245669291339
11
3.7246931102362204
21
-2.1660651181102364
0
LINE
8
BLACK
6
CONTINUOUS
10
3.7246931102362204
20
-2.1660651181102364
11
3.7325278346456692
21
-2.1776205118110235
0
LINE
8
BLACK
6
CONTINUOUS
10
3.7325278346456692
20
-2.1776205118110235
11
3.7390672834645668
21
-2.1899552362204724
0
LINE
8
BLACK
6
CONTINUOUS
10
3.7390672834645668
20
-2.1899552362204724
11
3.744234803149606
21
-2.20292468503937
0
LINE
8
BLACK
6
CONTINUOUS
10
3.744234803149606
20
-2.20292468503937
11
3.7479697637795275
21
-2.2163768503937007
0
LINE
8
BLACK
6
CONTINUOUS
10
3.7479697637795275
20
-2.2163768503937007
11
3.7502284251968505
21
-2.230153937007874
0
LINE
8
BLACK
6
CONTINUOUS
10
3.7502284251968505
20
-2.230153937007874
11
3.7509842519685037
21
-2.2440944881889764
0
LINE
8
BLACK
6
CONTINUOUS
10
3.7509842519685037
20
-2.2440944881889764
11
3.7502284251968505
21
-2.2580350393700788
0
LINE
8
BLACK
6
CONTINUOUS
10
3.7502284251968505
20
-2.2580350393700788
11
3.7479697637795275
21
-2.2718121259842521
0
LINE
8
BLACK
6
CONTINUOUS
10
3.7479697637795275
20
-2.2718121259842521
11
3.744234803149606
21
-2.2852642913385828
0
LINE
8
BLACK
6
CONTINUOUS
10
3.744234803149606
20
-2.2852642913385828
11
3.7390672834645668
21
-2.2982337401574804
0
LINE
8
BLACK
6
CONTINUOUS
10
3.7390672834645668
20
-2.2982337401574804
11
3.7325278346456692
21
-2.3105684645669289
0
LINE
8
BLACK
6
CONTINUOUS
10
3.7325278346456692
20
-2.3105684645669289
11
3.7246931102362204
21
-2.3221238582677164
0
LINE
8
BLACK
6
CONTINUOUS
10
3.7246931102362204
20
-2.3221238582677164
11
3.7156549212598424
21
-2.3327644094488189
0
LINE
8
BLACK
6
CONTINUOUS
10
3.7156549212598424
20
-2.3327644094488189
11
3.7055192913385824
21
-2.3423653937007876
0
LINE
8
BLACK
6
CONTINUOUS
10
3.7055192913385824
20
-2.3423653937007876
11
3.6944050393700785
21
-2.3508142125984253
0
LINE
8
BLACK
6
CONTINUOUS
10
3.6944050393700785
20
-2.3508142125984253
11
3.6824424409448819
21
-2.3580118897637794
0
LINE
8
BLACK
6
CONTINUOUS
10
3.6824424409448819
20
-2.3580118897637794
11
3.6697717322834644
21
-2.3638739763779526
0
LINE
8
BLACK
6
CONTINUOUS
10
3.6697717322834644
20
-2.3638739763779526
11
3.6565415354330706
21
-2.3683317322834645
0
LINE
8
BLACK
6
CONTINUOUS
10
3.6565415354330706
20
-2.3683317322834645
11
3.6429069291338583
21
-2.3713329527559055
0
LINE
8
BLACK
6
CONTINUOUS
10
3.6429069291338583
20
-2.3713329527559055
11
3.6290277559055117
21
-2.3728424015748031
0
LINE
8
BLACK
6
CONTINUOUS
10
3.6290277559055117
20
-2.3728424015748031
11
3.6150667322834646
21
-2.3728424015748031
0
LINE
8
BLACK
6
CONTINUOUS
10
3.6150667322834646
20
-2.3728424015748031
11
3.6011875590551181
21
-2.3713329527559055
0
LINE
8
BLACK
6
CONTINUOUS
10
3.6011875590551181
20
-2.3713329527559055
11
3.5875529527559054
21
-2.3683317322834645
0
LINE
8
BLACK
6
CONTINUOUS
10
3.5875529527559054
20
-2.3683317322834645
11
3.5743227559055115
21
-2.3638739763779526
0
LINE
8
BLACK
6
CONTINUOUS
10
3.5743227559055115
20
-2.3638739763779526
11
3.5616520472440945
21
-2.3580118897637794
0
LINE
8
BLACK
6
CONTINUOUS
10
3.5616520472440945
20
-2.3580118897637794
11
3.5496894488188975
21
-2.3508142125984253
0
LINE
8
BLACK
6
CONTINUOUS
10
3.5496894488188975
20
-2.3508142125984253
11
3.5385751968503936
21
-2.3423653937007876
0
LINE
8
BLACK
6
CONTINUOUS
10
3.5385751968503936
20
-2.3423653937007876
11
3.528439566929134
21
-2.3327644094488189
0
LINE
8
BLACK
6
CONTINUOUS
10
3.528439566929134
20
-2.3327644094488189
11
3.519401377952756
21
-2.3221238582677164
0
LINE
8
BLACK
6
CONTINUOUS
10
3.519401377952756
20
-2.3221238582677164
11
3.5115666535433072
21
-2.3105684645669289
0
LINE
8
BLACK
6
CONTINUOUS
10
3.5115666535433072
20
-2.3105684645669289
11
3.5050272047244095
21
-2.2982337401574804
0
LINE
8
BLACK
6
CONTINUOUS
10
3.5050272047244095
20
-2.2982337401574804
11
3.4998596850393699
21
-2.2852642913385828
0
LINE
8
BLACK
6
CONTINUOUS
10
3.4998596850393699
20
-2.2852642913385828
11
3.4961247244094489
21
-2.2718121259842521
0
LINE
8
BLACK
6
CONTINUOUS
10
3.4961247244094489
20
-2.2718121259842521
11
3.4938660629921259
21
-2.2580350393700788
0
LINE
8
BLACK
6
CONTINUOUS
10
3.4938660629921259
20
-2.2580350393700788
11
3.4931102362204722
21
-2.2440944881889764
0
LINE
8
BLACK
6
CONTINUOUS
10
3.4931102362204722
20
-2.2440944881889764
11
3.4938660629921259
21
-2.230153937007874
0
LINE
8
BLACK
6
CONTINUOUS
10
3.4938660629921259
20
-2.230153937007874
11
3.4961247244094489
21
-2.2163768503937007
0
LINE
8
BLACK
6
CONTINUOUS
10
3.4961247244094489
20
-2.2163768503937007
11
3.4998596850393699
21
-2.20292468503937
0
LINE
8
BLACK
6
CONTINUOUS
10
3.4998596850393699
20
-2.20292468503937
11
3.5050272047244095
21
-2.1899552362204724
0
LINE
8
BLACK
6
CONTINUOUS
10
3.5050272047244095
20
-2.1899552362204724
11
3.5115666535433072
21
-2.1776205118110235
0
LINE
8
BLACK
6
CONTINUOUS
10
3.5115666535433072
20
-2.1776205118110235
11
3.519401377952756
21
-2.1660651181102364
0
LINE
8
BLACK
6
CONTINUOUS
10
3.519401377952756
20
-2.1660651181102364
11
3.528439566929134
21
-2.1554245669291339
0
LINE
8
BLACK
6
CONTINUOUS
10
3.528439566929134
20
-2.1554245669291339
11
3.5385751968503936
21
-2.1458235826771652
0
LINE
8
BLACK
6
CONTINUOUS
10
3.5385751968503936
20
-2.1458235826771652
11
3.5496894488188975
21
-2.1373747637795275
0
LINE
8
BLACK
6
CONTINUOUS
10
3.5496894488188975
20
-2.1373747637795275
11
3.5616520472440945
21
-2.1301770866141734
0
LINE
8
BLACK
6
CONTINUOUS
10
3.5616520472440945
20
-2.1301770866141734
11
3.5743227559055115
21
-2.1243149999999997
0
LINE
8
BLACK
6
CONTINUOUS
10
3.5743227559055115
20
-2.1243149999999997
11
3.5875529527559054
21
-2.1198572440944883
0
LINE
8
BLACK
6
CONTINUOUS
10
3.5875529527559054
20
-2.1198572440944883
11
3.6011875590551181
21
-2.1168560236220473
0
LINE
8
BLACK
6
CONTINUOUS
10
3.6011875590551181
20
-2.1168560236220473
11
3.6150667322834646
21
-2.1153465748031497
0
LINE
8
BLACK
6
CONTINUOUS
10
3.6150667322834646
20
-2.1153465748031497
11
3.6290277559055117
21
-2.1153465748031497
0
LINE
8
BLACK
6
CONTINUOUS
10
3.6290277559055117
20
-2.1153465748031497
11
3.6429069291338583
21
-2.1168560236220473
0
LINE
8
BLACK
6
CONTINUOUS
10
3.4995966929133857
20
-2.2578913385826773
11
3.5019114173228347
21
-2.2715147244094487
0
LINE
8
BLACK
6
CONTINUOUS
10
3.5019114173228347
20
-2.2715147244094487
11
3.5057368897637793
21
-2.2847932283464565
0
LINE
8
BLACK
6
CONTINUOUS
10
3.5057368897637793
20
-2.2847932283464565
11
3.5110250393700788
21
-2.2975599606299211
0
LINE
8
BLACK
6
CONTINUOUS
10
3.5110250393700788
20
-2.2975599606299211
11
3.5177093700787401
21
-2.3096543307086614
0
LINE
8
BLACK
6
CONTINUOUS
10
3.5177093700787401
20
-2.3096543307086614
11
3.5257057874015749
21
-2.320924251968504
0
LINE
8
BLACK
6
CONTINUOUS
10
3.5257057874015749
20
-2.320924251968504
11
3.5349137795275589
21
-2.3312279527559054
0
LINE
8
BLACK
6
CONTINUOUS
10
3.5349137795275589
20
-2.3312279527559054
11
3.5452174803149608
21
-2.3404359448818899
0
LINE
8
BLACK
6
CONTINUOUS
10
3.5452174803149608
20
-2.3404359448818899
11
3.5564874015748029
21
-2.3484323622047243
0
LINE
8
BLACK
6
CONTINUOUS
10
3.5564874015748029
20
-2.3484323622047243
11
3.5685817716535433
21
-2.355116692913386
0
LINE
8
BLACK
6
CONTINUOUS
10
3.5685817716535433
20
-2.355116692913386
11
3.5813485039370079
21
-2.3604048425196851
0
LINE
8
BLACK
6
CONTINUOUS
10
3.5813485039370079
20
-2.3604048425196851
11
3.5946270078740157
21
-2.3642303149606301
0
LINE
8
BLACK
6
CONTINUOUS
10
3.5946270078740157
20
-2.3642303149606301
11
3.6082503937007875
21
-2.3665450393700787
0
LINE
8
BLACK
6
CONTINUOUS
10
3.6082503937007875
20
-2.3665450393700787
11
3.622047244094488
21
-2.3673198425196849
0
LINE
8
BLACK
6
CONTINUOUS
10
3.622047244094488
20
-2.3673198425196849
11
3.6358440944881889
21
-2.3665450393700787
0
LINE
8
BLACK
6
CONTINUOUS
10
3.6358440944881889
20
-2.3665450393700787
11
3.6494674803149607
21
-2.3642303149606301
0
LINE
8
BLACK
6
CONTINUOUS
10
3.6494674803149607
20
-2.3642303149606301
11
3.6627459842519685
21
-2.3604048425196851
0
LINE
8
BLACK
6
CONTINUOUS
10
3.6627459842519685
20
-2.3604048425196851
11
3.6755127165354331
21
-2.355116692913386
0
LINE
8
BLACK
6
CONTINUOUS
10
3.6755127165354331
20
-2.355116692913386
11
3.687607086614173
21
-2.3484323622047243
0
LINE
8
BLACK
6
CONTINUOUS
10
3.687607086614173
20
-2.3484323622047243
11
3.6988770078740156
21
-2.3404359448818899
0
LINE
8
BLACK
6
CONTINUOUS
10
3.6988770078740156
20
-2.3404359448818899
11
3.709180708661417
21
-2.3312279527559054
0
LINE
8
BLACK
6
CONTINUOUS
10
3.709180708661417
20
-2.3312279527559054
11
3.7183887007874015
21
-2.320924251968504
0
LINE
8
BLACK
6
CONTINUOUS
10
3.7183887007874015
20
-2.320924251968504
11
3.7263851181102363
21
-2.3096543307086614
0
LINE
8
BLACK
6
CONTINUOUS
10
3.7263851181102363
20
-2.3096543307086614
11
3.7330694488188976
21
-2.2975599606299211
0
LINE
8
BLACK
6
CONTINUOUS
10
3.7330694488188976
20
-2.2975599606299211
11
3.7383575984251967
21
-2.2847932283464565
0
LINE
8
BLACK
6
CONTINUOUS
10
3.7383575984251967
20
-2.2847932283464565
11
3.7421830708661417
21
-2.2715147244094487
0
LINE
8
BLACK
6
CONTINUOUS
10
3.7421830708661417
20
-2.2715147244094487
11
3.7444977952755907
21
-2.2578913385826773
0
LINE
8
BLACK
6
CONTINUOUS
10
3.7444977952755907
20
-2.2578913385826773
11
3.7452725984251969
21
-2.2440944881889764
0
LINE
8
BLACK
6
CONTINUOUS
10
3.7452725984251969
20
-2.2440944881889764
11
3.7444977952755907
21
-2.2302976377952755
0
LINE
8
BLACK
6
CONTINUOUS
10
3.7444977952755907
20
-2.2302976377952755
11
3.7421830708661417
21
-2.2166742519685041
0
LINE
8
BLACK
6
CONTINUOUS
10
3.7421830708661417
20
-2.2166742519685041
11
3.7383575984251967
21
-2.2033957480314958
0
LINE
8
BLACK
6
CONTINUOUS
10
3.7383575984251967
20
-2.2033957480314958
11
3.7330694488188976
21
-2.1906290157480313
0
LINE
8
BLACK
6
CONTINUOUS
10
3.7330694488188976
20
-2.1906290157480313
11
3.7263851181102363
21
-2.1785346456692913
0
LINE
8
BLACK
6
CONTINUOUS
10
3.7263851181102363
20
-2.1785346456692913
11
3.7183887007874015
21
-2.1672647244094487
0
LINE
8
BLACK
6
CONTINUOUS
10
3.7183887007874015
20
-2.1672647244094487
11
3.709180708661417
21
-2.1569610236220473
0
LINE
8
BLACK
6
CONTINUOUS
10
3.709180708661417
20
-2.1569610236220473
11
3.6988770078740156
21
-2.1477530314960629
0
LINE
8
BLACK
6
CONTINUOUS
10
3.6988770078740156
20
-2.1477530314960629
11
3.687607086614173
21
-2.1397566141732285
0
LINE
8
BLACK
6
CONTINUOUS
10
3.687607086614173
20
-2.1397566141732285
11
3.6755127165354331
21
-2.1330722834645668
0
LINE
8
BLACK
6
CONTINUOUS
10
3.6755127165354331
20
-2.1330722834645668
11
3.6627459842519685
21
-2.1277841338582677
0
LINE
8
BLACK
6
CONTINUOUS
10
3.6627459842519685
20
-2.1277841338582677
11
3.6494674803149607
21
-2.1239586614173227
0
LINE
8
BLACK
6
CONTINUOUS
10
3.6494674803149607
20
-2.1239586614173227
11
3.6358440944881889
21
-2.1216439370078741
0
LINE
8
BLACK
6
CONTINUOUS
10
3.6358440944881889
20
-2.1216439370078741
11
3.622047244094488
21
-2.1208691338582675
0
LINE
8
BLACK
6
CONTINUOUS
10
3.622047244094488
20
-2.1208691338582675
11
3.6082503937007875
21
-2.1216439370078741
0
LINE
8
BLACK
6
CONTINUOUS
10
3.6082503937007875
20
-2.1216439370078741
11
3.5946270078740157
21
-2.1239586614173227
0
LINE
8
BLACK
6
CONTINUOUS
10
3.5946270078740157
20
-2.1239586614173227
11
3.5813485039370079
21
-2.1277841338582677
0
LINE
8
BLACK
6
CONTINUOUS
10
3.5813485039370079
20
-2.1277841338582677
11
3.5685817716535433
21
-2.1330722834645668
0
LINE
8
BLACK
6
CONTINUOUS
10
3.5685817716535433
20
-2.1330722834645668
11
3.5564874015748029
21
-2.1397566141732285
0
LINE
8
BLACK
6
CONTINUOUS
10
3.5564874015748029
20
-2.1397566141732285
11
3.5452174803149608
21
-2.1477530314960629
0
LINE
8
BLACK
6
CONTINUOUS
10
3.5452174803149608
20
-2.1477530314960629
11
3.5349137795275589
21
-2.1569610236220473
0
LINE
8
BLACK
6
CONTINUOUS
10
3.5349137795275589
20
-2.1569610236220473
11
3.5257057874015749
21
-2.1672647244094487
0
LINE
8
BLACK
6
CONTINUOUS
10
3.5257057874015749
20
-2.1672647244094487
11
3.5177093700787401
21
-2.1785346456692913
0
LINE
8
BLACK
6
CONTINUOUS
10
3.5177093700787401
20
-2.1785346456692913
11
3.5110250393700788
21
-2.1906290157480313
0
LINE
8
BLACK
6
CONTINUOUS
10
3.5110250393700788
20
-2.1906290157480313
11
3.5057368897637793
21
-2.2033957480314958
0
LINE
8
BLACK
6
CONTINUOUS
10
3.5057368897637793
20
-2.2033957480314958
11
3.5019114173228347
21
-2.2166742519685041
0
LINE
8
BLACK
6
CONTINUOUS
10
3.5019114173228347
20
-2.2166742519685041
11
3.4995966929133857
21
-2.2302976377952755
0
LINE
8
BLACK
6
CONTINUOUS
10
3.4995966929133857
20
-2.2302976377952755
11
3.4988218897637795
21
-2.2440944881889764
0
LINE
8
BLACK
6
CONTINUOUS
10
3.4988218897637795
20
-2.2440944881889764
11
3.4995966929133857
21
-2.2578913385826773
0
LINE
8
BLACK
6
CONTINUOUS
10
4.89085968503937
20
-2.1168560236220473
11
4.9044942913385823
21
-2.1198572440944883
0
LINE
8
BLACK
6
CONTINUOUS
10
4.9044942913385823
20
-2.1198572440944883
11
4.9177244881889761
21
-2.1243149999999997
0
LINE
8
BLACK
6
CONTINUOUS
10
4.9177244881889761
20
-2.1243149999999997
11
4.9303951968503936
21
-2.1301770866141734
0
LINE
8
BLACK
6
CONTINUOUS
10
4.9303951968503936
20
-2.1301770866141734
11
4.9423577952755906
21
-2.1373747637795275
0
LINE
8
BLACK
6
CONTINUOUS
10
4.9423577952755906
20
-2.1373747637795275
11
4.9534720472440945
21
-2.1458235826771652
0
LINE
8
BLACK
6
CONTINUOUS
10
4.9534720472440945
20
-2.1458235826771652
11
4.9636076771653546
21
-2.1554245669291339
0
LINE
8
BLACK
6
CONTINUOUS
10
4.9636076771653546
20
-2.1554245669291339
11
4.9726458661417325
21
-2.1660651181102364
0
LINE
8
BLACK
6
CONTINUOUS
10
4.9726458661417325
20
-2.1660651181102364
11
4.9804805905511813
21
-2.1776205118110235
0
LINE
8
BLACK
6
CONTINUOUS
10
4.9804805905511813
20
-2.1776205118110235
11
4.987020039370079
21
-2.1899552362204724
0
LINE
8
BLACK
6
CONTINUOUS
10
4.987020039370079
20
-2.1899552362204724
11
4.9921875590551181
21
-2.20292468503937
0
LINE
8
BLACK
6
CONTINUOUS
10
4.9921875590551181
20
-2.20292468503937
11
4.9959225196850392
21
-2.2163768503937007
0
LINE
8
BLACK
6
CONTINUOUS
10
4.9959225196850392
20
-2.2163768503937007
11
4.9981811811023622
21
-2.230153937007874
0
LINE
8
BLACK
6
CONTINUOUS
10
4.9981811811023622
20
-2.230153937007874
11
4.9989370078740158
21
-2.2440944881889764
0
LINE
8
BLACK
6
CONTINUOUS
10
4.9989370078740158
20
-2.2440944881889764
11
4.9981811811023622
21
-2.2580350393700788
0
LINE
8
BLACK
6
CONTINUOUS
10
4.9981811811023622
20
-2.2580350393700788
11
4.9959225196850392
21
-2.2718121259842521
0
LINE
8
BLACK
6
CONTINUOUS
10
4.9959225196850392
20
-2.2718121259842521
11
4.9921875590551181
21
-2.2852642913385828
0
LINE
8
BLACK
6
CONTINUOUS
10
4.9921875590551181
20
-2.2852642913385828
11
4.987020039370079
21
-2.2982337401574804
0
LINE
8
BLACK
6
CONTINUOUS
10
4.987020039370079
20
-2.2982337401574804
11
4.9804805905511813
21
-2.3105684645669289
0
LINE
8
BLACK
6
CONTINUOUS
10
4.9804805905511813
20
-2.3105684645669289
11
4.9726458661417325
21
-2.3221238582677164
0
LINE
8
BLACK
6
CONTINUOUS
10
4.9726458661417325
20
-2.3221238582677164
11
4.9636076771653546
21
-2.3327644094488189
0
LINE
8
BLACK
6
CONTINUOUS
10
4.9636076771653546
20
-2.3327644094488189
11
4.9534720472440945
21
-2.3423653937007876
0
LINE
8
BLACK
6
CONTINUOUS
10
4.9534720472440945
20
-2.3423653937007876
11
4.9423577952755906
21
-2.3508142125984253
0
LINE
8
BLACK
6
CONTINUOUS
10
4.9423577952755906
20
-2.3508142125984253
11
4.9303951968503936
21
-2.3580118897637794
0
LINE
8
BLACK
6
CONTINUOUS
10
4.9303951968503936
20
-2.3580118897637794
11
4.9177244881889761
21
-2.3638739763779526
0
LINE
8
BLACK
6
CONTINUOUS
10
4.9177244881889761
20
-2.3638739763779526
11
4.9044942913385823
21
-2.3683317322834645
0
LINE
8
BLACK
6
CONTINUOUS
10
4.9044942913385823
20
-2.3683317322834645
11
4.89085968503937
21
-2.3713329527559055
0
LINE
8
BLACK
6
CONTINUOUS
10
4.89085968503937
20
-2.3713329527559055
11
4.8769805118110234
21
-2.3728424015748031
0
LINE
8
BLACK
6
CONTINUOUS
10
4.8769805118110234
20
-2.3728424015748031
11
4.8630194881889759
21
-2.3728424015748031
0
LINE
8
BLACK
6
CONTINUOUS
10
4.8630194881889759
20
-2.3728424015748031
11
4.8491403149606302
21
-2.3713329527559055
0
LINE
8
BLACK
6
CONTINUOUS
10
4.8491403149606302
20
-2.3713329527559055
11
4.835505708661417
21
-2.3683317322834645
0
LINE
8
BLACK
6
CONTINUOUS
10
4.835505708661417
20
-2.3683317322834645
11
4.8222755118110232
21
-2.3638739763779526
0
LINE
8
BLACK
6
CONTINUOUS
10
4.8222755118110232
20
-2.3638739763779526
11
4.8096048031496066
21
-2.3580118897637794
0
LINE
8
BLACK
6
CONTINUOUS
10
4.8096048031496066
20
-2.3580118897637794
11
4.7976422047244096
21
-2.3508142125984253
0
LINE
8
BLACK
6
CONTINUOUS
10
4.7976422047244096
20
-2.3508142125984253
11
4.7865279527559057
21
-2.3423653937007876
0
LINE
8
BLACK
6
CONTINUOUS
10
4.7865279527559057
20
-2.3423653937007876
11
4.7763923228346457
21
-2.3327644094488189
0
LINE
8
BLACK
6
CONTINUOUS
10
4.7763923228346457
20
-2.3327644094488189
11
4.7673541338582677
21
-2.3221238582677164
0
LINE
8
BLACK
6
CONTINUOUS
10
4.7673541338582677
20
-2.3221238582677164
11
4.7595194094488189
21
-2.3105684645669289
0
LINE
8
BLACK
6
CONTINUOUS
10
4.7595194094488189
20
-2.3105684645669289
11
4.7529799606299212
21
-2.2982337401574804
0
LINE
8
BLACK
6
CONTINUOUS
10
4.7529799606299212
20
-2.2982337401574804
11
4.7478124409448821
21
-2.2852642913385828
0
LINE
8
BLACK
6
CONTINUOUS
10
4.7478124409448821
20
-2.2852642913385828
11
4.7440774803149601
21
-2.2718121259842521
0
LINE
8
BLACK
6
CONTINUOUS
10
4.7440774803149601
20
-2.2718121259842521
11
4.741818818897638
21
-2.2580350393700788
0
LINE
8
BLACK
6
CONTINUOUS
10
4.741818818897638
20
-2.2580350393700788
11
4.7410629921259844
21
-2.2440944881889764
0
LINE
8
BLACK
6
CONTINUOUS
10
4.7410629921259844
20
-2.2440944881889764
11
4.741818818897638
21
-2.230153937007874
0
LINE
8
BLACK
6
CONTINUOUS
10
4.741818818897638
20
-2.230153937007874
11
4.7440774803149601
21
-2.2163768503937007
0
LINE
8
BLACK
6
CONTINUOUS
10
4.7440774803149601
20
-2.2163768503937007
11
4.7478124409448821
21
-2.20292468503937
0
LINE
8
BLACK
6
CONTINUOUS
10
4.7478124409448821
20
-2.20292468503937
11
4.7529799606299212
21
-2.1899552362204724
0
LINE
8
BLACK
6
CONTINUOUS
10
4.7529799606299212
20
-2.1899552362204724
11
4.7595194094488189
21
-2.1776205118110235
0
LINE
8
BLACK
6
CONTINUOUS
10
4.7595194094488189
20
-2.1776205118110235
11
4.7673541338582677
21
-2.1660651181102364
0
LINE
8
BLACK
6
CONTINUOUS
10
4.7673541338582677
20
-2.1660651181102364
11
4.7763923228346457
21
-2.1554245669291339
0
LINE
8
BLACK
6
CONTINUOUS
10
4.7763923228346457
20
-2.1554245669291339
11
4.7865279527559057
21
-2.1458235826771652
0
LINE
8
BLACK
6
CONTINUOUS
10
4.7865279527559057
20
-2.1458235826771652
11
4.7976422047244096
21
-2.1373747637795275
0
LINE
8
BLACK
6
CONTINUOUS
10
4.7976422047244096
20
-2.1373747637795275
11
4.8096048031496066
21
-2.1301770866141734
0
LINE
8
BLACK
6
CONTINUOUS
10
4.8096048031496066
20
-2.1301770866141734
11
4.8222755118110232
21
-2.1243149999999997
0
LINE
8
BLACK
6
CONTINUOUS
10
4.8222755118110232
20
-2.1243149999999997
11
4.835505708661417
21
-2.1198572440944883
0
LINE
8
BLACK
6
CONTINUOUS
10
4.835505708661417
20
-2.1198572440944883
11
4.8491403149606302
21
-2.1168560236220473
0
LINE
8
BLACK
6
CONTINUOUS
10
4.8491403149606302
20
-2.1168560236220473
11
4.8630194881889759
21
-2.1153465748031497
0
LINE
8
BLACK
6
CONTINUOUS
10
4.8630194881889759
20
-2.1153465748031497
11
4.8769805118110234
21
-2.1153465748031497
0
LINE
8
BLACK
6
CONTINUOUS
10
4.8769805118110234
20
-2.1153465748031497
11
4.89085968503937
21
-2.1168560236220473
0
LINE
8
BLACK
6
CONTINUOUS
10
4.7475494488188978
20
-2.2578913385826773
11
4.749864173228346
21
-2.2715147244094487
0
LINE
8
BLACK
6
CONTINUOUS
10
4.749864173228346
20
-2.2715147244094487
11
4.753689645669291
21
-2.2847932283464565
0
LINE
8
BLACK
6
CONTINUOUS
10
4.753689645669291
20
-2.2847932283464565
11
4.7589777952755901
21
-2.2975599606299211
0
LINE
8
BLACK
6
CONTINUOUS
10
4.7589777952755901
20
-2.2975599606299211
11
4.7656621259842522
21
-2.3096543307086614
0
LINE
8
BLACK
6
CONTINUOUS
10
4.7656621259842522
20
-2.3096543307086614
11
4.7736585433070866
21
-2.320924251968504
0
LINE
8
BLACK
6
CONTINUOUS
10
4.7736585433070866
20
-2.320924251968504
11
4.7828665354330706
21
-2.3312279527559054
0
LINE
8
BLACK
6
CONTINUOUS
10
4.7828665354330706
20
-2.3312279527559054
11
4.7931702362204724
21
-2.3404359448818899
0
LINE
8
BLACK
6
CONTINUOUS
10
4.7931702362204724
20
-2.3404359448818899
11
4.8044401574803146
21
-2.3484323622047243
0
LINE
8
BLACK
6
CONTINUOUS
10
4.8044401574803146
20
-2.3484323622047243
11
4.816534527559055
21
-2.355116692913386
0
LINE
8
BLACK
6
CONTINUOUS
10
4.816534527559055
20
-2.355116692913386
11
4.82930125984252
21
-2.3604048425196851
0
LINE
8
BLACK
6
CONTINUOUS
10
4.82930125984252
20
-2.3604048425196851
11
4.8425797637795274
21
-2.3642303149606301
0
LINE
8
BLACK
6
CONTINUOUS
10
4.8425797637795274
20
-2.3642303149606301
11
4.8562031496062987
21
-2.3665450393700787
0
LINE
8
BLACK
6
CONTINUOUS
10
4.8562031496062987
20
-2.3665450393700787
11
4.8700000000000001
21
-2.3673198425196849
0
LINE
8
BLACK
6
CONTINUOUS
10
4.8700000000000001
20
-2.3673198425196849
11
4.8837968503937006
21
-2.3665450393700787
0
LINE
8
BLACK
6
CONTINUOUS
10
4.8837968503937006
20
-2.3665450393700787
11
4.897420236220472
21
-2.3642303149606301
0
LINE
8
BLACK
6
CONTINUOUS
10
4.897420236220472
20
-2.3642303149606301
11
4.9106987401574802
21
-2.3604048425196851
0
LINE
8
BLACK
6
CONTINUOUS
10
4.9106987401574802
20
-2.3604048425196851
11
4.9234654724409443
21
-2.355116692913386
0
LINE
8
BLACK
6
CONTINUOUS
10
4.9234654724409443
20
-2.355116692913386
11
4.9355598425196847
21
-2.3484323622047243
0
LINE
8
BLACK
6
CONTINUOUS
10
4.9355598425196847
20
-2.3484323622047243
11
4.9468297637795278
21
-2.3404359448818899
0
LINE
8
BLACK
6
CONTINUOUS
10
4.9468297637795278
20
-2.3404359448818899
11
4.9571334645669287
21
-2.3312279527559054
0
LINE
8
BLACK
6
CONTINUOUS
10
4.9571334645669287
20
-2.3312279527559054
11
4.9663414566929136
21
-2.320924251968504
0
LINE
8
BLACK
6
CONTINUOUS
10
4.9663414566929136
20
-2.320924251968504
11
4.974337874015748
21
-2.3096543307086614
0
LINE
8
BLACK
6
CONTINUOUS
10
4.974337874015748
20
-2.3096543307086614
11
4.9810222047244093
21
-2.2975599606299211
0
LINE
8
BLACK
6
CONTINUOUS
10
4.9810222047244093
20
-2.2975599606299211
11
4.9863103543307083
21
-2.2847932283464565
0
LINE
8
BLACK
6
CONTINUOUS
10
4.9863103543307083
20
-2.2847932283464565
11
4.9901358267716533
21
-2.2715147244094487
0
LINE
8
BLACK
6
CONTINUOUS
10
4.9901358267716533
20
-2.2715147244094487
11
4.9924505511811024
21
-2.2578913385826773
0
LINE
8
BLACK
6
CONTINUOUS
10
4.9924505511811024
20
-2.2578913385826773
11
4.9932253543307086
21
-2.2440944881889764
0
LINE
8
BLACK
6
CONTINUOUS
10
4.9932253543307086
20
-2.2440944881889764
11
4.9924505511811024
21
-2.2302976377952755
0
LINE
8
BLACK
6
CONTINUOUS
10
4.9924505511811024
20
-2.2302976377952755
11
4.9901358267716533
21
-2.2166742519685041
0
LINE
8
BLACK
6
CONTINUOUS
10
4.9901358267716533
20
-2.2166742519685041
11
4.9863103543307083
21
-2.2033957480314958
0
LINE
8
BLACK
6
CONTINUOUS
10
4.9863103543307083
20
-2.2033957480314958
11
4.9810222047244093
21
-2.1906290157480313
0
LINE
8
BLACK
6
CONTINUOUS
10
4.9810222047244093
20
-2.1906290157480313
11
4.974337874015748
21
-2.1785346456692913
0
LINE
8
BLACK
6
CONTINUOUS
10
4.974337874015748
20
-2.1785346456692913
11
4.9663414566929136
21
-2.1672647244094487
0
LINE
8
BLACK
6
CONTINUOUS
10
4.9663414566929136
20
-2.1672647244094487
11
4.9571334645669287
21
-2.1569610236220473
0
LINE
8
BLACK
6
CONTINUOUS
10
4.9571334645669287
20
-2.1569610236220473
11
4.9468297637795278
21
-2.1477530314960629
0
LINE
8
BLACK
6
CONTINUOUS
10
4.9468297637795278
20
-2.1477530314960629
11
4.9355598425196847
21
-2.1397566141732285
0
LINE
8
BLACK
6
CONTINUOUS
10
4.9355598425196847
20
-2.1397566141732285
11
4.9234654724409443
21
-2.1330722834645668
0
LINE
8
BLACK
6
CONTINUOUS
10
4.9234654724409443
20
-2.1330722834645668
11
4.9106987401574802
21
-2.1277841338582677
0
LINE
8
BLACK
6
CONTINUOUS
10
4.9106987401574802
20
-2.1277841338582677
11
4.897420236220472
21
-2.1239586614173227
0
LINE
8
BLACK
6
CONTINUOUS
10
4.897420236220472
20
-2.1239586614173227
11
4.8837968503937006
21
-2.1216439370078741
0
LINE
8
BLACK
6
CONTINUOUS
10
4.8837968503937006
20
-2.1216439370078741
11
4.8700000000000001
21
-2.1208691338582675
0
LINE
8
BLACK
6
CONTINUOUS
10
4.8700000000000001
20
-2.1208691338582675
11
4.8562031496062987
21
-2.1216439370078741
0
LINE
8
BLACK
6
CONTINUOUS
10
4.8562031496062987
20
-2.1216439370078741
11
4.8425797637795274
21
-2.1239586614173227
0
LINE
8
BLACK
6
CONTINUOUS
10
4.8425797637795274
20
-2.1239586614173227
11
4.82930125984252
21
-2.1277841338582677
0
LINE
8
BLACK
6
CONTINUOUS
10
4.82930125984252
20
-2.1277841338582677
11
4.816534527559055
21
-2.1330722834645668
0
LINE
8
BLACK
6
CONTINUOUS
10
4.816534527559055
20
-2.1330722834645668
11
4.8044401574803146
21
-2.1397566141732285
0
LINE
8
BLACK
6
CONTINUOUS
10
4.8044401574803146
20
-2.1397566141732285
11
4.7931702362204724
21
-2.1477530314960629
0
LINE
8
BLACK
6
CONTINUOUS
10
4.7931702362204724
20
-2.1477530314960629
11
4.7828665354330706
21
-2.1569610236220473
0
LINE
8
BLACK
6
CONTINUOUS
10
4.7828665354330706
20
-2.1569610236220473
11
4.7736585433070866
21
-2.1672647244094487
0
LINE
8
BLACK
6
CONTINUOUS
10
4.7736585433070866
20
-2.1672647244094487
11
4.7656621259842522
21
-2.1785346456692913
0
LINE
8
BLACK
6
CONTINUOUS
10
4.7656621259842522
20
-2.1785346456692913
11
4.7589777952755901
21
-2.1906290157480313
0
LINE
8
BLACK
6
CONTINUOUS
10
4.7589777952755901
20
-2.1906290157480313
11
4.753689645669291
21
-2.2033957480314958
0
LINE
8
BLACK
6
CONTINUOUS
10
4.753689645669291
20
-2.2033957480314958
11
4.749864173228346
21
-2.2166742519685041
0
LINE
8
BLACK
6
CONTINUOUS
10
4.749864173228346
20
-2.2166742519685041
11
4.7475494488188978
21
-2.2302976377952755
0
LINE
8
BLACK
6
CONTINUOUS
10
4.7475494488188978
20
-2.2302976377952755
11
4.7467746456692916
21
-2.2440944881889764
0
LINE
8
BLACK
6
CONTINUOUS
10
4.7467746456692916
20
-2.2440944881889764
11
4.7475494488188978
21
-2.2578913385826773
  0
ENDSEC
  0
EOF
